M48
; DRILL file {KiCad 8.0.0} date 2024-03-19T18:53:17-0500
; FORMAT={-:-/ absolute / inch / decimal}
; #@! TF.CreationDate,2024-03-19T18:53:17-05:00
; #@! TF.GenerationSoftware,Kicad,Pcbnew,8.0.0
; #@! TF.FileFunction,Plated,1,2,PTH
FMAT,2
INCH
; #@! TA.AperFunction,Plated,PTH,ViaDrill
T1C0.0118
; #@! TA.AperFunction,Plated,PTH,ComponentDrill
T2C0.0374
; #@! TA.AperFunction,Plated,PTH,ComponentDrill
T3C0.0402
; #@! TA.AperFunction,Plated,PTH,ComponentDrill
T4C0.0728
; #@! TA.AperFunction,Plated,PTH,ComponentDrill
T5C0.0906
%
G90
G05
T1
X4.1929Y-3.4055
X4.1929Y-3.5138
X4.3209Y-2.687
X4.3307Y-2.7461
X4.3898Y-2.9035
X4.3996Y-3.5433
X4.421Y-3.1207
X4.4587Y-3.0315
X4.498Y-3.248
X4.5413Y-3.1693
X4.5571Y-3.2283
X4.5669Y-3.7106
X4.6161Y-3.435
X4.6457Y-3.1398
X4.6526Y-3.0899
X4.7146Y-2.9035
X4.7244Y-2.7362
X4.7362Y-3.0077
X4.7835Y-3.1791
X4.8031Y-3.4055
X4.8425Y-3.1201
X4.8425Y-3.2087
X4.8524Y-3.061
X4.872Y-2.815
X4.8917Y-2.8543
X4.9016Y-3.2972
X4.9606Y-2.7264
X4.9902Y-2.4705
X5.0Y-2.5689
X5.0Y-2.9626
X5.0098Y-2.7362
X5.0394Y-2.9724
X5.1772Y-2.5689
X5.2264Y-2.874
X5.2461Y-2.6575
X5.2638Y-2.7048
X5.2756Y-2.4311
X5.2953Y-2.7165
X5.3346Y-2.7264
X5.3346Y-2.939
X5.3346Y-2.9921
X5.3839Y-2.7264
X5.4134Y-2.8051
X5.4232Y-2.9921
X5.4724Y-2.4705
X5.4924Y-2.8711
X5.5118Y-3.1594
X5.5217Y-3.376
X5.5315Y-2.8051
X5.5991Y-2.9442
X5.6102Y-3.1594
X5.6299Y-3.376
X5.6398Y-2.9134
X5.6693Y-2.5394
X5.6778Y-3.023
X5.7112Y-2.9895
X5.7244Y-2.5984
X5.7244Y-2.6378
X5.748Y-2.4409
X5.748Y-2.7362
X5.748Y-2.8937
X5.7874Y-2.7362
X5.7874Y-2.8937
X5.7972Y-2.4606
X5.8169Y-2.5984
X5.8268Y-2.4803
X5.935Y-2.3228
X5.935Y-2.4705
X5.9646Y-2.3425
X6.1024Y-2.4705
X6.122Y-2.5295
X6.1614Y-2.5689
X6.2598Y-2.6969
X6.2795Y-2.4705
T2
X4.3728Y-2.5398
X4.4713Y-2.5398
X4.55Y-2.5398
X4.6484Y-2.5398
T3
X4.9756Y-2.1813
X5.0756Y-2.1813
X5.1756Y-2.1813
X5.2756Y-2.1813
X5.4874Y-2.185
X5.5874Y-2.185
X5.6874Y-2.185
X5.7874Y-2.185
X5.9992Y-2.185
X6.0992Y-2.185
X6.1992Y-2.185
X6.2992Y-2.185
T4
X6.3049Y-3.2008
X6.3049Y-3.3661
X6.3049Y-3.5315
X6.4702Y-3.2008
X6.4702Y-3.3661
X6.4702Y-3.5315
T5
X4.252Y-2.4331
X4.7693Y-2.4331
M30
