%TF.GenerationSoftware,KiCad,Pcbnew,8.0.0*%
%TF.CreationDate,2024-03-19T18:53:13-05:00*%
%TF.ProjectId,playground,706c6179-6772-46f7-956e-642e6b696361,rev?*%
%TF.SameCoordinates,Original*%
%TF.FileFunction,Legend,Top*%
%TF.FilePolarity,Positive*%
%FSLAX46Y46*%
G04 Gerber Fmt 4.6, Leading zero omitted, Abs format (unit mm)*
G04 Created by KiCad (PCBNEW 8.0.0) date 2024-03-19 18:53:13*
%MOMM*%
%LPD*%
G01*
G04 APERTURE LIST*
G04 Aperture macros list*
%AMRoundRect*
0 Rectangle with rounded corners*
0 $1 Rounding radius*
0 $2 $3 $4 $5 $6 $7 $8 $9 X,Y pos of 4 corners*
0 Add a 4 corners polygon primitive as box body*
4,1,4,$2,$3,$4,$5,$6,$7,$8,$9,$2,$3,0*
0 Add four circle primitives for the rounded corners*
1,1,$1+$1,$2,$3*
1,1,$1+$1,$4,$5*
1,1,$1+$1,$6,$7*
1,1,$1+$1,$8,$9*
0 Add four rect primitives between the rounded corners*
20,1,$1+$1,$2,$3,$4,$5,0*
20,1,$1+$1,$4,$5,$6,$7,0*
20,1,$1+$1,$6,$7,$8,$9,0*
20,1,$1+$1,$8,$9,$2,$3,0*%
G04 Aperture macros list end*
%ADD10C,0.150000*%
%ADD11C,0.254000*%
%ADD12C,0.120000*%
%ADD13C,0.200000*%
%ADD14C,0.100000*%
%ADD15RoundRect,0.500000X-0.500000X-0.500000X0.500000X-0.500000X0.500000X0.500000X-0.500000X0.500000X0*%
%ADD16RoundRect,0.250000X-0.450000X0.262500X-0.450000X-0.262500X0.450000X-0.262500X0.450000X0.262500X0*%
%ADD17RoundRect,0.250000X-0.262500X-0.450000X0.262500X-0.450000X0.262500X0.450000X-0.262500X0.450000X0*%
%ADD18RoundRect,0.250000X-0.250000X-0.475000X0.250000X-0.475000X0.250000X0.475000X-0.250000X0.475000X0*%
%ADD19RoundRect,0.075000X0.075000X-0.662500X0.075000X0.662500X-0.075000X0.662500X-0.075000X-0.662500X0*%
%ADD20RoundRect,0.075000X0.662500X-0.075000X0.662500X0.075000X-0.662500X0.075000X-0.662500X-0.075000X0*%
%ADD21R,1.200000X0.600000*%
%ADD22RoundRect,0.218750X-0.218750X-0.381250X0.218750X-0.381250X0.218750X0.381250X-0.218750X0.381250X0*%
%ADD23C,3.050000*%
%ADD24C,2.775000*%
%ADD25RoundRect,0.243750X0.243750X0.456250X-0.243750X0.456250X-0.243750X-0.456250X0.243750X-0.456250X0*%
%ADD26C,1.300000*%
%ADD27R,1.530000X1.530000*%
%ADD28C,1.550000*%
%ADD29R,1.600000X1.500000*%
%ADD30C,1.600000*%
%ADD31C,3.000000*%
%ADD32R,0.700000X1.925000*%
%ADD33RoundRect,0.243750X-0.243750X-0.456250X0.243750X-0.456250X0.243750X0.456250X-0.243750X0.456250X0*%
%ADD34RoundRect,0.243750X0.456250X-0.243750X0.456250X0.243750X-0.456250X0.243750X-0.456250X-0.243750X0*%
%ADD35RoundRect,0.250000X-0.475000X0.250000X-0.475000X-0.250000X0.475000X-0.250000X0.475000X0.250000X0*%
%ADD36RoundRect,0.250000X0.450000X-0.262500X0.450000X0.262500X-0.450000X0.262500X-0.450000X-0.262500X0*%
%ADD37R,1.400000X0.300000*%
G04 APERTURE END LIST*
D10*
X110166667Y-91593200D02*
X110309524Y-91640819D01*
X110309524Y-91640819D02*
X110547619Y-91640819D01*
X110547619Y-91640819D02*
X110642857Y-91593200D01*
X110642857Y-91593200D02*
X110690476Y-91545580D01*
X110690476Y-91545580D02*
X110738095Y-91450342D01*
X110738095Y-91450342D02*
X110738095Y-91355104D01*
X110738095Y-91355104D02*
X110690476Y-91259866D01*
X110690476Y-91259866D02*
X110642857Y-91212247D01*
X110642857Y-91212247D02*
X110547619Y-91164628D01*
X110547619Y-91164628D02*
X110357143Y-91117009D01*
X110357143Y-91117009D02*
X110261905Y-91069390D01*
X110261905Y-91069390D02*
X110214286Y-91021771D01*
X110214286Y-91021771D02*
X110166667Y-90926533D01*
X110166667Y-90926533D02*
X110166667Y-90831295D01*
X110166667Y-90831295D02*
X110214286Y-90736057D01*
X110214286Y-90736057D02*
X110261905Y-90688438D01*
X110261905Y-90688438D02*
X110357143Y-90640819D01*
X110357143Y-90640819D02*
X110595238Y-90640819D01*
X110595238Y-90640819D02*
X110738095Y-90688438D01*
X111071429Y-90640819D02*
X111309524Y-91640819D01*
X111309524Y-91640819D02*
X111500000Y-90926533D01*
X111500000Y-90926533D02*
X111690476Y-91640819D01*
X111690476Y-91640819D02*
X111928572Y-90640819D01*
X112833333Y-91640819D02*
X112261905Y-91640819D01*
X112547619Y-91640819D02*
X112547619Y-90640819D01*
X112547619Y-90640819D02*
X112452381Y-90783676D01*
X112452381Y-90783676D02*
X112357143Y-90878914D01*
X112357143Y-90878914D02*
X112261905Y-90926533D01*
X107854819Y-67416666D02*
X107378628Y-67749999D01*
X107854819Y-67988094D02*
X106854819Y-67988094D01*
X106854819Y-67988094D02*
X106854819Y-67607142D01*
X106854819Y-67607142D02*
X106902438Y-67511904D01*
X106902438Y-67511904D02*
X106950057Y-67464285D01*
X106950057Y-67464285D02*
X107045295Y-67416666D01*
X107045295Y-67416666D02*
X107188152Y-67416666D01*
X107188152Y-67416666D02*
X107283390Y-67464285D01*
X107283390Y-67464285D02*
X107331009Y-67511904D01*
X107331009Y-67511904D02*
X107378628Y-67607142D01*
X107378628Y-67607142D02*
X107378628Y-67988094D01*
X106854819Y-67083332D02*
X106854819Y-66464285D01*
X106854819Y-66464285D02*
X107235771Y-66797618D01*
X107235771Y-66797618D02*
X107235771Y-66654761D01*
X107235771Y-66654761D02*
X107283390Y-66559523D01*
X107283390Y-66559523D02*
X107331009Y-66511904D01*
X107331009Y-66511904D02*
X107426247Y-66464285D01*
X107426247Y-66464285D02*
X107664342Y-66464285D01*
X107664342Y-66464285D02*
X107759580Y-66511904D01*
X107759580Y-66511904D02*
X107807200Y-66559523D01*
X107807200Y-66559523D02*
X107854819Y-66654761D01*
X107854819Y-66654761D02*
X107854819Y-66940475D01*
X107854819Y-66940475D02*
X107807200Y-67035713D01*
X107807200Y-67035713D02*
X107759580Y-67083332D01*
X176838333Y-65774819D02*
X176505000Y-65298628D01*
X176266905Y-65774819D02*
X176266905Y-64774819D01*
X176266905Y-64774819D02*
X176647857Y-64774819D01*
X176647857Y-64774819D02*
X176743095Y-64822438D01*
X176743095Y-64822438D02*
X176790714Y-64870057D01*
X176790714Y-64870057D02*
X176838333Y-64965295D01*
X176838333Y-64965295D02*
X176838333Y-65108152D01*
X176838333Y-65108152D02*
X176790714Y-65203390D01*
X176790714Y-65203390D02*
X176743095Y-65251009D01*
X176743095Y-65251009D02*
X176647857Y-65298628D01*
X176647857Y-65298628D02*
X176266905Y-65298628D01*
X177695476Y-65108152D02*
X177695476Y-65774819D01*
X177457381Y-64727200D02*
X177219286Y-65441485D01*
X177219286Y-65441485D02*
X177838333Y-65441485D01*
X167258333Y-70939580D02*
X167210714Y-70987200D01*
X167210714Y-70987200D02*
X167067857Y-71034819D01*
X167067857Y-71034819D02*
X166972619Y-71034819D01*
X166972619Y-71034819D02*
X166829762Y-70987200D01*
X166829762Y-70987200D02*
X166734524Y-70891961D01*
X166734524Y-70891961D02*
X166686905Y-70796723D01*
X166686905Y-70796723D02*
X166639286Y-70606247D01*
X166639286Y-70606247D02*
X166639286Y-70463390D01*
X166639286Y-70463390D02*
X166686905Y-70272914D01*
X166686905Y-70272914D02*
X166734524Y-70177676D01*
X166734524Y-70177676D02*
X166829762Y-70082438D01*
X166829762Y-70082438D02*
X166972619Y-70034819D01*
X166972619Y-70034819D02*
X167067857Y-70034819D01*
X167067857Y-70034819D02*
X167210714Y-70082438D01*
X167210714Y-70082438D02*
X167258333Y-70130057D01*
X167829762Y-70463390D02*
X167734524Y-70415771D01*
X167734524Y-70415771D02*
X167686905Y-70368152D01*
X167686905Y-70368152D02*
X167639286Y-70272914D01*
X167639286Y-70272914D02*
X167639286Y-70225295D01*
X167639286Y-70225295D02*
X167686905Y-70130057D01*
X167686905Y-70130057D02*
X167734524Y-70082438D01*
X167734524Y-70082438D02*
X167829762Y-70034819D01*
X167829762Y-70034819D02*
X168020238Y-70034819D01*
X168020238Y-70034819D02*
X168115476Y-70082438D01*
X168115476Y-70082438D02*
X168163095Y-70130057D01*
X168163095Y-70130057D02*
X168210714Y-70225295D01*
X168210714Y-70225295D02*
X168210714Y-70272914D01*
X168210714Y-70272914D02*
X168163095Y-70368152D01*
X168163095Y-70368152D02*
X168115476Y-70415771D01*
X168115476Y-70415771D02*
X168020238Y-70463390D01*
X168020238Y-70463390D02*
X167829762Y-70463390D01*
X167829762Y-70463390D02*
X167734524Y-70511009D01*
X167734524Y-70511009D02*
X167686905Y-70558628D01*
X167686905Y-70558628D02*
X167639286Y-70653866D01*
X167639286Y-70653866D02*
X167639286Y-70844342D01*
X167639286Y-70844342D02*
X167686905Y-70939580D01*
X167686905Y-70939580D02*
X167734524Y-70987200D01*
X167734524Y-70987200D02*
X167829762Y-71034819D01*
X167829762Y-71034819D02*
X168020238Y-71034819D01*
X168020238Y-71034819D02*
X168115476Y-70987200D01*
X168115476Y-70987200D02*
X168163095Y-70939580D01*
X168163095Y-70939580D02*
X168210714Y-70844342D01*
X168210714Y-70844342D02*
X168210714Y-70653866D01*
X168210714Y-70653866D02*
X168163095Y-70558628D01*
X168163095Y-70558628D02*
X168115476Y-70511009D01*
X168115476Y-70511009D02*
X168020238Y-70463390D01*
X108854819Y-80511904D02*
X109664342Y-80511904D01*
X109664342Y-80511904D02*
X109759580Y-80464285D01*
X109759580Y-80464285D02*
X109807200Y-80416666D01*
X109807200Y-80416666D02*
X109854819Y-80321428D01*
X109854819Y-80321428D02*
X109854819Y-80130952D01*
X109854819Y-80130952D02*
X109807200Y-80035714D01*
X109807200Y-80035714D02*
X109759580Y-79988095D01*
X109759580Y-79988095D02*
X109664342Y-79940476D01*
X109664342Y-79940476D02*
X108854819Y-79940476D01*
X108950057Y-79511904D02*
X108902438Y-79464285D01*
X108902438Y-79464285D02*
X108854819Y-79369047D01*
X108854819Y-79369047D02*
X108854819Y-79130952D01*
X108854819Y-79130952D02*
X108902438Y-79035714D01*
X108902438Y-79035714D02*
X108950057Y-78988095D01*
X108950057Y-78988095D02*
X109045295Y-78940476D01*
X109045295Y-78940476D02*
X109140533Y-78940476D01*
X109140533Y-78940476D02*
X109283390Y-78988095D01*
X109283390Y-78988095D02*
X109854819Y-79559523D01*
X109854819Y-79559523D02*
X109854819Y-78940476D01*
D11*
X138972237Y-70789318D02*
X138972237Y-69519318D01*
X140302714Y-70668365D02*
X140242238Y-70728842D01*
X140242238Y-70728842D02*
X140060809Y-70789318D01*
X140060809Y-70789318D02*
X139939857Y-70789318D01*
X139939857Y-70789318D02*
X139758428Y-70728842D01*
X139758428Y-70728842D02*
X139637476Y-70607889D01*
X139637476Y-70607889D02*
X139576999Y-70486937D01*
X139576999Y-70486937D02*
X139516523Y-70245032D01*
X139516523Y-70245032D02*
X139516523Y-70063603D01*
X139516523Y-70063603D02*
X139576999Y-69821699D01*
X139576999Y-69821699D02*
X139637476Y-69700746D01*
X139637476Y-69700746D02*
X139758428Y-69579794D01*
X139758428Y-69579794D02*
X139939857Y-69519318D01*
X139939857Y-69519318D02*
X140060809Y-69519318D01*
X140060809Y-69519318D02*
X140242238Y-69579794D01*
X140242238Y-69579794D02*
X140302714Y-69640270D01*
X140726047Y-69519318D02*
X141572714Y-69519318D01*
X141572714Y-69519318D02*
X141028428Y-70789318D01*
D10*
X162645833Y-69654819D02*
X162169643Y-69654819D01*
X162169643Y-69654819D02*
X162169643Y-68654819D01*
X163502976Y-69654819D02*
X162931548Y-69654819D01*
X163217262Y-69654819D02*
X163217262Y-68654819D01*
X163217262Y-68654819D02*
X163122024Y-68797676D01*
X163122024Y-68797676D02*
X163026786Y-68892914D01*
X163026786Y-68892914D02*
X162931548Y-68940533D01*
X172408333Y-74709580D02*
X172360714Y-74757200D01*
X172360714Y-74757200D02*
X172217857Y-74804819D01*
X172217857Y-74804819D02*
X172122619Y-74804819D01*
X172122619Y-74804819D02*
X171979762Y-74757200D01*
X171979762Y-74757200D02*
X171884524Y-74661961D01*
X171884524Y-74661961D02*
X171836905Y-74566723D01*
X171836905Y-74566723D02*
X171789286Y-74376247D01*
X171789286Y-74376247D02*
X171789286Y-74233390D01*
X171789286Y-74233390D02*
X171836905Y-74042914D01*
X171836905Y-74042914D02*
X171884524Y-73947676D01*
X171884524Y-73947676D02*
X171979762Y-73852438D01*
X171979762Y-73852438D02*
X172122619Y-73804819D01*
X172122619Y-73804819D02*
X172217857Y-73804819D01*
X172217857Y-73804819D02*
X172360714Y-73852438D01*
X172360714Y-73852438D02*
X172408333Y-73900057D01*
X173265476Y-73804819D02*
X173075000Y-73804819D01*
X173075000Y-73804819D02*
X172979762Y-73852438D01*
X172979762Y-73852438D02*
X172932143Y-73900057D01*
X172932143Y-73900057D02*
X172836905Y-74042914D01*
X172836905Y-74042914D02*
X172789286Y-74233390D01*
X172789286Y-74233390D02*
X172789286Y-74614342D01*
X172789286Y-74614342D02*
X172836905Y-74709580D01*
X172836905Y-74709580D02*
X172884524Y-74757200D01*
X172884524Y-74757200D02*
X172979762Y-74804819D01*
X172979762Y-74804819D02*
X173170238Y-74804819D01*
X173170238Y-74804819D02*
X173265476Y-74757200D01*
X173265476Y-74757200D02*
X173313095Y-74709580D01*
X173313095Y-74709580D02*
X173360714Y-74614342D01*
X173360714Y-74614342D02*
X173360714Y-74376247D01*
X173360714Y-74376247D02*
X173313095Y-74281009D01*
X173313095Y-74281009D02*
X173265476Y-74233390D01*
X173265476Y-74233390D02*
X173170238Y-74185771D01*
X173170238Y-74185771D02*
X172979762Y-74185771D01*
X172979762Y-74185771D02*
X172884524Y-74233390D01*
X172884524Y-74233390D02*
X172836905Y-74281009D01*
X172836905Y-74281009D02*
X172789286Y-74376247D01*
X167258333Y-73949580D02*
X167210714Y-73997200D01*
X167210714Y-73997200D02*
X167067857Y-74044819D01*
X167067857Y-74044819D02*
X166972619Y-74044819D01*
X166972619Y-74044819D02*
X166829762Y-73997200D01*
X166829762Y-73997200D02*
X166734524Y-73901961D01*
X166734524Y-73901961D02*
X166686905Y-73806723D01*
X166686905Y-73806723D02*
X166639286Y-73616247D01*
X166639286Y-73616247D02*
X166639286Y-73473390D01*
X166639286Y-73473390D02*
X166686905Y-73282914D01*
X166686905Y-73282914D02*
X166734524Y-73187676D01*
X166734524Y-73187676D02*
X166829762Y-73092438D01*
X166829762Y-73092438D02*
X166972619Y-73044819D01*
X166972619Y-73044819D02*
X167067857Y-73044819D01*
X167067857Y-73044819D02*
X167210714Y-73092438D01*
X167210714Y-73092438D02*
X167258333Y-73140057D01*
X167734524Y-74044819D02*
X167925000Y-74044819D01*
X167925000Y-74044819D02*
X168020238Y-73997200D01*
X168020238Y-73997200D02*
X168067857Y-73949580D01*
X168067857Y-73949580D02*
X168163095Y-73806723D01*
X168163095Y-73806723D02*
X168210714Y-73616247D01*
X168210714Y-73616247D02*
X168210714Y-73235295D01*
X168210714Y-73235295D02*
X168163095Y-73140057D01*
X168163095Y-73140057D02*
X168115476Y-73092438D01*
X168115476Y-73092438D02*
X168020238Y-73044819D01*
X168020238Y-73044819D02*
X167829762Y-73044819D01*
X167829762Y-73044819D02*
X167734524Y-73092438D01*
X167734524Y-73092438D02*
X167686905Y-73140057D01*
X167686905Y-73140057D02*
X167639286Y-73235295D01*
X167639286Y-73235295D02*
X167639286Y-73473390D01*
X167639286Y-73473390D02*
X167686905Y-73568628D01*
X167686905Y-73568628D02*
X167734524Y-73616247D01*
X167734524Y-73616247D02*
X167829762Y-73663866D01*
X167829762Y-73663866D02*
X168020238Y-73663866D01*
X168020238Y-73663866D02*
X168115476Y-73616247D01*
X168115476Y-73616247D02*
X168163095Y-73568628D01*
X168163095Y-73568628D02*
X168210714Y-73473390D01*
D11*
X133972237Y-76039318D02*
X133972237Y-74769318D01*
X135302714Y-75918365D02*
X135242238Y-75978842D01*
X135242238Y-75978842D02*
X135060809Y-76039318D01*
X135060809Y-76039318D02*
X134939857Y-76039318D01*
X134939857Y-76039318D02*
X134758428Y-75978842D01*
X134758428Y-75978842D02*
X134637476Y-75857889D01*
X134637476Y-75857889D02*
X134576999Y-75736937D01*
X134576999Y-75736937D02*
X134516523Y-75495032D01*
X134516523Y-75495032D02*
X134516523Y-75313603D01*
X134516523Y-75313603D02*
X134576999Y-75071699D01*
X134576999Y-75071699D02*
X134637476Y-74950746D01*
X134637476Y-74950746D02*
X134758428Y-74829794D01*
X134758428Y-74829794D02*
X134939857Y-74769318D01*
X134939857Y-74769318D02*
X135060809Y-74769318D01*
X135060809Y-74769318D02*
X135242238Y-74829794D01*
X135242238Y-74829794D02*
X135302714Y-74890270D01*
X136028428Y-75313603D02*
X135907476Y-75253127D01*
X135907476Y-75253127D02*
X135846999Y-75192651D01*
X135846999Y-75192651D02*
X135786523Y-75071699D01*
X135786523Y-75071699D02*
X135786523Y-75011222D01*
X135786523Y-75011222D02*
X135846999Y-74890270D01*
X135846999Y-74890270D02*
X135907476Y-74829794D01*
X135907476Y-74829794D02*
X136028428Y-74769318D01*
X136028428Y-74769318D02*
X136270333Y-74769318D01*
X136270333Y-74769318D02*
X136391285Y-74829794D01*
X136391285Y-74829794D02*
X136451761Y-74890270D01*
X136451761Y-74890270D02*
X136512238Y-75011222D01*
X136512238Y-75011222D02*
X136512238Y-75071699D01*
X136512238Y-75071699D02*
X136451761Y-75192651D01*
X136451761Y-75192651D02*
X136391285Y-75253127D01*
X136391285Y-75253127D02*
X136270333Y-75313603D01*
X136270333Y-75313603D02*
X136028428Y-75313603D01*
X136028428Y-75313603D02*
X135907476Y-75374080D01*
X135907476Y-75374080D02*
X135846999Y-75434556D01*
X135846999Y-75434556D02*
X135786523Y-75555508D01*
X135786523Y-75555508D02*
X135786523Y-75797413D01*
X135786523Y-75797413D02*
X135846999Y-75918365D01*
X135846999Y-75918365D02*
X135907476Y-75978842D01*
X135907476Y-75978842D02*
X136028428Y-76039318D01*
X136028428Y-76039318D02*
X136270333Y-76039318D01*
X136270333Y-76039318D02*
X136391285Y-75978842D01*
X136391285Y-75978842D02*
X136451761Y-75918365D01*
X136451761Y-75918365D02*
X136512238Y-75797413D01*
X136512238Y-75797413D02*
X136512238Y-75555508D01*
X136512238Y-75555508D02*
X136451761Y-75434556D01*
X136451761Y-75434556D02*
X136391285Y-75374080D01*
X136391285Y-75374080D02*
X136270333Y-75313603D01*
D10*
X172408333Y-71699580D02*
X172360714Y-71747200D01*
X172360714Y-71747200D02*
X172217857Y-71794819D01*
X172217857Y-71794819D02*
X172122619Y-71794819D01*
X172122619Y-71794819D02*
X171979762Y-71747200D01*
X171979762Y-71747200D02*
X171884524Y-71651961D01*
X171884524Y-71651961D02*
X171836905Y-71556723D01*
X171836905Y-71556723D02*
X171789286Y-71366247D01*
X171789286Y-71366247D02*
X171789286Y-71223390D01*
X171789286Y-71223390D02*
X171836905Y-71032914D01*
X171836905Y-71032914D02*
X171884524Y-70937676D01*
X171884524Y-70937676D02*
X171979762Y-70842438D01*
X171979762Y-70842438D02*
X172122619Y-70794819D01*
X172122619Y-70794819D02*
X172217857Y-70794819D01*
X172217857Y-70794819D02*
X172360714Y-70842438D01*
X172360714Y-70842438D02*
X172408333Y-70890057D01*
X173313095Y-70794819D02*
X172836905Y-70794819D01*
X172836905Y-70794819D02*
X172789286Y-71271009D01*
X172789286Y-71271009D02*
X172836905Y-71223390D01*
X172836905Y-71223390D02*
X172932143Y-71175771D01*
X172932143Y-71175771D02*
X173170238Y-71175771D01*
X173170238Y-71175771D02*
X173265476Y-71223390D01*
X173265476Y-71223390D02*
X173313095Y-71271009D01*
X173313095Y-71271009D02*
X173360714Y-71366247D01*
X173360714Y-71366247D02*
X173360714Y-71604342D01*
X173360714Y-71604342D02*
X173313095Y-71699580D01*
X173313095Y-71699580D02*
X173265476Y-71747200D01*
X173265476Y-71747200D02*
X173170238Y-71794819D01*
X173170238Y-71794819D02*
X172932143Y-71794819D01*
X172932143Y-71794819D02*
X172836905Y-71747200D01*
X172836905Y-71747200D02*
X172789286Y-71699580D01*
X172408333Y-65679580D02*
X172360714Y-65727200D01*
X172360714Y-65727200D02*
X172217857Y-65774819D01*
X172217857Y-65774819D02*
X172122619Y-65774819D01*
X172122619Y-65774819D02*
X171979762Y-65727200D01*
X171979762Y-65727200D02*
X171884524Y-65631961D01*
X171884524Y-65631961D02*
X171836905Y-65536723D01*
X171836905Y-65536723D02*
X171789286Y-65346247D01*
X171789286Y-65346247D02*
X171789286Y-65203390D01*
X171789286Y-65203390D02*
X171836905Y-65012914D01*
X171836905Y-65012914D02*
X171884524Y-64917676D01*
X171884524Y-64917676D02*
X171979762Y-64822438D01*
X171979762Y-64822438D02*
X172122619Y-64774819D01*
X172122619Y-64774819D02*
X172217857Y-64774819D01*
X172217857Y-64774819D02*
X172360714Y-64822438D01*
X172360714Y-64822438D02*
X172408333Y-64870057D01*
X172741667Y-64774819D02*
X173360714Y-64774819D01*
X173360714Y-64774819D02*
X173027381Y-65155771D01*
X173027381Y-65155771D02*
X173170238Y-65155771D01*
X173170238Y-65155771D02*
X173265476Y-65203390D01*
X173265476Y-65203390D02*
X173313095Y-65251009D01*
X173313095Y-65251009D02*
X173360714Y-65346247D01*
X173360714Y-65346247D02*
X173360714Y-65584342D01*
X173360714Y-65584342D02*
X173313095Y-65679580D01*
X173313095Y-65679580D02*
X173265476Y-65727200D01*
X173265476Y-65727200D02*
X173170238Y-65774819D01*
X173170238Y-65774819D02*
X172884524Y-65774819D01*
X172884524Y-65774819D02*
X172789286Y-65727200D01*
X172789286Y-65727200D02*
X172741667Y-65679580D01*
X176838333Y-71674819D02*
X176505000Y-71198628D01*
X176266905Y-71674819D02*
X176266905Y-70674819D01*
X176266905Y-70674819D02*
X176647857Y-70674819D01*
X176647857Y-70674819D02*
X176743095Y-70722438D01*
X176743095Y-70722438D02*
X176790714Y-70770057D01*
X176790714Y-70770057D02*
X176838333Y-70865295D01*
X176838333Y-70865295D02*
X176838333Y-71008152D01*
X176838333Y-71008152D02*
X176790714Y-71103390D01*
X176790714Y-71103390D02*
X176743095Y-71151009D01*
X176743095Y-71151009D02*
X176647857Y-71198628D01*
X176647857Y-71198628D02*
X176266905Y-71198628D01*
X177695476Y-70674819D02*
X177505000Y-70674819D01*
X177505000Y-70674819D02*
X177409762Y-70722438D01*
X177409762Y-70722438D02*
X177362143Y-70770057D01*
X177362143Y-70770057D02*
X177266905Y-70912914D01*
X177266905Y-70912914D02*
X177219286Y-71103390D01*
X177219286Y-71103390D02*
X177219286Y-71484342D01*
X177219286Y-71484342D02*
X177266905Y-71579580D01*
X177266905Y-71579580D02*
X177314524Y-71627200D01*
X177314524Y-71627200D02*
X177409762Y-71674819D01*
X177409762Y-71674819D02*
X177600238Y-71674819D01*
X177600238Y-71674819D02*
X177695476Y-71627200D01*
X177695476Y-71627200D02*
X177743095Y-71579580D01*
X177743095Y-71579580D02*
X177790714Y-71484342D01*
X177790714Y-71484342D02*
X177790714Y-71246247D01*
X177790714Y-71246247D02*
X177743095Y-71151009D01*
X177743095Y-71151009D02*
X177695476Y-71103390D01*
X177695476Y-71103390D02*
X177600238Y-71055771D01*
X177600238Y-71055771D02*
X177409762Y-71055771D01*
X177409762Y-71055771D02*
X177314524Y-71103390D01*
X177314524Y-71103390D02*
X177266905Y-71151009D01*
X177266905Y-71151009D02*
X177219286Y-71246247D01*
D11*
X162826668Y-78054317D02*
X162826668Y-78961460D01*
X162826668Y-78961460D02*
X162766191Y-79142888D01*
X162766191Y-79142888D02*
X162645239Y-79263841D01*
X162645239Y-79263841D02*
X162463810Y-79324317D01*
X162463810Y-79324317D02*
X162342858Y-79324317D01*
X163975715Y-78054317D02*
X163733810Y-78054317D01*
X163733810Y-78054317D02*
X163612858Y-78114793D01*
X163612858Y-78114793D02*
X163552382Y-78175269D01*
X163552382Y-78175269D02*
X163431429Y-78356698D01*
X163431429Y-78356698D02*
X163370953Y-78598602D01*
X163370953Y-78598602D02*
X163370953Y-79082412D01*
X163370953Y-79082412D02*
X163431429Y-79203364D01*
X163431429Y-79203364D02*
X163491906Y-79263841D01*
X163491906Y-79263841D02*
X163612858Y-79324317D01*
X163612858Y-79324317D02*
X163854763Y-79324317D01*
X163854763Y-79324317D02*
X163975715Y-79263841D01*
X163975715Y-79263841D02*
X164036191Y-79203364D01*
X164036191Y-79203364D02*
X164096668Y-79082412D01*
X164096668Y-79082412D02*
X164096668Y-78780031D01*
X164096668Y-78780031D02*
X164036191Y-78659079D01*
X164036191Y-78659079D02*
X163975715Y-78598602D01*
X163975715Y-78598602D02*
X163854763Y-78538126D01*
X163854763Y-78538126D02*
X163612858Y-78538126D01*
X163612858Y-78538126D02*
X163491906Y-78598602D01*
X163491906Y-78598602D02*
X163431429Y-78659079D01*
X163431429Y-78659079D02*
X163370953Y-78780031D01*
D10*
X119011905Y-74954819D02*
X119011905Y-73954819D01*
X119011905Y-73954819D02*
X119250000Y-73954819D01*
X119250000Y-73954819D02*
X119392857Y-74002438D01*
X119392857Y-74002438D02*
X119488095Y-74097676D01*
X119488095Y-74097676D02*
X119535714Y-74192914D01*
X119535714Y-74192914D02*
X119583333Y-74383390D01*
X119583333Y-74383390D02*
X119583333Y-74526247D01*
X119583333Y-74526247D02*
X119535714Y-74716723D01*
X119535714Y-74716723D02*
X119488095Y-74811961D01*
X119488095Y-74811961D02*
X119392857Y-74907200D01*
X119392857Y-74907200D02*
X119250000Y-74954819D01*
X119250000Y-74954819D02*
X119011905Y-74954819D01*
X119964286Y-74050057D02*
X120011905Y-74002438D01*
X120011905Y-74002438D02*
X120107143Y-73954819D01*
X120107143Y-73954819D02*
X120345238Y-73954819D01*
X120345238Y-73954819D02*
X120440476Y-74002438D01*
X120440476Y-74002438D02*
X120488095Y-74050057D01*
X120488095Y-74050057D02*
X120535714Y-74145295D01*
X120535714Y-74145295D02*
X120535714Y-74240533D01*
X120535714Y-74240533D02*
X120488095Y-74383390D01*
X120488095Y-74383390D02*
X119916667Y-74954819D01*
X119916667Y-74954819D02*
X120535714Y-74954819D01*
X108511905Y-73204819D02*
X108511905Y-72204819D01*
X108511905Y-72204819D02*
X108750000Y-72204819D01*
X108750000Y-72204819D02*
X108892857Y-72252438D01*
X108892857Y-72252438D02*
X108988095Y-72347676D01*
X108988095Y-72347676D02*
X109035714Y-72442914D01*
X109035714Y-72442914D02*
X109083333Y-72633390D01*
X109083333Y-72633390D02*
X109083333Y-72776247D01*
X109083333Y-72776247D02*
X109035714Y-72966723D01*
X109035714Y-72966723D02*
X108988095Y-73061961D01*
X108988095Y-73061961D02*
X108892857Y-73157200D01*
X108892857Y-73157200D02*
X108750000Y-73204819D01*
X108750000Y-73204819D02*
X108511905Y-73204819D01*
X109416667Y-72204819D02*
X110035714Y-72204819D01*
X110035714Y-72204819D02*
X109702381Y-72585771D01*
X109702381Y-72585771D02*
X109845238Y-72585771D01*
X109845238Y-72585771D02*
X109940476Y-72633390D01*
X109940476Y-72633390D02*
X109988095Y-72681009D01*
X109988095Y-72681009D02*
X110035714Y-72776247D01*
X110035714Y-72776247D02*
X110035714Y-73014342D01*
X110035714Y-73014342D02*
X109988095Y-73109580D01*
X109988095Y-73109580D02*
X109940476Y-73157200D01*
X109940476Y-73157200D02*
X109845238Y-73204819D01*
X109845238Y-73204819D02*
X109559524Y-73204819D01*
X109559524Y-73204819D02*
X109464286Y-73157200D01*
X109464286Y-73157200D02*
X109416667Y-73109580D01*
D11*
X142674667Y-54559318D02*
X142674667Y-55466461D01*
X142674667Y-55466461D02*
X142614190Y-55647889D01*
X142614190Y-55647889D02*
X142493238Y-55768842D01*
X142493238Y-55768842D02*
X142311809Y-55829318D01*
X142311809Y-55829318D02*
X142190857Y-55829318D01*
X143158476Y-54559318D02*
X143944667Y-54559318D01*
X143944667Y-54559318D02*
X143521333Y-55043127D01*
X143521333Y-55043127D02*
X143702762Y-55043127D01*
X143702762Y-55043127D02*
X143823714Y-55103603D01*
X143823714Y-55103603D02*
X143884190Y-55164080D01*
X143884190Y-55164080D02*
X143944667Y-55285032D01*
X143944667Y-55285032D02*
X143944667Y-55587413D01*
X143944667Y-55587413D02*
X143884190Y-55708365D01*
X143884190Y-55708365D02*
X143823714Y-55768842D01*
X143823714Y-55768842D02*
X143702762Y-55829318D01*
X143702762Y-55829318D02*
X143339905Y-55829318D01*
X143339905Y-55829318D02*
X143218952Y-55768842D01*
X143218952Y-55768842D02*
X143158476Y-55708365D01*
D10*
X114236666Y-67154819D02*
X114236666Y-67869104D01*
X114236666Y-67869104D02*
X114189047Y-68011961D01*
X114189047Y-68011961D02*
X114093809Y-68107200D01*
X114093809Y-68107200D02*
X113950952Y-68154819D01*
X113950952Y-68154819D02*
X113855714Y-68154819D01*
X114617619Y-67154819D02*
X115284285Y-67154819D01*
X115284285Y-67154819D02*
X114855714Y-68154819D01*
D11*
X134484318Y-86239762D02*
X133214318Y-86239762D01*
X134363365Y-84909285D02*
X134423842Y-84969761D01*
X134423842Y-84969761D02*
X134484318Y-85151190D01*
X134484318Y-85151190D02*
X134484318Y-85272142D01*
X134484318Y-85272142D02*
X134423842Y-85453571D01*
X134423842Y-85453571D02*
X134302889Y-85574523D01*
X134302889Y-85574523D02*
X134181937Y-85635000D01*
X134181937Y-85635000D02*
X133940032Y-85695476D01*
X133940032Y-85695476D02*
X133758603Y-85695476D01*
X133758603Y-85695476D02*
X133516699Y-85635000D01*
X133516699Y-85635000D02*
X133395746Y-85574523D01*
X133395746Y-85574523D02*
X133274794Y-85453571D01*
X133274794Y-85453571D02*
X133214318Y-85272142D01*
X133214318Y-85272142D02*
X133214318Y-85151190D01*
X133214318Y-85151190D02*
X133274794Y-84969761D01*
X133274794Y-84969761D02*
X133335270Y-84909285D01*
X134484318Y-84304523D02*
X134484318Y-84062619D01*
X134484318Y-84062619D02*
X134423842Y-83941666D01*
X134423842Y-83941666D02*
X134363365Y-83881190D01*
X134363365Y-83881190D02*
X134181937Y-83760238D01*
X134181937Y-83760238D02*
X133940032Y-83699761D01*
X133940032Y-83699761D02*
X133456222Y-83699761D01*
X133456222Y-83699761D02*
X133335270Y-83760238D01*
X133335270Y-83760238D02*
X133274794Y-83820714D01*
X133274794Y-83820714D02*
X133214318Y-83941666D01*
X133214318Y-83941666D02*
X133214318Y-84183571D01*
X133214318Y-84183571D02*
X133274794Y-84304523D01*
X133274794Y-84304523D02*
X133335270Y-84365000D01*
X133335270Y-84365000D02*
X133456222Y-84425476D01*
X133456222Y-84425476D02*
X133758603Y-84425476D01*
X133758603Y-84425476D02*
X133879556Y-84365000D01*
X133879556Y-84365000D02*
X133940032Y-84304523D01*
X133940032Y-84304523D02*
X134000508Y-84183571D01*
X134000508Y-84183571D02*
X134000508Y-83941666D01*
X134000508Y-83941666D02*
X133940032Y-83820714D01*
X133940032Y-83820714D02*
X133879556Y-83760238D01*
X133879556Y-83760238D02*
X133758603Y-83699761D01*
D10*
X167258333Y-67929580D02*
X167210714Y-67977200D01*
X167210714Y-67977200D02*
X167067857Y-68024819D01*
X167067857Y-68024819D02*
X166972619Y-68024819D01*
X166972619Y-68024819D02*
X166829762Y-67977200D01*
X166829762Y-67977200D02*
X166734524Y-67881961D01*
X166734524Y-67881961D02*
X166686905Y-67786723D01*
X166686905Y-67786723D02*
X166639286Y-67596247D01*
X166639286Y-67596247D02*
X166639286Y-67453390D01*
X166639286Y-67453390D02*
X166686905Y-67262914D01*
X166686905Y-67262914D02*
X166734524Y-67167676D01*
X166734524Y-67167676D02*
X166829762Y-67072438D01*
X166829762Y-67072438D02*
X166972619Y-67024819D01*
X166972619Y-67024819D02*
X167067857Y-67024819D01*
X167067857Y-67024819D02*
X167210714Y-67072438D01*
X167210714Y-67072438D02*
X167258333Y-67120057D01*
X167591667Y-67024819D02*
X168258333Y-67024819D01*
X168258333Y-67024819D02*
X167829762Y-68024819D01*
D11*
X130410237Y-65574318D02*
X130410237Y-64304318D01*
X131740714Y-65453365D02*
X131680238Y-65513842D01*
X131680238Y-65513842D02*
X131498809Y-65574318D01*
X131498809Y-65574318D02*
X131377857Y-65574318D01*
X131377857Y-65574318D02*
X131196428Y-65513842D01*
X131196428Y-65513842D02*
X131075476Y-65392889D01*
X131075476Y-65392889D02*
X131014999Y-65271937D01*
X131014999Y-65271937D02*
X130954523Y-65030032D01*
X130954523Y-65030032D02*
X130954523Y-64848603D01*
X130954523Y-64848603D02*
X131014999Y-64606699D01*
X131014999Y-64606699D02*
X131075476Y-64485746D01*
X131075476Y-64485746D02*
X131196428Y-64364794D01*
X131196428Y-64364794D02*
X131377857Y-64304318D01*
X131377857Y-64304318D02*
X131498809Y-64304318D01*
X131498809Y-64304318D02*
X131680238Y-64364794D01*
X131680238Y-64364794D02*
X131740714Y-64425270D01*
X132950238Y-65574318D02*
X132224523Y-65574318D01*
X132587380Y-65574318D02*
X132587380Y-64304318D01*
X132587380Y-64304318D02*
X132466428Y-64485746D01*
X132466428Y-64485746D02*
X132345476Y-64606699D01*
X132345476Y-64606699D02*
X132224523Y-64667175D01*
D10*
X119261905Y-69704819D02*
X119261905Y-68704819D01*
X119261905Y-68704819D02*
X119500000Y-68704819D01*
X119500000Y-68704819D02*
X119642857Y-68752438D01*
X119642857Y-68752438D02*
X119738095Y-68847676D01*
X119738095Y-68847676D02*
X119785714Y-68942914D01*
X119785714Y-68942914D02*
X119833333Y-69133390D01*
X119833333Y-69133390D02*
X119833333Y-69276247D01*
X119833333Y-69276247D02*
X119785714Y-69466723D01*
X119785714Y-69466723D02*
X119738095Y-69561961D01*
X119738095Y-69561961D02*
X119642857Y-69657200D01*
X119642857Y-69657200D02*
X119500000Y-69704819D01*
X119500000Y-69704819D02*
X119261905Y-69704819D01*
X120690476Y-69038152D02*
X120690476Y-69704819D01*
X120452381Y-68657200D02*
X120214286Y-69371485D01*
X120214286Y-69371485D02*
X120833333Y-69371485D01*
X176838333Y-74624819D02*
X176505000Y-74148628D01*
X176266905Y-74624819D02*
X176266905Y-73624819D01*
X176266905Y-73624819D02*
X176647857Y-73624819D01*
X176647857Y-73624819D02*
X176743095Y-73672438D01*
X176743095Y-73672438D02*
X176790714Y-73720057D01*
X176790714Y-73720057D02*
X176838333Y-73815295D01*
X176838333Y-73815295D02*
X176838333Y-73958152D01*
X176838333Y-73958152D02*
X176790714Y-74053390D01*
X176790714Y-74053390D02*
X176743095Y-74101009D01*
X176743095Y-74101009D02*
X176647857Y-74148628D01*
X176647857Y-74148628D02*
X176266905Y-74148628D01*
X177171667Y-73624819D02*
X177838333Y-73624819D01*
X177838333Y-73624819D02*
X177409762Y-74624819D01*
X176838333Y-68724819D02*
X176505000Y-68248628D01*
X176266905Y-68724819D02*
X176266905Y-67724819D01*
X176266905Y-67724819D02*
X176647857Y-67724819D01*
X176647857Y-67724819D02*
X176743095Y-67772438D01*
X176743095Y-67772438D02*
X176790714Y-67820057D01*
X176790714Y-67820057D02*
X176838333Y-67915295D01*
X176838333Y-67915295D02*
X176838333Y-68058152D01*
X176838333Y-68058152D02*
X176790714Y-68153390D01*
X176790714Y-68153390D02*
X176743095Y-68201009D01*
X176743095Y-68201009D02*
X176647857Y-68248628D01*
X176647857Y-68248628D02*
X176266905Y-68248628D01*
X177743095Y-67724819D02*
X177266905Y-67724819D01*
X177266905Y-67724819D02*
X177219286Y-68201009D01*
X177219286Y-68201009D02*
X177266905Y-68153390D01*
X177266905Y-68153390D02*
X177362143Y-68105771D01*
X177362143Y-68105771D02*
X177600238Y-68105771D01*
X177600238Y-68105771D02*
X177695476Y-68153390D01*
X177695476Y-68153390D02*
X177743095Y-68201009D01*
X177743095Y-68201009D02*
X177790714Y-68296247D01*
X177790714Y-68296247D02*
X177790714Y-68534342D01*
X177790714Y-68534342D02*
X177743095Y-68629580D01*
X177743095Y-68629580D02*
X177695476Y-68677200D01*
X177695476Y-68677200D02*
X177600238Y-68724819D01*
X177600238Y-68724819D02*
X177362143Y-68724819D01*
X177362143Y-68724819D02*
X177266905Y-68677200D01*
X177266905Y-68677200D02*
X177219286Y-68629580D01*
X109333333Y-88179580D02*
X109285714Y-88227200D01*
X109285714Y-88227200D02*
X109142857Y-88274819D01*
X109142857Y-88274819D02*
X109047619Y-88274819D01*
X109047619Y-88274819D02*
X108904762Y-88227200D01*
X108904762Y-88227200D02*
X108809524Y-88131961D01*
X108809524Y-88131961D02*
X108761905Y-88036723D01*
X108761905Y-88036723D02*
X108714286Y-87846247D01*
X108714286Y-87846247D02*
X108714286Y-87703390D01*
X108714286Y-87703390D02*
X108761905Y-87512914D01*
X108761905Y-87512914D02*
X108809524Y-87417676D01*
X108809524Y-87417676D02*
X108904762Y-87322438D01*
X108904762Y-87322438D02*
X109047619Y-87274819D01*
X109047619Y-87274819D02*
X109142857Y-87274819D01*
X109142857Y-87274819D02*
X109285714Y-87322438D01*
X109285714Y-87322438D02*
X109333333Y-87370057D01*
X110285714Y-88274819D02*
X109714286Y-88274819D01*
X110000000Y-88274819D02*
X110000000Y-87274819D01*
X110000000Y-87274819D02*
X109904762Y-87417676D01*
X109904762Y-87417676D02*
X109809524Y-87512914D01*
X109809524Y-87512914D02*
X109714286Y-87560533D01*
X122704819Y-72238094D02*
X121704819Y-72238094D01*
X121704819Y-72238094D02*
X121704819Y-71999999D01*
X121704819Y-71999999D02*
X121752438Y-71857142D01*
X121752438Y-71857142D02*
X121847676Y-71761904D01*
X121847676Y-71761904D02*
X121942914Y-71714285D01*
X121942914Y-71714285D02*
X122133390Y-71666666D01*
X122133390Y-71666666D02*
X122276247Y-71666666D01*
X122276247Y-71666666D02*
X122466723Y-71714285D01*
X122466723Y-71714285D02*
X122561961Y-71761904D01*
X122561961Y-71761904D02*
X122657200Y-71857142D01*
X122657200Y-71857142D02*
X122704819Y-71999999D01*
X122704819Y-71999999D02*
X122704819Y-72238094D01*
X121704819Y-70761904D02*
X121704819Y-71238094D01*
X121704819Y-71238094D02*
X122181009Y-71285713D01*
X122181009Y-71285713D02*
X122133390Y-71238094D01*
X122133390Y-71238094D02*
X122085771Y-71142856D01*
X122085771Y-71142856D02*
X122085771Y-70904761D01*
X122085771Y-70904761D02*
X122133390Y-70809523D01*
X122133390Y-70809523D02*
X122181009Y-70761904D01*
X122181009Y-70761904D02*
X122276247Y-70714285D01*
X122276247Y-70714285D02*
X122514342Y-70714285D01*
X122514342Y-70714285D02*
X122609580Y-70761904D01*
X122609580Y-70761904D02*
X122657200Y-70809523D01*
X122657200Y-70809523D02*
X122704819Y-70904761D01*
X122704819Y-70904761D02*
X122704819Y-71142856D01*
X122704819Y-71142856D02*
X122657200Y-71238094D01*
X122657200Y-71238094D02*
X122609580Y-71285713D01*
X105539580Y-67416666D02*
X105587200Y-67464285D01*
X105587200Y-67464285D02*
X105634819Y-67607142D01*
X105634819Y-67607142D02*
X105634819Y-67702380D01*
X105634819Y-67702380D02*
X105587200Y-67845237D01*
X105587200Y-67845237D02*
X105491961Y-67940475D01*
X105491961Y-67940475D02*
X105396723Y-67988094D01*
X105396723Y-67988094D02*
X105206247Y-68035713D01*
X105206247Y-68035713D02*
X105063390Y-68035713D01*
X105063390Y-68035713D02*
X104872914Y-67988094D01*
X104872914Y-67988094D02*
X104777676Y-67940475D01*
X104777676Y-67940475D02*
X104682438Y-67845237D01*
X104682438Y-67845237D02*
X104634819Y-67702380D01*
X104634819Y-67702380D02*
X104634819Y-67607142D01*
X104634819Y-67607142D02*
X104682438Y-67464285D01*
X104682438Y-67464285D02*
X104730057Y-67416666D01*
X104730057Y-67035713D02*
X104682438Y-66988094D01*
X104682438Y-66988094D02*
X104634819Y-66892856D01*
X104634819Y-66892856D02*
X104634819Y-66654761D01*
X104634819Y-66654761D02*
X104682438Y-66559523D01*
X104682438Y-66559523D02*
X104730057Y-66511904D01*
X104730057Y-66511904D02*
X104825295Y-66464285D01*
X104825295Y-66464285D02*
X104920533Y-66464285D01*
X104920533Y-66464285D02*
X105063390Y-66511904D01*
X105063390Y-66511904D02*
X105634819Y-67083332D01*
X105634819Y-67083332D02*
X105634819Y-66464285D01*
D11*
X129674667Y-54464318D02*
X129674667Y-55371461D01*
X129674667Y-55371461D02*
X129614190Y-55552889D01*
X129614190Y-55552889D02*
X129493238Y-55673842D01*
X129493238Y-55673842D02*
X129311809Y-55734318D01*
X129311809Y-55734318D02*
X129190857Y-55734318D01*
X130218952Y-54585270D02*
X130279428Y-54524794D01*
X130279428Y-54524794D02*
X130400381Y-54464318D01*
X130400381Y-54464318D02*
X130702762Y-54464318D01*
X130702762Y-54464318D02*
X130823714Y-54524794D01*
X130823714Y-54524794D02*
X130884190Y-54585270D01*
X130884190Y-54585270D02*
X130944667Y-54706222D01*
X130944667Y-54706222D02*
X130944667Y-54827175D01*
X130944667Y-54827175D02*
X130884190Y-55008603D01*
X130884190Y-55008603D02*
X130158476Y-55734318D01*
X130158476Y-55734318D02*
X130944667Y-55734318D01*
D10*
X104554819Y-92504166D02*
X104078628Y-92837499D01*
X104554819Y-93075594D02*
X103554819Y-93075594D01*
X103554819Y-93075594D02*
X103554819Y-92694642D01*
X103554819Y-92694642D02*
X103602438Y-92599404D01*
X103602438Y-92599404D02*
X103650057Y-92551785D01*
X103650057Y-92551785D02*
X103745295Y-92504166D01*
X103745295Y-92504166D02*
X103888152Y-92504166D01*
X103888152Y-92504166D02*
X103983390Y-92551785D01*
X103983390Y-92551785D02*
X104031009Y-92599404D01*
X104031009Y-92599404D02*
X104078628Y-92694642D01*
X104078628Y-92694642D02*
X104078628Y-93075594D01*
X104554819Y-91551785D02*
X104554819Y-92123213D01*
X104554819Y-91837499D02*
X103554819Y-91837499D01*
X103554819Y-91837499D02*
X103697676Y-91932737D01*
X103697676Y-91932737D02*
X103792914Y-92027975D01*
X103792914Y-92027975D02*
X103840533Y-92123213D01*
X159872619Y-72104819D02*
X159872619Y-71104819D01*
X160920237Y-72009580D02*
X160872618Y-72057200D01*
X160872618Y-72057200D02*
X160729761Y-72104819D01*
X160729761Y-72104819D02*
X160634523Y-72104819D01*
X160634523Y-72104819D02*
X160491666Y-72057200D01*
X160491666Y-72057200D02*
X160396428Y-71961961D01*
X160396428Y-71961961D02*
X160348809Y-71866723D01*
X160348809Y-71866723D02*
X160301190Y-71676247D01*
X160301190Y-71676247D02*
X160301190Y-71533390D01*
X160301190Y-71533390D02*
X160348809Y-71342914D01*
X160348809Y-71342914D02*
X160396428Y-71247676D01*
X160396428Y-71247676D02*
X160491666Y-71152438D01*
X160491666Y-71152438D02*
X160634523Y-71104819D01*
X160634523Y-71104819D02*
X160729761Y-71104819D01*
X160729761Y-71104819D02*
X160872618Y-71152438D01*
X160872618Y-71152438D02*
X160920237Y-71200057D01*
X161872618Y-72104819D02*
X161301190Y-72104819D01*
X161586904Y-72104819D02*
X161586904Y-71104819D01*
X161586904Y-71104819D02*
X161491666Y-71247676D01*
X161491666Y-71247676D02*
X161396428Y-71342914D01*
X161396428Y-71342914D02*
X161301190Y-71390533D01*
X162491666Y-71104819D02*
X162586904Y-71104819D01*
X162586904Y-71104819D02*
X162682142Y-71152438D01*
X162682142Y-71152438D02*
X162729761Y-71200057D01*
X162729761Y-71200057D02*
X162777380Y-71295295D01*
X162777380Y-71295295D02*
X162824999Y-71485771D01*
X162824999Y-71485771D02*
X162824999Y-71723866D01*
X162824999Y-71723866D02*
X162777380Y-71914342D01*
X162777380Y-71914342D02*
X162729761Y-72009580D01*
X162729761Y-72009580D02*
X162682142Y-72057200D01*
X162682142Y-72057200D02*
X162586904Y-72104819D01*
X162586904Y-72104819D02*
X162491666Y-72104819D01*
X162491666Y-72104819D02*
X162396428Y-72057200D01*
X162396428Y-72057200D02*
X162348809Y-72009580D01*
X162348809Y-72009580D02*
X162301190Y-71914342D01*
X162301190Y-71914342D02*
X162253571Y-71723866D01*
X162253571Y-71723866D02*
X162253571Y-71485771D01*
X162253571Y-71485771D02*
X162301190Y-71295295D01*
X162301190Y-71295295D02*
X162348809Y-71200057D01*
X162348809Y-71200057D02*
X162396428Y-71152438D01*
X162396428Y-71152438D02*
X162491666Y-71104819D01*
X107054819Y-84166666D02*
X106578628Y-84499999D01*
X107054819Y-84738094D02*
X106054819Y-84738094D01*
X106054819Y-84738094D02*
X106054819Y-84357142D01*
X106054819Y-84357142D02*
X106102438Y-84261904D01*
X106102438Y-84261904D02*
X106150057Y-84214285D01*
X106150057Y-84214285D02*
X106245295Y-84166666D01*
X106245295Y-84166666D02*
X106388152Y-84166666D01*
X106388152Y-84166666D02*
X106483390Y-84214285D01*
X106483390Y-84214285D02*
X106531009Y-84261904D01*
X106531009Y-84261904D02*
X106578628Y-84357142D01*
X106578628Y-84357142D02*
X106578628Y-84738094D01*
X106150057Y-83785713D02*
X106102438Y-83738094D01*
X106102438Y-83738094D02*
X106054819Y-83642856D01*
X106054819Y-83642856D02*
X106054819Y-83404761D01*
X106054819Y-83404761D02*
X106102438Y-83309523D01*
X106102438Y-83309523D02*
X106150057Y-83261904D01*
X106150057Y-83261904D02*
X106245295Y-83214285D01*
X106245295Y-83214285D02*
X106340533Y-83214285D01*
X106340533Y-83214285D02*
X106483390Y-83261904D01*
X106483390Y-83261904D02*
X107054819Y-83833332D01*
X107054819Y-83833332D02*
X107054819Y-83214285D01*
X172408333Y-68689580D02*
X172360714Y-68737200D01*
X172360714Y-68737200D02*
X172217857Y-68784819D01*
X172217857Y-68784819D02*
X172122619Y-68784819D01*
X172122619Y-68784819D02*
X171979762Y-68737200D01*
X171979762Y-68737200D02*
X171884524Y-68641961D01*
X171884524Y-68641961D02*
X171836905Y-68546723D01*
X171836905Y-68546723D02*
X171789286Y-68356247D01*
X171789286Y-68356247D02*
X171789286Y-68213390D01*
X171789286Y-68213390D02*
X171836905Y-68022914D01*
X171836905Y-68022914D02*
X171884524Y-67927676D01*
X171884524Y-67927676D02*
X171979762Y-67832438D01*
X171979762Y-67832438D02*
X172122619Y-67784819D01*
X172122619Y-67784819D02*
X172217857Y-67784819D01*
X172217857Y-67784819D02*
X172360714Y-67832438D01*
X172360714Y-67832438D02*
X172408333Y-67880057D01*
X173265476Y-68118152D02*
X173265476Y-68784819D01*
X173027381Y-67737200D02*
X172789286Y-68451485D01*
X172789286Y-68451485D02*
X173408333Y-68451485D01*
D11*
X137660237Y-65474318D02*
X137660237Y-64204318D01*
X138990714Y-65353365D02*
X138930238Y-65413842D01*
X138930238Y-65413842D02*
X138748809Y-65474318D01*
X138748809Y-65474318D02*
X138627857Y-65474318D01*
X138627857Y-65474318D02*
X138446428Y-65413842D01*
X138446428Y-65413842D02*
X138325476Y-65292889D01*
X138325476Y-65292889D02*
X138264999Y-65171937D01*
X138264999Y-65171937D02*
X138204523Y-64930032D01*
X138204523Y-64930032D02*
X138204523Y-64748603D01*
X138204523Y-64748603D02*
X138264999Y-64506699D01*
X138264999Y-64506699D02*
X138325476Y-64385746D01*
X138325476Y-64385746D02*
X138446428Y-64264794D01*
X138446428Y-64264794D02*
X138627857Y-64204318D01*
X138627857Y-64204318D02*
X138748809Y-64204318D01*
X138748809Y-64204318D02*
X138930238Y-64264794D01*
X138930238Y-64264794D02*
X138990714Y-64325270D01*
X140079285Y-64204318D02*
X139837380Y-64204318D01*
X139837380Y-64204318D02*
X139716428Y-64264794D01*
X139716428Y-64264794D02*
X139655952Y-64325270D01*
X139655952Y-64325270D02*
X139534999Y-64506699D01*
X139534999Y-64506699D02*
X139474523Y-64748603D01*
X139474523Y-64748603D02*
X139474523Y-65232413D01*
X139474523Y-65232413D02*
X139534999Y-65353365D01*
X139534999Y-65353365D02*
X139595476Y-65413842D01*
X139595476Y-65413842D02*
X139716428Y-65474318D01*
X139716428Y-65474318D02*
X139958333Y-65474318D01*
X139958333Y-65474318D02*
X140079285Y-65413842D01*
X140079285Y-65413842D02*
X140139761Y-65353365D01*
X140139761Y-65353365D02*
X140200238Y-65232413D01*
X140200238Y-65232413D02*
X140200238Y-64930032D01*
X140200238Y-64930032D02*
X140139761Y-64809080D01*
X140139761Y-64809080D02*
X140079285Y-64748603D01*
X140079285Y-64748603D02*
X139958333Y-64688127D01*
X139958333Y-64688127D02*
X139716428Y-64688127D01*
X139716428Y-64688127D02*
X139595476Y-64748603D01*
X139595476Y-64748603D02*
X139534999Y-64809080D01*
X139534999Y-64809080D02*
X139474523Y-64930032D01*
X155674667Y-54559318D02*
X155674667Y-55466461D01*
X155674667Y-55466461D02*
X155614190Y-55647889D01*
X155614190Y-55647889D02*
X155493238Y-55768842D01*
X155493238Y-55768842D02*
X155311809Y-55829318D01*
X155311809Y-55829318D02*
X155190857Y-55829318D01*
X156823714Y-54982651D02*
X156823714Y-55829318D01*
X156521333Y-54498842D02*
X156218952Y-55405984D01*
X156218952Y-55405984D02*
X157005143Y-55405984D01*
X153635237Y-65549318D02*
X153635237Y-64279318D01*
X154965714Y-65428365D02*
X154905238Y-65488842D01*
X154905238Y-65488842D02*
X154723809Y-65549318D01*
X154723809Y-65549318D02*
X154602857Y-65549318D01*
X154602857Y-65549318D02*
X154421428Y-65488842D01*
X154421428Y-65488842D02*
X154300476Y-65367889D01*
X154300476Y-65367889D02*
X154239999Y-65246937D01*
X154239999Y-65246937D02*
X154179523Y-65005032D01*
X154179523Y-65005032D02*
X154179523Y-64823603D01*
X154179523Y-64823603D02*
X154239999Y-64581699D01*
X154239999Y-64581699D02*
X154300476Y-64460746D01*
X154300476Y-64460746D02*
X154421428Y-64339794D01*
X154421428Y-64339794D02*
X154602857Y-64279318D01*
X154602857Y-64279318D02*
X154723809Y-64279318D01*
X154723809Y-64279318D02*
X154905238Y-64339794D01*
X154905238Y-64339794D02*
X154965714Y-64400270D01*
X155389047Y-64279318D02*
X156175238Y-64279318D01*
X156175238Y-64279318D02*
X155751904Y-64763127D01*
X155751904Y-64763127D02*
X155933333Y-64763127D01*
X155933333Y-64763127D02*
X156054285Y-64823603D01*
X156054285Y-64823603D02*
X156114761Y-64884080D01*
X156114761Y-64884080D02*
X156175238Y-65005032D01*
X156175238Y-65005032D02*
X156175238Y-65307413D01*
X156175238Y-65307413D02*
X156114761Y-65428365D01*
X156114761Y-65428365D02*
X156054285Y-65488842D01*
X156054285Y-65488842D02*
X155933333Y-65549318D01*
X155933333Y-65549318D02*
X155570476Y-65549318D01*
X155570476Y-65549318D02*
X155449523Y-65488842D01*
X155449523Y-65488842D02*
X155389047Y-65428365D01*
D10*
X108761905Y-70704819D02*
X108761905Y-69704819D01*
X108761905Y-69704819D02*
X109000000Y-69704819D01*
X109000000Y-69704819D02*
X109142857Y-69752438D01*
X109142857Y-69752438D02*
X109238095Y-69847676D01*
X109238095Y-69847676D02*
X109285714Y-69942914D01*
X109285714Y-69942914D02*
X109333333Y-70133390D01*
X109333333Y-70133390D02*
X109333333Y-70276247D01*
X109333333Y-70276247D02*
X109285714Y-70466723D01*
X109285714Y-70466723D02*
X109238095Y-70561961D01*
X109238095Y-70561961D02*
X109142857Y-70657200D01*
X109142857Y-70657200D02*
X109000000Y-70704819D01*
X109000000Y-70704819D02*
X108761905Y-70704819D01*
X110285714Y-70704819D02*
X109714286Y-70704819D01*
X110000000Y-70704819D02*
X110000000Y-69704819D01*
X110000000Y-69704819D02*
X109904762Y-69847676D01*
X109904762Y-69847676D02*
X109809524Y-69942914D01*
X109809524Y-69942914D02*
X109714286Y-69990533D01*
D11*
X125535237Y-65474318D02*
X125535237Y-64204318D01*
X126865714Y-65353365D02*
X126805238Y-65413842D01*
X126805238Y-65413842D02*
X126623809Y-65474318D01*
X126623809Y-65474318D02*
X126502857Y-65474318D01*
X126502857Y-65474318D02*
X126321428Y-65413842D01*
X126321428Y-65413842D02*
X126200476Y-65292889D01*
X126200476Y-65292889D02*
X126139999Y-65171937D01*
X126139999Y-65171937D02*
X126079523Y-64930032D01*
X126079523Y-64930032D02*
X126079523Y-64748603D01*
X126079523Y-64748603D02*
X126139999Y-64506699D01*
X126139999Y-64506699D02*
X126200476Y-64385746D01*
X126200476Y-64385746D02*
X126321428Y-64264794D01*
X126321428Y-64264794D02*
X126502857Y-64204318D01*
X126502857Y-64204318D02*
X126623809Y-64204318D01*
X126623809Y-64204318D02*
X126805238Y-64264794D01*
X126805238Y-64264794D02*
X126865714Y-64325270D01*
X128014761Y-64204318D02*
X127409999Y-64204318D01*
X127409999Y-64204318D02*
X127349523Y-64809080D01*
X127349523Y-64809080D02*
X127409999Y-64748603D01*
X127409999Y-64748603D02*
X127530952Y-64688127D01*
X127530952Y-64688127D02*
X127833333Y-64688127D01*
X127833333Y-64688127D02*
X127954285Y-64748603D01*
X127954285Y-64748603D02*
X128014761Y-64809080D01*
X128014761Y-64809080D02*
X128075238Y-64930032D01*
X128075238Y-64930032D02*
X128075238Y-65232413D01*
X128075238Y-65232413D02*
X128014761Y-65353365D01*
X128014761Y-65353365D02*
X127954285Y-65413842D01*
X127954285Y-65413842D02*
X127833333Y-65474318D01*
X127833333Y-65474318D02*
X127530952Y-65474318D01*
X127530952Y-65474318D02*
X127409999Y-65413842D01*
X127409999Y-65413842D02*
X127349523Y-65353365D01*
X142235237Y-65574318D02*
X142235237Y-64304318D01*
X143565714Y-65453365D02*
X143505238Y-65513842D01*
X143505238Y-65513842D02*
X143323809Y-65574318D01*
X143323809Y-65574318D02*
X143202857Y-65574318D01*
X143202857Y-65574318D02*
X143021428Y-65513842D01*
X143021428Y-65513842D02*
X142900476Y-65392889D01*
X142900476Y-65392889D02*
X142839999Y-65271937D01*
X142839999Y-65271937D02*
X142779523Y-65030032D01*
X142779523Y-65030032D02*
X142779523Y-64848603D01*
X142779523Y-64848603D02*
X142839999Y-64606699D01*
X142839999Y-64606699D02*
X142900476Y-64485746D01*
X142900476Y-64485746D02*
X143021428Y-64364794D01*
X143021428Y-64364794D02*
X143202857Y-64304318D01*
X143202857Y-64304318D02*
X143323809Y-64304318D01*
X143323809Y-64304318D02*
X143505238Y-64364794D01*
X143505238Y-64364794D02*
X143565714Y-64425270D01*
X144049523Y-64425270D02*
X144109999Y-64364794D01*
X144109999Y-64364794D02*
X144230952Y-64304318D01*
X144230952Y-64304318D02*
X144533333Y-64304318D01*
X144533333Y-64304318D02*
X144654285Y-64364794D01*
X144654285Y-64364794D02*
X144714761Y-64425270D01*
X144714761Y-64425270D02*
X144775238Y-64546222D01*
X144775238Y-64546222D02*
X144775238Y-64667175D01*
X144775238Y-64667175D02*
X144714761Y-64848603D01*
X144714761Y-64848603D02*
X143989047Y-65574318D01*
X143989047Y-65574318D02*
X144775238Y-65574318D01*
X158035237Y-65599318D02*
X158035237Y-64329318D01*
X159365714Y-65478365D02*
X159305238Y-65538842D01*
X159305238Y-65538842D02*
X159123809Y-65599318D01*
X159123809Y-65599318D02*
X159002857Y-65599318D01*
X159002857Y-65599318D02*
X158821428Y-65538842D01*
X158821428Y-65538842D02*
X158700476Y-65417889D01*
X158700476Y-65417889D02*
X158639999Y-65296937D01*
X158639999Y-65296937D02*
X158579523Y-65055032D01*
X158579523Y-65055032D02*
X158579523Y-64873603D01*
X158579523Y-64873603D02*
X158639999Y-64631699D01*
X158639999Y-64631699D02*
X158700476Y-64510746D01*
X158700476Y-64510746D02*
X158821428Y-64389794D01*
X158821428Y-64389794D02*
X159002857Y-64329318D01*
X159002857Y-64329318D02*
X159123809Y-64329318D01*
X159123809Y-64329318D02*
X159305238Y-64389794D01*
X159305238Y-64389794D02*
X159365714Y-64450270D01*
X160454285Y-64752651D02*
X160454285Y-65599318D01*
X160151904Y-64268842D02*
X159849523Y-65175984D01*
X159849523Y-65175984D02*
X160635714Y-65175984D01*
D12*
%TO.C,SW1*%
X108350000Y-93269000D02*
X109500000Y-92100000D01*
X108350000Y-93950000D02*
X108350000Y-93269000D01*
X108350000Y-96550000D02*
X108350000Y-97250000D01*
X108350000Y-97250000D02*
X109500000Y-98400000D01*
X109500000Y-92100000D02*
X113500000Y-92100000D01*
X109500000Y-98400000D02*
X113500000Y-98400000D01*
X113500000Y-92100000D02*
X114650000Y-93250000D01*
X113500000Y-98400000D02*
X114650000Y-97250000D01*
X114650000Y-93250000D02*
X114650000Y-93950000D01*
X114650000Y-97250000D02*
X114650000Y-96550000D01*
%TO.C,R3*%
X105015000Y-67022936D02*
X105015000Y-67477064D01*
X106485000Y-67022936D02*
X106485000Y-67477064D01*
%TO.C,R4*%
X176777936Y-66235000D02*
X177232064Y-66235000D01*
X176777936Y-67705000D02*
X177232064Y-67705000D01*
%TO.C,C8*%
X167163748Y-71525000D02*
X167686252Y-71525000D01*
X167163748Y-72995000D02*
X167686252Y-72995000D01*
%TO.C,U2*%
X111640000Y-76140000D02*
X112090000Y-76140000D01*
X111640000Y-76590000D02*
X111640000Y-76140000D01*
X111640000Y-82910000D02*
X111640000Y-83360000D01*
X111640000Y-83360000D02*
X112090000Y-83360000D01*
X118860000Y-76140000D02*
X118410000Y-76140000D01*
X118860000Y-76590000D02*
X118860000Y-76140000D01*
X118860000Y-82910000D02*
X118860000Y-83360000D01*
X118860000Y-83360000D02*
X118410000Y-83360000D01*
X112090000Y-83950000D02*
X111620000Y-84290000D01*
X111620000Y-83610000D01*
X112090000Y-83950000D01*
G36*
X112090000Y-83950000D02*
G01*
X111620000Y-84290000D01*
X111620000Y-83610000D01*
X112090000Y-83950000D01*
G37*
D13*
%TO.C,IC7*%
X138150000Y-71150000D02*
X139350000Y-71150000D01*
X139700000Y-71300000D02*
X140300000Y-71300000D01*
X139700000Y-74200000D02*
X139700000Y-71300000D01*
X140300000Y-71300000D02*
X140300000Y-74200000D01*
X140300000Y-74200000D02*
X139700000Y-74200000D01*
D12*
%TO.C,L1*%
X162412878Y-70190000D02*
X163212122Y-70190000D01*
X162412878Y-71310000D02*
X163212122Y-71310000D01*
%TO.C,C6*%
X172313748Y-75295000D02*
X172836252Y-75295000D01*
X172313748Y-76765000D02*
X172836252Y-76765000D01*
%TO.C,C9*%
X167163748Y-74535000D02*
X167686252Y-74535000D01*
X167163748Y-76005000D02*
X167686252Y-76005000D01*
D13*
%TO.C,IC8*%
X133650000Y-71150000D02*
X134850000Y-71150000D01*
X135200000Y-71300000D02*
X135800000Y-71300000D01*
X135200000Y-74200000D02*
X135200000Y-71300000D01*
X135800000Y-71300000D02*
X135800000Y-74200000D01*
X135800000Y-74200000D02*
X135200000Y-74200000D01*
D12*
%TO.C,C5*%
X172313748Y-72285000D02*
X172836252Y-72285000D01*
X172313748Y-73755000D02*
X172836252Y-73755000D01*
%TO.C,C3*%
X172313748Y-66265000D02*
X172836252Y-66265000D01*
X172313748Y-67735000D02*
X172836252Y-67735000D01*
%TO.C,R6*%
X176777936Y-72135000D02*
X177232064Y-72135000D01*
X176777936Y-73605000D02*
X177232064Y-73605000D01*
D14*
%TO.C,J6*%
X165444000Y-78600000D02*
X178244000Y-78600000D01*
X165444000Y-79000000D02*
X165444000Y-78600000D01*
X165444000Y-92400000D02*
X165444000Y-92000000D01*
X178244000Y-78600000D02*
X178244000Y-92400000D01*
X178244000Y-92400000D02*
X165444000Y-92400000D01*
D12*
%TO.C,D2*%
X116250000Y-73710000D02*
X118935000Y-73710000D01*
X118935000Y-71790000D02*
X116250000Y-71790000D01*
X118935000Y-73710000D02*
X118935000Y-71790000D01*
%TO.C,D3*%
X111000000Y-71210000D02*
X113685000Y-71210000D01*
X113685000Y-69290000D02*
X111000000Y-69290000D01*
X113685000Y-71210000D02*
X113685000Y-69290000D01*
D14*
%TO.C,J3*%
X137810000Y-52200000D02*
X148386000Y-52200000D01*
X137810000Y-58040000D02*
X137810000Y-52200000D01*
X137810000Y-58040000D02*
X140707000Y-58040000D01*
X148386000Y-52200000D02*
X148386000Y-58040000D01*
X148386000Y-58040000D02*
X143098000Y-58040000D01*
D12*
%TO.C,J7*%
X107260000Y-51410000D02*
X107260000Y-51930000D01*
X107260000Y-51930000D02*
X107910000Y-51930000D01*
X107910000Y-60040000D02*
X107910000Y-51930000D01*
X107910000Y-66890000D02*
X107910000Y-63560000D01*
X118970000Y-67110000D02*
X117170000Y-67110000D01*
X121230000Y-51930000D02*
X121230000Y-60040000D01*
X121230000Y-51930000D02*
X121880000Y-51930000D01*
X121230000Y-66890000D02*
X107910000Y-66890000D01*
X121230000Y-66890000D02*
X121230000Y-63560000D01*
X121880000Y-51410000D02*
X107260000Y-51410000D01*
X121880000Y-51930000D02*
X121880000Y-51410000D01*
D13*
%TO.C,IC9*%
X135045000Y-79562000D02*
X147845000Y-79562000D01*
X135045000Y-86362000D02*
X135045000Y-79562000D01*
X147845000Y-79562000D02*
X147845000Y-86362000D01*
X147845000Y-86362000D02*
X135045000Y-86362000D01*
X147860000Y-77287000D02*
X147860000Y-79212000D01*
D12*
%TO.C,C7*%
X167163748Y-68515000D02*
X167686252Y-68515000D01*
X167163748Y-69985000D02*
X167686252Y-69985000D01*
D13*
%TO.C,IC1*%
X131350000Y-60925000D02*
X131950000Y-60925000D01*
X131350000Y-63825000D02*
X131350000Y-60925000D01*
X131950000Y-60925000D02*
X131950000Y-63825000D01*
X131950000Y-63825000D02*
X131350000Y-63825000D01*
X133500000Y-63975000D02*
X132300000Y-63975000D01*
D12*
%TO.C,D4*%
X115502500Y-69290000D02*
X115502500Y-71210000D01*
X115502500Y-71210000D02*
X118187500Y-71210000D01*
X118187500Y-69290000D02*
X115502500Y-69290000D01*
%TO.C,R7*%
X176777936Y-75085000D02*
X177232064Y-75085000D01*
X176777936Y-76555000D02*
X177232064Y-76555000D01*
%TO.C,R5*%
X176777936Y-69185000D02*
X177232064Y-69185000D01*
X176777936Y-70655000D02*
X177232064Y-70655000D01*
%TO.C,C1*%
X109238748Y-88765000D02*
X109761252Y-88765000D01*
X109238748Y-90235000D02*
X109761252Y-90235000D01*
%TO.C,D5*%
X119540000Y-70460000D02*
X119540000Y-73145000D01*
X119540000Y-73145000D02*
X121460000Y-73145000D01*
X121460000Y-73145000D02*
X121460000Y-70460000D01*
%TO.C,C2*%
X102765000Y-66988748D02*
X102765000Y-67511252D01*
X104235000Y-66988748D02*
X104235000Y-67511252D01*
D14*
%TO.C,J2*%
X124810000Y-52105000D02*
X135386000Y-52105000D01*
X124810000Y-57945000D02*
X124810000Y-52105000D01*
X124810000Y-57945000D02*
X127707000Y-57945000D01*
X135386000Y-52105000D02*
X135386000Y-57945000D01*
X135386000Y-57945000D02*
X130098000Y-57945000D01*
D12*
%TO.C,R1*%
X105015000Y-92564564D02*
X105015000Y-92110436D01*
X106485000Y-92564564D02*
X106485000Y-92110436D01*
D10*
%TO.C,IC10*%
X159650000Y-72575000D02*
X159650000Y-72800000D01*
X159650000Y-72575000D02*
X163000000Y-72575000D01*
X159650000Y-75700000D02*
X159650000Y-75925000D01*
X159650000Y-75925000D02*
X163000000Y-75925000D01*
X163000000Y-72575000D02*
X163000000Y-72800000D01*
X163000000Y-75925000D02*
X163000000Y-75700000D01*
D12*
X159037500Y-72800000D02*
X158797500Y-72470000D01*
X159277500Y-72470000D01*
X159037500Y-72800000D01*
G36*
X159037500Y-72800000D02*
G01*
X158797500Y-72470000D01*
X159277500Y-72470000D01*
X159037500Y-72800000D01*
G37*
%TO.C,R2*%
X107515000Y-84227064D02*
X107515000Y-83772936D01*
X108985000Y-84227064D02*
X108985000Y-83772936D01*
%TO.C,C4*%
X172313748Y-69275000D02*
X172836252Y-69275000D01*
X172313748Y-70745000D02*
X172836252Y-70745000D01*
D13*
%TO.C,IC6*%
X138475000Y-60925000D02*
X139075000Y-60925000D01*
X138475000Y-63825000D02*
X138475000Y-60925000D01*
X139075000Y-60925000D02*
X139075000Y-63825000D01*
X139075000Y-63825000D02*
X138475000Y-63825000D01*
X140625000Y-63975000D02*
X139425000Y-63975000D01*
D14*
%TO.C,J4*%
X150810000Y-52200000D02*
X161386000Y-52200000D01*
X150810000Y-58040000D02*
X150810000Y-52200000D01*
X150810000Y-58040000D02*
X153707000Y-58040000D01*
X161386000Y-52200000D02*
X161386000Y-58040000D01*
X161386000Y-58040000D02*
X156098000Y-58040000D01*
D13*
%TO.C,IC3*%
X154475000Y-60925000D02*
X155075000Y-60925000D01*
X154475000Y-63825000D02*
X154475000Y-60925000D01*
X155075000Y-60925000D02*
X155075000Y-63825000D01*
X155075000Y-63825000D02*
X154475000Y-63825000D01*
X156625000Y-63975000D02*
X155425000Y-63975000D01*
D12*
%TO.C,D1*%
X110377500Y-71540000D02*
X110377500Y-73460000D01*
X110377500Y-73460000D02*
X113062500Y-73460000D01*
X113062500Y-71540000D02*
X110377500Y-71540000D01*
D13*
%TO.C,IC5*%
X126475000Y-60925000D02*
X127075000Y-60925000D01*
X126475000Y-63825000D02*
X126475000Y-60925000D01*
X127075000Y-60925000D02*
X127075000Y-63825000D01*
X127075000Y-63825000D02*
X126475000Y-63825000D01*
X128625000Y-63975000D02*
X127425000Y-63975000D01*
%TO.C,IC2*%
X143200000Y-60925000D02*
X143800000Y-60925000D01*
X143200000Y-63825000D02*
X143200000Y-60925000D01*
X143800000Y-60925000D02*
X143800000Y-63825000D01*
X143800000Y-63825000D02*
X143200000Y-63825000D01*
X145350000Y-63975000D02*
X144150000Y-63975000D01*
%TO.C,IC4*%
X158975000Y-60925000D02*
X159575000Y-60925000D01*
X158975000Y-63825000D02*
X158975000Y-60925000D01*
X159575000Y-60925000D02*
X159575000Y-63825000D01*
X159575000Y-63825000D02*
X158975000Y-63825000D01*
X161125000Y-63975000D02*
X159925000Y-63975000D01*
%TD*%
%LPC*%
D15*
%TO.C,SW1*%
X108500000Y-95250000D03*
X114500000Y-95250000D03*
%TD*%
D16*
%TO.C,R3*%
X105750000Y-66337500D03*
X105750000Y-68162500D03*
%TD*%
D17*
%TO.C,R4*%
X176092500Y-66970000D03*
X177917500Y-66970000D03*
%TD*%
D18*
%TO.C,C8*%
X166475000Y-72260000D03*
X168375000Y-72260000D03*
%TD*%
D19*
%TO.C,U2*%
X112500000Y-83912500D03*
X113000000Y-83912500D03*
X113500000Y-83912500D03*
X114000000Y-83912500D03*
X114500000Y-83912500D03*
X115000000Y-83912500D03*
X115500000Y-83912500D03*
X116000000Y-83912500D03*
X116500000Y-83912500D03*
X117000000Y-83912500D03*
X117500000Y-83912500D03*
X118000000Y-83912500D03*
D20*
X119412500Y-82500000D03*
X119412500Y-82000000D03*
X119412500Y-81500000D03*
X119412500Y-81000000D03*
X119412500Y-80500000D03*
X119412500Y-80000000D03*
X119412500Y-79500000D03*
X119412500Y-79000000D03*
X119412500Y-78500000D03*
X119412500Y-78000000D03*
X119412500Y-77500000D03*
X119412500Y-77000000D03*
D19*
X118000000Y-75587500D03*
X117500000Y-75587500D03*
X117000000Y-75587500D03*
X116500000Y-75587500D03*
X116000000Y-75587500D03*
X115500000Y-75587500D03*
X115000000Y-75587500D03*
X114500000Y-75587500D03*
X114000000Y-75587500D03*
X113500000Y-75587500D03*
X113000000Y-75587500D03*
X112500000Y-75587500D03*
D20*
X111087500Y-77000000D03*
X111087500Y-77500000D03*
X111087500Y-78000000D03*
X111087500Y-78500000D03*
X111087500Y-79000000D03*
X111087500Y-79500000D03*
X111087500Y-80000000D03*
X111087500Y-80500000D03*
X111087500Y-81000000D03*
X111087500Y-81500000D03*
X111087500Y-82000000D03*
X111087500Y-82500000D03*
%TD*%
D21*
%TO.C,IC7*%
X138750000Y-71800000D03*
X138750000Y-72750000D03*
X138750000Y-73700000D03*
X141250000Y-73700000D03*
X141250000Y-72750000D03*
X141250000Y-71800000D03*
%TD*%
D22*
%TO.C,L1*%
X161750000Y-70750000D03*
X163875000Y-70750000D03*
%TD*%
D18*
%TO.C,C6*%
X171625000Y-76030000D03*
X173525000Y-76030000D03*
%TD*%
%TO.C,C9*%
X166475000Y-75270000D03*
X168375000Y-75270000D03*
%TD*%
D21*
%TO.C,IC8*%
X134250000Y-71800000D03*
X134250000Y-72750000D03*
X134250000Y-73700000D03*
X136750000Y-73700000D03*
X136750000Y-72750000D03*
X136750000Y-71800000D03*
%TD*%
D18*
%TO.C,C5*%
X171625000Y-73020000D03*
X173525000Y-73020000D03*
%TD*%
%TO.C,C3*%
X171625000Y-67000000D03*
X173525000Y-67000000D03*
%TD*%
D17*
%TO.C,R6*%
X176092500Y-72870000D03*
X177917500Y-72870000D03*
%TD*%
D23*
%TO.C,J6*%
X171644000Y-81300000D03*
X171644000Y-89700000D03*
D24*
X164344000Y-81300000D03*
X164344000Y-85500000D03*
X164344000Y-89700000D03*
X160144000Y-81300000D03*
X160144000Y-85500000D03*
X160144000Y-89700000D03*
%TD*%
D25*
%TO.C,D2*%
X118187500Y-72750000D03*
X116312500Y-72750000D03*
%TD*%
%TO.C,D3*%
X112937500Y-70250000D03*
X111062500Y-70250000D03*
%TD*%
D26*
%TO.C,J3*%
X141920000Y-57660000D03*
D27*
X147000000Y-55500000D03*
D28*
X144460000Y-55500000D03*
X141920000Y-55500000D03*
X139380000Y-55500000D03*
%TD*%
D29*
%TO.C,J7*%
X118070000Y-64510000D03*
D30*
X115570000Y-64510000D03*
X113570000Y-64510000D03*
X111070000Y-64510000D03*
D31*
X121140000Y-61800000D03*
X108000000Y-61800000D03*
%TD*%
D32*
%TO.C,IC9*%
X147160000Y-78250000D03*
X145890000Y-78250000D03*
X144620000Y-78250000D03*
X143350000Y-78250000D03*
X142080000Y-78250000D03*
X140810000Y-78250000D03*
X139540000Y-78250000D03*
X138270000Y-78250000D03*
X137000000Y-78250000D03*
X135730000Y-78250000D03*
X135730000Y-87674000D03*
X137000000Y-87674000D03*
X138270000Y-87674000D03*
X139540000Y-87674000D03*
X140810000Y-87674000D03*
X142080000Y-87674000D03*
X143350000Y-87674000D03*
X144620000Y-87674000D03*
X145890000Y-87674000D03*
X147160000Y-87674000D03*
%TD*%
D18*
%TO.C,C7*%
X166475000Y-69250000D03*
X168375000Y-69250000D03*
%TD*%
D21*
%TO.C,IC1*%
X132900000Y-63325000D03*
X132900000Y-62375000D03*
X132900000Y-61425000D03*
X130400000Y-61425000D03*
X130400000Y-62375000D03*
X130400000Y-63325000D03*
%TD*%
D33*
%TO.C,D4*%
X116250000Y-70250000D03*
X118125000Y-70250000D03*
%TD*%
D17*
%TO.C,R7*%
X176092500Y-75820000D03*
X177917500Y-75820000D03*
%TD*%
%TO.C,R5*%
X176092500Y-69920000D03*
X177917500Y-69920000D03*
%TD*%
D18*
%TO.C,C1*%
X108550000Y-89500000D03*
X110450000Y-89500000D03*
%TD*%
D34*
%TO.C,D5*%
X120500000Y-72397500D03*
X120500000Y-70522500D03*
%TD*%
D35*
%TO.C,C2*%
X103500000Y-66300000D03*
X103500000Y-68200000D03*
%TD*%
D26*
%TO.C,J2*%
X128920000Y-57565000D03*
D27*
X134000000Y-55405000D03*
D28*
X131460000Y-55405000D03*
X128920000Y-55405000D03*
X126380000Y-55405000D03*
%TD*%
D36*
%TO.C,R1*%
X105750000Y-93250000D03*
X105750000Y-91425000D03*
%TD*%
D37*
%TO.C,IC10*%
X159125000Y-73250000D03*
X159125000Y-73750000D03*
X159125000Y-74250000D03*
X159125000Y-74750000D03*
X159125000Y-75250000D03*
X163525000Y-75250000D03*
X163525000Y-74750000D03*
X163525000Y-74250000D03*
X163525000Y-73750000D03*
X163525000Y-73250000D03*
%TD*%
D36*
%TO.C,R2*%
X108250000Y-84912500D03*
X108250000Y-83087500D03*
%TD*%
D18*
%TO.C,C4*%
X171625000Y-70010000D03*
X173525000Y-70010000D03*
%TD*%
D21*
%TO.C,IC6*%
X140025000Y-63325000D03*
X140025000Y-62375000D03*
X140025000Y-61425000D03*
X137525000Y-61425000D03*
X137525000Y-62375000D03*
X137525000Y-63325000D03*
%TD*%
D26*
%TO.C,J4*%
X154920000Y-57660000D03*
D27*
X160000000Y-55500000D03*
D28*
X157460000Y-55500000D03*
X154920000Y-55500000D03*
X152380000Y-55500000D03*
%TD*%
D21*
%TO.C,IC3*%
X156025000Y-63325000D03*
X156025000Y-62375000D03*
X156025000Y-61425000D03*
X153525000Y-61425000D03*
X153525000Y-62375000D03*
X153525000Y-63325000D03*
%TD*%
D33*
%TO.C,D1*%
X111125000Y-72500000D03*
X113000000Y-72500000D03*
%TD*%
D21*
%TO.C,IC5*%
X128025000Y-63325000D03*
X128025000Y-62375000D03*
X128025000Y-61425000D03*
X125525000Y-61425000D03*
X125525000Y-62375000D03*
X125525000Y-63325000D03*
%TD*%
%TO.C,IC2*%
X144750000Y-63325000D03*
X144750000Y-62375000D03*
X144750000Y-61425000D03*
X142250000Y-61425000D03*
X142250000Y-62375000D03*
X142250000Y-63325000D03*
%TD*%
%TO.C,IC4*%
X160525000Y-63325000D03*
X160525000Y-62375000D03*
X160525000Y-61425000D03*
X158025000Y-61425000D03*
X158025000Y-62375000D03*
X158025000Y-63325000D03*
%TD*%
%LPD*%
M02*
