%TF.GenerationSoftware,KiCad,Pcbnew,8.0.0*%
%TF.CreationDate,2024-03-19T18:53:12-05:00*%
%TF.ProjectId,playground,706c6179-6772-46f7-956e-642e6b696361,rev?*%
%TF.SameCoordinates,Original*%
%TF.FileFunction,Copper,L1,Top*%
%TF.FilePolarity,Positive*%
%FSLAX46Y46*%
G04 Gerber Fmt 4.6, Leading zero omitted, Abs format (unit mm)*
G04 Created by KiCad (PCBNEW 8.0.0) date 2024-03-19 18:53:12*
%MOMM*%
%LPD*%
G01*
G04 APERTURE LIST*
G04 Aperture macros list*
%AMRoundRect*
0 Rectangle with rounded corners*
0 $1 Rounding radius*
0 $2 $3 $4 $5 $6 $7 $8 $9 X,Y pos of 4 corners*
0 Add a 4 corners polygon primitive as box body*
4,1,4,$2,$3,$4,$5,$6,$7,$8,$9,$2,$3,0*
0 Add four circle primitives for the rounded corners*
1,1,$1+$1,$2,$3*
1,1,$1+$1,$4,$5*
1,1,$1+$1,$6,$7*
1,1,$1+$1,$8,$9*
0 Add four rect primitives between the rounded corners*
20,1,$1+$1,$2,$3,$4,$5,0*
20,1,$1+$1,$4,$5,$6,$7,0*
20,1,$1+$1,$6,$7,$8,$9,0*
20,1,$1+$1,$8,$9,$2,$3,0*%
G04 Aperture macros list end*
%TA.AperFunction,SMDPad,CuDef*%
%ADD10RoundRect,0.500000X-0.500000X-0.500000X0.500000X-0.500000X0.500000X0.500000X-0.500000X0.500000X0*%
%TD*%
%TA.AperFunction,SMDPad,CuDef*%
%ADD11RoundRect,0.250000X-0.450000X0.262500X-0.450000X-0.262500X0.450000X-0.262500X0.450000X0.262500X0*%
%TD*%
%TA.AperFunction,SMDPad,CuDef*%
%ADD12RoundRect,0.250000X-0.262500X-0.450000X0.262500X-0.450000X0.262500X0.450000X-0.262500X0.450000X0*%
%TD*%
%TA.AperFunction,SMDPad,CuDef*%
%ADD13RoundRect,0.250000X-0.250000X-0.475000X0.250000X-0.475000X0.250000X0.475000X-0.250000X0.475000X0*%
%TD*%
%TA.AperFunction,SMDPad,CuDef*%
%ADD14RoundRect,0.075000X0.075000X-0.662500X0.075000X0.662500X-0.075000X0.662500X-0.075000X-0.662500X0*%
%TD*%
%TA.AperFunction,SMDPad,CuDef*%
%ADD15RoundRect,0.075000X0.662500X-0.075000X0.662500X0.075000X-0.662500X0.075000X-0.662500X-0.075000X0*%
%TD*%
%TA.AperFunction,SMDPad,CuDef*%
%ADD16R,1.200000X0.600000*%
%TD*%
%TA.AperFunction,SMDPad,CuDef*%
%ADD17RoundRect,0.218750X-0.218750X-0.381250X0.218750X-0.381250X0.218750X0.381250X-0.218750X0.381250X0*%
%TD*%
%TA.AperFunction,ComponentPad*%
%ADD18C,2.775000*%
%TD*%
%TA.AperFunction,SMDPad,CuDef*%
%ADD19RoundRect,0.243750X0.243750X0.456250X-0.243750X0.456250X-0.243750X-0.456250X0.243750X-0.456250X0*%
%TD*%
%TA.AperFunction,ComponentPad*%
%ADD20R,1.530000X1.530000*%
%TD*%
%TA.AperFunction,ComponentPad*%
%ADD21C,1.550000*%
%TD*%
%TA.AperFunction,ComponentPad*%
%ADD22R,1.600000X1.500000*%
%TD*%
%TA.AperFunction,ComponentPad*%
%ADD23C,1.600000*%
%TD*%
%TA.AperFunction,ComponentPad*%
%ADD24C,3.000000*%
%TD*%
%TA.AperFunction,SMDPad,CuDef*%
%ADD25R,0.700000X1.925000*%
%TD*%
%TA.AperFunction,SMDPad,CuDef*%
%ADD26RoundRect,0.243750X-0.243750X-0.456250X0.243750X-0.456250X0.243750X0.456250X-0.243750X0.456250X0*%
%TD*%
%TA.AperFunction,SMDPad,CuDef*%
%ADD27RoundRect,0.243750X0.456250X-0.243750X0.456250X0.243750X-0.456250X0.243750X-0.456250X-0.243750X0*%
%TD*%
%TA.AperFunction,SMDPad,CuDef*%
%ADD28RoundRect,0.250000X-0.475000X0.250000X-0.475000X-0.250000X0.475000X-0.250000X0.475000X0.250000X0*%
%TD*%
%TA.AperFunction,SMDPad,CuDef*%
%ADD29RoundRect,0.250000X0.450000X-0.262500X0.450000X0.262500X-0.450000X0.262500X-0.450000X-0.262500X0*%
%TD*%
%TA.AperFunction,SMDPad,CuDef*%
%ADD30R,1.400000X0.300000*%
%TD*%
%TA.AperFunction,ViaPad*%
%ADD31C,0.600000*%
%TD*%
%TA.AperFunction,Conductor*%
%ADD32C,0.200000*%
%TD*%
%TA.AperFunction,Conductor*%
%ADD33C,0.500000*%
%TD*%
G04 APERTURE END LIST*
D10*
%TO.P,SW1,1*%
%TO.N,Net-(R1-Pad1)*%
X108500000Y-95250000D03*
%TO.P,SW1,2*%
%TO.N,GND*%
X114500000Y-95250000D03*
%TD*%
D11*
%TO.P,R3,1*%
%TO.N,/usb_shield_gnd*%
X105750000Y-66337500D03*
%TO.P,R3,2*%
%TO.N,GND*%
X105750000Y-68162500D03*
%TD*%
D12*
%TO.P,R4,1*%
%TO.N,+12V*%
X176092500Y-66970000D03*
%TO.P,R4,2*%
%TO.N,/Power Regulation/buck_en*%
X177917500Y-66970000D03*
%TD*%
D13*
%TO.P,C8,1*%
%TO.N,GND*%
X166475000Y-72260000D03*
%TO.P,C8,2*%
%TO.N,+5V*%
X168375000Y-72260000D03*
%TD*%
D14*
%TO.P,U2,1,PA00*%
%TO.N,unconnected-(U2-PA00-Pad1)*%
X112500000Y-83912500D03*
%TO.P,U2,2,PA01*%
%TO.N,unconnected-(U2-PA01-Pad2)*%
X113000000Y-83912500D03*
%TO.P,U2,3,PA02*%
%TO.N,unconnected-(U2-PA02-Pad3)*%
X113500000Y-83912500D03*
%TO.P,U2,4,PA03*%
%TO.N,unconnected-(U2-PA03-Pad4)*%
X114000000Y-83912500D03*
%TO.P,U2,5,GNDANA*%
%TO.N,GND*%
X114500000Y-83912500D03*
%TO.P,U2,6,VDDANA*%
%TO.N,+3V3*%
X115000000Y-83912500D03*
%TO.P,U2,7,PB08*%
%TO.N,unconnected-(U2-PB08-Pad7)*%
X115500000Y-83912500D03*
%TO.P,U2,8,PB09*%
%TO.N,unconnected-(U2-PB09-Pad8)*%
X116000000Y-83912500D03*
%TO.P,U2,9,PA04*%
%TO.N,/PumpCtrl_3v3*%
X116500000Y-83912500D03*
%TO.P,U2,10,PA05*%
%TO.N,/FanCtrl_3v3*%
X117000000Y-83912500D03*
%TO.P,U2,11,PA06*%
%TO.N,/PumpSense_3v3*%
X117500000Y-83912500D03*
%TO.P,U2,12,PA07*%
%TO.N,/FanSense_3v3*%
X118000000Y-83912500D03*
D15*
%TO.P,U2,13,PA08*%
%TO.N,unconnected-(U2-PA08-Pad13)*%
X119412500Y-82500000D03*
%TO.P,U2,14,PA09*%
%TO.N,unconnected-(U2-PA09-Pad14)*%
X119412500Y-82000000D03*
%TO.P,U2,15,PA10*%
%TO.N,/ValveSense1_3v3*%
X119412500Y-81500000D03*
%TO.P,U2,16,PA11*%
%TO.N,/ValveSense2_3v3*%
X119412500Y-81000000D03*
%TO.P,U2,17,VDDIO*%
%TO.N,+3V3*%
X119412500Y-80500000D03*
%TO.P,U2,18,GND*%
%TO.N,GND*%
X119412500Y-80000000D03*
%TO.P,U2,19,PB10*%
%TO.N,unconnected-(U2-PB10-Pad19)*%
X119412500Y-79500000D03*
%TO.P,U2,20,PB11*%
%TO.N,unconnected-(U2-PB11-Pad20)*%
X119412500Y-79000000D03*
%TO.P,U2,21,PA12*%
%TO.N,unconnected-(U2-PA12-Pad21)*%
X119412500Y-78500000D03*
%TO.P,U2,22,PA13*%
%TO.N,unconnected-(U2-PA13-Pad22)*%
X119412500Y-78000000D03*
%TO.P,U2,23,PA14*%
%TO.N,unconnected-(U2-PA14-Pad23)*%
X119412500Y-77500000D03*
%TO.P,U2,24,PA15*%
%TO.N,unconnected-(U2-PA15-Pad24)*%
X119412500Y-77000000D03*
D14*
%TO.P,U2,25,PA16*%
%TO.N,unconnected-(U2-PA16-Pad25)*%
X118000000Y-75587500D03*
%TO.P,U2,26,PA17*%
%TO.N,unconnected-(U2-PA17-Pad26)*%
X117500000Y-75587500D03*
%TO.P,U2,27,PA18*%
%TO.N,unconnected-(U2-PA18-Pad27)*%
X117000000Y-75587500D03*
%TO.P,U2,28,PA19*%
%TO.N,unconnected-(U2-PA19-Pad28)*%
X116500000Y-75587500D03*
%TO.P,U2,29,PA20*%
%TO.N,unconnected-(U2-PA20-Pad29)*%
X116000000Y-75587500D03*
%TO.P,U2,30,PA21*%
%TO.N,unconnected-(U2-PA21-Pad30)*%
X115500000Y-75587500D03*
%TO.P,U2,31,PA22*%
%TO.N,/ValveCtrl1_3v3*%
X115000000Y-75587500D03*
%TO.P,U2,32,PA23*%
%TO.N,/ValveCtrl2_3v3*%
X114500000Y-75587500D03*
%TO.P,U2,33,PA24*%
%TO.N,/USB_D-*%
X114000000Y-75587500D03*
%TO.P,U2,34,PA25*%
%TO.N,/USB_D+*%
X113500000Y-75587500D03*
%TO.P,U2,35,GND*%
%TO.N,GND*%
X113000000Y-75587500D03*
%TO.P,U2,36,VDDIO*%
%TO.N,+3V3*%
X112500000Y-75587500D03*
D15*
%TO.P,U2,37,PB22*%
%TO.N,unconnected-(U2-PB22-Pad37)*%
X111087500Y-77000000D03*
%TO.P,U2,38,PB23*%
%TO.N,unconnected-(U2-PB23-Pad38)*%
X111087500Y-77500000D03*
%TO.P,U2,39,PA27*%
%TO.N,unconnected-(U2-PA27-Pad39)*%
X111087500Y-78000000D03*
%TO.P,U2,40,~{RESET}*%
%TO.N,/RESET*%
X111087500Y-78500000D03*
%TO.P,U2,41,PA28*%
%TO.N,unconnected-(U2-PA28-Pad41)*%
X111087500Y-79000000D03*
%TO.P,U2,42,GND*%
%TO.N,GND*%
X111087500Y-79500000D03*
%TO.P,U2,43,VDDCORE*%
%TO.N,+3V3*%
X111087500Y-80000000D03*
%TO.P,U2,44,VDDIN*%
X111087500Y-80500000D03*
%TO.P,U2,45,PA30*%
%TO.N,unconnected-(U2-PA30-Pad45)*%
X111087500Y-81000000D03*
%TO.P,U2,46,PA31*%
%TO.N,unconnected-(U2-PA31-Pad46)*%
X111087500Y-81500000D03*
%TO.P,U2,47,PB02*%
%TO.N,unconnected-(U2-PB02-Pad47)*%
X111087500Y-82000000D03*
%TO.P,U2,48,PB03*%
%TO.N,unconnected-(U2-PB03-Pad48)*%
X111087500Y-82500000D03*
%TD*%
D16*
%TO.P,IC7,1,VCCA*%
%TO.N,+3V3*%
X138750000Y-71800000D03*
%TO.P,IC7,2,GND*%
%TO.N,GND*%
X138750000Y-72750000D03*
%TO.P,IC7,3,A*%
%TO.N,/ValveCtrl1_3v3*%
X138750000Y-73700000D03*
%TO.P,IC7,4,BY*%
%TO.N,/ValveCtrl1_5v*%
X141250000Y-73700000D03*
%TO.P,IC7,5,OE*%
%TO.N,+5V*%
X141250000Y-72750000D03*
%TO.P,IC7,6,VCCB*%
X141250000Y-71800000D03*
%TD*%
D17*
%TO.P,L1,1,1*%
%TO.N,/Power Regulation/buck_sw*%
X161750000Y-70750000D03*
%TO.P,L1,2,2*%
%TO.N,+5V*%
X163875000Y-70750000D03*
%TD*%
D13*
%TO.P,C6,1*%
%TO.N,/Power Regulation/buck_sw*%
X171625000Y-76030000D03*
%TO.P,C6,2*%
%TO.N,Net-(IC10-BST)*%
X173525000Y-76030000D03*
%TD*%
%TO.P,C9,1*%
%TO.N,GND*%
X166475000Y-75270000D03*
%TO.P,C9,2*%
%TO.N,+5V*%
X168375000Y-75270000D03*
%TD*%
D16*
%TO.P,IC8,1,VCCA*%
%TO.N,+3V3*%
X134250000Y-71800000D03*
%TO.P,IC8,2,GND*%
%TO.N,GND*%
X134250000Y-72750000D03*
%TO.P,IC8,3,A*%
%TO.N,/ValveCtrl2_3v3*%
X134250000Y-73700000D03*
%TO.P,IC8,4,BY*%
%TO.N,/ValveCtrl2_5v*%
X136750000Y-73700000D03*
%TO.P,IC8,5,OE*%
%TO.N,+5V*%
X136750000Y-72750000D03*
%TO.P,IC8,6,VCCB*%
X136750000Y-71800000D03*
%TD*%
D13*
%TO.P,C5,1*%
%TO.N,+12V*%
X171625000Y-73020000D03*
%TO.P,C5,2*%
%TO.N,GND*%
X173525000Y-73020000D03*
%TD*%
%TO.P,C3,1*%
%TO.N,+12V*%
X171625000Y-67000000D03*
%TO.P,C3,2*%
%TO.N,GND*%
X173525000Y-67000000D03*
%TD*%
D12*
%TO.P,R6,1*%
%TO.N,+5V*%
X176092500Y-72870000D03*
%TO.P,R6,2*%
%TO.N,/Power Regulation/buck_fb*%
X177917500Y-72870000D03*
%TD*%
D18*
%TO.P,J6,1,1*%
%TO.N,+12V*%
X164344000Y-81300000D03*
%TO.P,J6,2,2*%
X164344000Y-85500000D03*
%TO.P,J6,3,3*%
X164344000Y-89700000D03*
%TO.P,J6,4,4*%
%TO.N,GND*%
X160144000Y-81300000D03*
%TO.P,J6,5,5*%
X160144000Y-85500000D03*
%TO.P,J6,6,6*%
X160144000Y-89700000D03*
%TD*%
D19*
%TO.P,D2,1,K*%
%TO.N,/USB_VBUS*%
X118187500Y-72750000D03*
%TO.P,D2,2,A*%
%TO.N,/USB_D-*%
X116312500Y-72750000D03*
%TD*%
%TO.P,D3,1,K*%
%TO.N,/USB_D+*%
X112937500Y-70250000D03*
%TO.P,D3,2,A*%
%TO.N,GND*%
X111062500Y-70250000D03*
%TD*%
D20*
%TO.P,J3,1,1*%
%TO.N,unconnected-(J3-Pad1)*%
X147000000Y-55500000D03*
D21*
%TO.P,J3,2,2*%
%TO.N,unconnected-(J3-Pad2)*%
X144460000Y-55500000D03*
%TO.P,J3,3,3*%
%TO.N,/FanSense_5v*%
X141920000Y-55500000D03*
%TO.P,J3,4,4*%
%TO.N,/FanCtrl_5v*%
X139380000Y-55500000D03*
%TD*%
D22*
%TO.P,J7,1,VBUS*%
%TO.N,/USB_VBUS*%
X118070000Y-64510000D03*
D23*
%TO.P,J7,2,D-*%
%TO.N,/USB_D-*%
X115570000Y-64510000D03*
%TO.P,J7,3,D+*%
%TO.N,/USB_D+*%
X113570000Y-64510000D03*
%TO.P,J7,4,GND*%
%TO.N,GND*%
X111070000Y-64510000D03*
D24*
%TO.P,J7,5,Shield*%
%TO.N,/usb_shield_gnd*%
X121140000Y-61800000D03*
X108000000Y-61800000D03*
%TD*%
D25*
%TO.P,IC9,1,ENABLE_1*%
%TO.N,+5V*%
X147160000Y-78250000D03*
%TO.P,IC9,2,INPUT_1*%
%TO.N,/ValveCtrl1_5v*%
X145890000Y-78250000D03*
%TO.P,IC9,3,OUTPUT_1*%
%TO.N,/ValveOutput1_12v*%
X144620000Y-78250000D03*
%TO.P,IC9,4,GND_1*%
%TO.N,GND*%
X143350000Y-78250000D03*
%TO.P,IC9,5,GND_2*%
X142080000Y-78250000D03*
%TO.P,IC9,6,GND_3*%
X140810000Y-78250000D03*
%TO.P,IC9,7,GND_4*%
X139540000Y-78250000D03*
%TO.P,IC9,8,OUTPUT_2*%
%TO.N,/ValveOutput2_12v*%
X138270000Y-78250000D03*
%TO.P,IC9,9,INPUT_2*%
%TO.N,/ValveCtrl2_5v*%
X137000000Y-78250000D03*
%TO.P,IC9,10,VS*%
%TO.N,+12V*%
X135730000Y-78250000D03*
%TO.P,IC9,11,ENABLE_2*%
%TO.N,+5V*%
X135730000Y-87674000D03*
%TO.P,IC9,12,INPUT_3*%
%TO.N,unconnected-(IC9-INPUT_3-Pad12)*%
X137000000Y-87674000D03*
%TO.P,IC9,13,OUTPUT_3*%
%TO.N,unconnected-(IC9-OUTPUT_3-Pad13)*%
X138270000Y-87674000D03*
%TO.P,IC9,14,GND_5*%
%TO.N,GND*%
X139540000Y-87674000D03*
%TO.P,IC9,15,GND_6*%
X140810000Y-87674000D03*
%TO.P,IC9,16,GND_7*%
X142080000Y-87674000D03*
%TO.P,IC9,17,GND_8*%
X143350000Y-87674000D03*
%TO.P,IC9,18,OUTPUT_4*%
%TO.N,unconnected-(IC9-OUTPUT_4-Pad18)*%
X144620000Y-87674000D03*
%TO.P,IC9,19,INPUT_4*%
%TO.N,unconnected-(IC9-INPUT_4-Pad19)*%
X145890000Y-87674000D03*
%TO.P,IC9,20,VSS*%
%TO.N,+5V*%
X147160000Y-87674000D03*
%TD*%
D13*
%TO.P,C7,1*%
%TO.N,/Power Regulation/buck_fb*%
X166475000Y-69250000D03*
%TO.P,C7,2*%
%TO.N,+5V*%
X168375000Y-69250000D03*
%TD*%
D16*
%TO.P,IC1,1,VCCA*%
%TO.N,+5V*%
X132900000Y-63325000D03*
%TO.P,IC1,2,GND*%
%TO.N,GND*%
X132900000Y-62375000D03*
%TO.P,IC1,3,A*%
%TO.N,/PumpSense_5v*%
X132900000Y-61425000D03*
%TO.P,IC1,4,BY*%
%TO.N,/PumpSense_3v3*%
X130400000Y-61425000D03*
%TO.P,IC1,5,OE*%
%TO.N,+3V3*%
X130400000Y-62375000D03*
%TO.P,IC1,6,VCCB*%
X130400000Y-63325000D03*
%TD*%
D26*
%TO.P,D4,1,K*%
%TO.N,/USB_D-*%
X116250000Y-70250000D03*
%TO.P,D4,2,A*%
%TO.N,GND*%
X118125000Y-70250000D03*
%TD*%
D12*
%TO.P,R7,1*%
%TO.N,/Power Regulation/buck_fb*%
X176092500Y-75820000D03*
%TO.P,R7,2*%
%TO.N,GND*%
X177917500Y-75820000D03*
%TD*%
%TO.P,R5,1*%
%TO.N,/Power Regulation/buck_en*%
X176092500Y-69920000D03*
%TO.P,R5,2*%
%TO.N,GND*%
X177917500Y-69920000D03*
%TD*%
D13*
%TO.P,C1,1*%
%TO.N,/RESET*%
X108550000Y-89500000D03*
%TO.P,C1,2*%
%TO.N,GND*%
X110450000Y-89500000D03*
%TD*%
D27*
%TO.P,D5,1,K*%
%TO.N,/USB_VBUS*%
X120500000Y-72397500D03*
%TO.P,D5,2,A*%
%TO.N,GND*%
X120500000Y-70522500D03*
%TD*%
D28*
%TO.P,C2,1*%
%TO.N,/usb_shield_gnd*%
X103500000Y-66300000D03*
%TO.P,C2,2*%
%TO.N,GND*%
X103500000Y-68200000D03*
%TD*%
D20*
%TO.P,J2,1,1*%
%TO.N,unconnected-(J2-Pad1)*%
X134000000Y-55405000D03*
D21*
%TO.P,J2,2,2*%
%TO.N,unconnected-(J2-Pad2)*%
X131460000Y-55405000D03*
%TO.P,J2,3,3*%
%TO.N,/PumpSense_5v*%
X128920000Y-55405000D03*
%TO.P,J2,4,4*%
%TO.N,/PumpCtrl_5v*%
X126380000Y-55405000D03*
%TD*%
D29*
%TO.P,R1,1*%
%TO.N,Net-(R1-Pad1)*%
X105750000Y-93250000D03*
%TO.P,R1,2*%
%TO.N,/RESET*%
X105750000Y-91425000D03*
%TD*%
D30*
%TO.P,IC10,1,VIN*%
%TO.N,+12V*%
X159125000Y-73250000D03*
%TO.P,IC10,2,SW*%
%TO.N,/Power Regulation/buck_sw*%
X159125000Y-73750000D03*
%TO.P,IC10,3,GND*%
%TO.N,GND*%
X159125000Y-74250000D03*
%TO.P,IC10,4,BST*%
%TO.N,Net-(IC10-BST)*%
X159125000Y-74750000D03*
%TO.P,IC10,5,EN*%
%TO.N,/Power Regulation/buck_en*%
X159125000Y-75250000D03*
%TO.P,IC10,6,FB*%
%TO.N,/Power Regulation/buck_fb*%
X163525000Y-75250000D03*
%TO.P,IC10,7*%
%TO.N,N/C*%
X163525000Y-74750000D03*
%TO.P,IC10,8*%
X163525000Y-74250000D03*
%TO.P,IC10,9*%
X163525000Y-73750000D03*
%TO.P,IC10,10*%
X163525000Y-73250000D03*
%TD*%
D29*
%TO.P,R2,1*%
%TO.N,/RESET*%
X108250000Y-84912500D03*
%TO.P,R2,2*%
%TO.N,+3V3*%
X108250000Y-83087500D03*
%TD*%
D13*
%TO.P,C4,1*%
%TO.N,+12V*%
X171625000Y-70010000D03*
%TO.P,C4,2*%
%TO.N,GND*%
X173525000Y-70010000D03*
%TD*%
D16*
%TO.P,IC6,1,VCCA*%
%TO.N,+3V3*%
X140025000Y-63325000D03*
%TO.P,IC6,2,GND*%
%TO.N,GND*%
X140025000Y-62375000D03*
%TO.P,IC6,3,A*%
%TO.N,/FanCtrl_3v3*%
X140025000Y-61425000D03*
%TO.P,IC6,4,BY*%
%TO.N,/FanCtrl_5v*%
X137525000Y-61425000D03*
%TO.P,IC6,5,OE*%
%TO.N,+5V*%
X137525000Y-62375000D03*
%TO.P,IC6,6,VCCB*%
X137525000Y-63325000D03*
%TD*%
D20*
%TO.P,J4,1,1*%
%TO.N,/ValveSense2_5v*%
X160000000Y-55500000D03*
D21*
%TO.P,J4,2,2*%
%TO.N,/ValveSense1_5v*%
X157460000Y-55500000D03*
%TO.P,J4,3,3*%
%TO.N,/ValveOutput1_12v*%
X154920000Y-55500000D03*
%TO.P,J4,4,4*%
%TO.N,/ValveOutput2_12v*%
X152380000Y-55500000D03*
%TD*%
D16*
%TO.P,IC3,1,VCCA*%
%TO.N,+5V*%
X156025000Y-63325000D03*
%TO.P,IC3,2,GND*%
%TO.N,GND*%
X156025000Y-62375000D03*
%TO.P,IC3,3,A*%
%TO.N,/ValveSense1_5v*%
X156025000Y-61425000D03*
%TO.P,IC3,4,BY*%
%TO.N,/ValveSense1_3v3*%
X153525000Y-61425000D03*
%TO.P,IC3,5,OE*%
%TO.N,+3V3*%
X153525000Y-62375000D03*
%TO.P,IC3,6,VCCB*%
X153525000Y-63325000D03*
%TD*%
D26*
%TO.P,D1,1,K*%
%TO.N,/USB_VBUS*%
X111125000Y-72500000D03*
%TO.P,D1,2,A*%
%TO.N,/USB_D+*%
X113000000Y-72500000D03*
%TD*%
D16*
%TO.P,IC5,1,VCCA*%
%TO.N,+3V3*%
X128025000Y-63325000D03*
%TO.P,IC5,2,GND*%
%TO.N,GND*%
X128025000Y-62375000D03*
%TO.P,IC5,3,A*%
%TO.N,/PumpCtrl_3v3*%
X128025000Y-61425000D03*
%TO.P,IC5,4,BY*%
%TO.N,/PumpCtrl_5v*%
X125525000Y-61425000D03*
%TO.P,IC5,5,OE*%
%TO.N,+5V*%
X125525000Y-62375000D03*
%TO.P,IC5,6,VCCB*%
X125525000Y-63325000D03*
%TD*%
%TO.P,IC2,1,VCCA*%
%TO.N,+5V*%
X144750000Y-63325000D03*
%TO.P,IC2,2,GND*%
%TO.N,GND*%
X144750000Y-62375000D03*
%TO.P,IC2,3,A*%
%TO.N,/FanSense_5v*%
X144750000Y-61425000D03*
%TO.P,IC2,4,BY*%
%TO.N,/FanSense_3v3*%
X142250000Y-61425000D03*
%TO.P,IC2,5,OE*%
%TO.N,+3V3*%
X142250000Y-62375000D03*
%TO.P,IC2,6,VCCB*%
X142250000Y-63325000D03*
%TD*%
%TO.P,IC4,1,VCCA*%
%TO.N,+5V*%
X160525000Y-63325000D03*
%TO.P,IC4,2,GND*%
%TO.N,GND*%
X160525000Y-62375000D03*
%TO.P,IC4,3,A*%
%TO.N,/ValveSense2_5v*%
X160525000Y-61425000D03*
%TO.P,IC4,4,BY*%
%TO.N,/ValveSense2_3v3*%
X158025000Y-61425000D03*
%TO.P,IC4,5,OE*%
%TO.N,+3V3*%
X158025000Y-62375000D03*
%TO.P,IC4,6,VCCB*%
X158025000Y-63325000D03*
%TD*%
D31*
%TO.N,/RESET*%
X106500000Y-89250000D03*
X106500000Y-86500000D03*
%TO.N,+5V*%
X140500000Y-71250000D03*
X144000000Y-64500000D03*
X156500000Y-65250000D03*
X155500000Y-64250000D03*
X133250000Y-67500000D03*
X159000000Y-68500000D03*
X127000000Y-65250000D03*
X131500000Y-65250000D03*
X137500000Y-71250000D03*
%TO.N,GND*%
X139508114Y-72925657D03*
X140250000Y-85750000D03*
X142500000Y-80250000D03*
X111750000Y-90000000D03*
X109750000Y-68250000D03*
X140000000Y-80250000D03*
X134000000Y-61750000D03*
X118000000Y-79750000D03*
X139000000Y-62750000D03*
X155000000Y-62750000D03*
X110000000Y-69750000D03*
X120000000Y-69500000D03*
X116000000Y-94250000D03*
X132750000Y-73000000D03*
X114250000Y-82500000D03*
X112293436Y-79266964D03*
X143000000Y-85750000D03*
X126750000Y-62750000D03*
X146000000Y-62000000D03*
X113250000Y-77000000D03*
X159500000Y-62750000D03*
%TO.N,/PumpCtrl_3v3*%
X123750000Y-71500000D03*
X126000000Y-69250000D03*
%TO.N,/FanCtrl_3v3*%
X127000000Y-75250000D03*
X123000000Y-81500000D03*
X123000000Y-79250000D03*
X133700735Y-68700735D03*
%TO.N,/ValveCtrl1_3v3*%
X137750000Y-76000000D03*
X135500000Y-76000000D03*
X115350000Y-80500000D03*
X122000000Y-86500000D03*
%TO.N,/ValveCtrl2_3v3*%
X115750000Y-82000000D03*
X117250000Y-87250000D03*
%TO.N,/PumpSense_3v3*%
X124250000Y-72500000D03*
X127250000Y-69500000D03*
X120300329Y-76394397D03*
X118175000Y-78482744D03*
%TO.N,/FanSense_3v3*%
X128000000Y-75500000D03*
X134500000Y-69000000D03*
%TO.N,/ValveSense1_3v3*%
X135500000Y-74650000D03*
X124500000Y-83750000D03*
X136750000Y-69250000D03*
X145400000Y-67000000D03*
X121500000Y-80750000D03*
X150750000Y-62750000D03*
%TO.N,/ValveSense2_3v3*%
X135500000Y-69250000D03*
X145400000Y-66000000D03*
X147750000Y-66000000D03*
X123250000Y-77750000D03*
%TO.N,/USB_VBUS*%
X119750000Y-73750000D03*
X111500000Y-73750000D03*
%TO.N,/ValveOutput2_12v*%
X146000000Y-73500000D03*
X150750000Y-59000000D03*
X143250000Y-74000000D03*
X146000000Y-69500000D03*
X147250000Y-62500000D03*
X142216985Y-74783015D03*
%TO.N,/ValveOutput1_12v*%
X144216985Y-76783015D03*
X151500000Y-59500000D03*
X147000000Y-73500000D03*
X147000000Y-69500000D03*
X148000000Y-63000000D03*
X145065515Y-75934485D03*
%TD*%
D32*
%TO.N,/USB_D+*%
X114344999Y-71000000D02*
X114344999Y-71250000D01*
X113500000Y-73681800D02*
X113500000Y-75587500D01*
X113937500Y-71250000D02*
X114344999Y-71250000D01*
X113570000Y-64510000D02*
X114344999Y-65284999D01*
X114344999Y-71250000D02*
X114344999Y-72836801D01*
X114250000Y-71250000D02*
X114344999Y-71250000D01*
X114344999Y-72836801D02*
X113500000Y-73681800D01*
X114344999Y-65284999D02*
X114344999Y-68750000D01*
X114344999Y-68750000D02*
X114344999Y-71000000D01*
X113000000Y-72500000D02*
X114250000Y-71250000D01*
X112937500Y-70250000D02*
X113937500Y-71250000D01*
%TO.N,/RESET*%
X106937500Y-84912500D02*
X106525000Y-84500000D01*
X106525000Y-90475000D02*
X106525000Y-90525000D01*
X108550000Y-89500000D02*
X108050000Y-90000000D01*
X108050000Y-90000000D02*
X107000000Y-90000000D01*
X106525000Y-84500000D02*
X106525000Y-86475000D01*
X106525000Y-84500000D02*
X106525000Y-82292590D01*
X106525000Y-86475000D02*
X106500000Y-86500000D01*
X108250000Y-84912500D02*
X106937500Y-84912500D01*
X110317590Y-78500000D02*
X111087500Y-78500000D01*
X106525000Y-90525000D02*
X105750000Y-91300000D01*
X107000000Y-90000000D02*
X106525000Y-90475000D01*
X106500000Y-90500000D02*
X106525000Y-90525000D01*
X106525000Y-82292590D02*
X110317590Y-78500000D01*
X105750000Y-91300000D02*
X105750000Y-91425000D01*
X106500000Y-89250000D02*
X106500000Y-90500000D01*
%TO.N,/USB_D-*%
X114795001Y-68750000D02*
X114795001Y-71250000D01*
X114000000Y-74000000D02*
X114000000Y-75587500D01*
X116250000Y-70250000D02*
X114795001Y-68795001D01*
X114795001Y-65284999D02*
X114795001Y-68750000D01*
X114812500Y-71250000D02*
X114795001Y-71250000D01*
X114795001Y-73023199D02*
X114000000Y-74000000D01*
X115570000Y-64510000D02*
X114795001Y-65284999D01*
X116312500Y-72750000D02*
X114812500Y-71250000D01*
X114795001Y-71250000D02*
X114795001Y-73023199D01*
X114795001Y-68795001D02*
X114795001Y-68750000D01*
D33*
%TO.N,+5V*%
X132900000Y-63325000D02*
X132900000Y-63850000D01*
X151500000Y-87750000D02*
X151424000Y-87674000D01*
X136175000Y-63325000D02*
X134750000Y-64750000D01*
X133750000Y-67000000D02*
X133250000Y-67500000D01*
X144750000Y-63750000D02*
X144000000Y-64500000D01*
X136950000Y-71800000D02*
X137500000Y-71250000D01*
X136750000Y-71800000D02*
X136950000Y-71800000D01*
X132900000Y-63850000D02*
X132000000Y-64750000D01*
X156025000Y-63325000D02*
X156025000Y-63725000D01*
X133750000Y-64750000D02*
X132000000Y-64750000D01*
X160525000Y-63325000D02*
X163575000Y-63325000D01*
X125525000Y-63325000D02*
X125525000Y-62375000D01*
X133750000Y-64750000D02*
X133750000Y-67000000D01*
X125525000Y-63775000D02*
X127000000Y-65250000D01*
X140500000Y-71250000D02*
X140700000Y-71250000D01*
X151424000Y-87674000D02*
X147160000Y-87674000D01*
X147160000Y-78250000D02*
X151250000Y-78250000D01*
X125525000Y-63325000D02*
X125525000Y-63775000D01*
X156025000Y-63725000D02*
X155500000Y-64250000D01*
X137525000Y-63325000D02*
X136175000Y-63325000D01*
X132000000Y-64750000D02*
X131500000Y-65250000D01*
X144750000Y-63325000D02*
X144750000Y-63750000D01*
X156500000Y-65250000D02*
X162500000Y-65250000D01*
X134750000Y-64750000D02*
X133750000Y-64750000D01*
X136750000Y-71800000D02*
X136750000Y-72750000D01*
X140700000Y-71250000D02*
X141250000Y-71800000D01*
X141250000Y-71800000D02*
X141250000Y-72750000D01*
X163750000Y-63500000D02*
X163575000Y-63325000D01*
%TO.N,GND*%
X115000000Y-95250000D02*
X116000000Y-94250000D01*
D32*
X142080000Y-86670000D02*
X143000000Y-85750000D01*
D33*
X110500000Y-70250000D02*
X110000000Y-69750000D01*
X109662500Y-68162500D02*
X109750000Y-68250000D01*
X111070000Y-64510000D02*
X111070000Y-65680000D01*
X108587500Y-68162500D02*
X109662500Y-68162500D01*
X160525000Y-62375000D02*
X159875000Y-62375000D01*
X128025000Y-62375000D02*
X127125000Y-62375000D01*
D32*
X143350000Y-78250000D02*
X143350000Y-79400000D01*
D33*
X132900000Y-62375000D02*
X133750000Y-62375000D01*
D32*
X139540000Y-87674000D02*
X139540000Y-86460000D01*
X113000000Y-76750000D02*
X113250000Y-77000000D01*
D33*
X133750000Y-62375000D02*
X134000000Y-62125000D01*
X133000000Y-72750000D02*
X132750000Y-73000000D01*
D32*
X113000000Y-75587500D02*
X113000000Y-76750000D01*
D33*
X105712500Y-68200000D02*
X105750000Y-68162500D01*
D32*
X114500000Y-83912500D02*
X114500000Y-82750000D01*
D33*
X105750000Y-68162500D02*
X108587500Y-68162500D01*
X111062500Y-70250000D02*
X110500000Y-70250000D01*
X127125000Y-62375000D02*
X126750000Y-62750000D01*
X139375000Y-62375000D02*
X139000000Y-62750000D01*
D32*
X140810000Y-79440000D02*
X140000000Y-80250000D01*
D33*
X134000000Y-62125000D02*
X134000000Y-61750000D01*
X145625000Y-62375000D02*
X146000000Y-62000000D01*
X111070000Y-65680000D02*
X109250000Y-67500000D01*
D32*
X111250000Y-89500000D02*
X111750000Y-90000000D01*
X118250000Y-80000000D02*
X118000000Y-79750000D01*
D33*
X144750000Y-62375000D02*
X145625000Y-62375000D01*
D32*
X142080000Y-87674000D02*
X142080000Y-86670000D01*
X143350000Y-87674000D02*
X143350000Y-86100000D01*
X119412500Y-80000000D02*
X118250000Y-80000000D01*
D33*
X139332457Y-72750000D02*
X139508114Y-72925657D01*
X119500000Y-70250000D02*
X119500000Y-70000000D01*
D32*
X139540000Y-78250000D02*
X139540000Y-79790000D01*
D33*
X114500000Y-95250000D02*
X115000000Y-95250000D01*
X119500000Y-70000000D02*
X120000000Y-69500000D01*
D32*
X111087500Y-79500000D02*
X112060400Y-79500000D01*
D33*
X138750000Y-72750000D02*
X139332457Y-72750000D01*
D32*
X142080000Y-79830000D02*
X142500000Y-80250000D01*
D33*
X155375000Y-62375000D02*
X155000000Y-62750000D01*
D32*
X143350000Y-79400000D02*
X142500000Y-80250000D01*
D33*
X120227500Y-70250000D02*
X120500000Y-70522500D01*
X134250000Y-72750000D02*
X133000000Y-72750000D01*
D32*
X140810000Y-86310000D02*
X140250000Y-85750000D01*
D33*
X140025000Y-62375000D02*
X139375000Y-62375000D01*
D32*
X143350000Y-86100000D02*
X143000000Y-85750000D01*
D33*
X159875000Y-62375000D02*
X159500000Y-62750000D01*
D32*
X114500000Y-82750000D02*
X114250000Y-82500000D01*
X110450000Y-89500000D02*
X111250000Y-89500000D01*
D33*
X160144000Y-89700000D02*
X159700000Y-89700000D01*
X108587500Y-68162500D02*
X109250000Y-67500000D01*
D32*
X112060400Y-79500000D02*
X112293436Y-79266964D01*
X139540000Y-86460000D02*
X140250000Y-85750000D01*
X139540000Y-79790000D02*
X140000000Y-80250000D01*
D33*
X118125000Y-70250000D02*
X119500000Y-70250000D01*
D32*
X140810000Y-78250000D02*
X140810000Y-79440000D01*
D33*
X103500000Y-68200000D02*
X105712500Y-68200000D01*
D32*
X142080000Y-78250000D02*
X142080000Y-79830000D01*
D33*
X160144000Y-85500000D02*
X160000000Y-85500000D01*
D32*
X140810000Y-87674000D02*
X140810000Y-86310000D01*
D33*
X156025000Y-62375000D02*
X155375000Y-62375000D01*
X160144000Y-81300000D02*
X159700000Y-81300000D01*
X119500000Y-70250000D02*
X120227500Y-70250000D01*
D32*
%TO.N,/usb_shield_gnd*%
X105750000Y-64050000D02*
X108000000Y-61800000D01*
X105750000Y-66337500D02*
X105750000Y-64050000D01*
X103500000Y-66300000D02*
X105712500Y-66300000D01*
X105712500Y-66300000D02*
X105750000Y-66337500D01*
X108000000Y-61800000D02*
X121140000Y-61800000D01*
%TO.N,Net-(R1-Pad1)*%
X105750000Y-93250000D02*
X106500000Y-93250000D01*
X106500000Y-93250000D02*
X108500000Y-95250000D01*
%TO.N,+3V3*%
X110587500Y-80500000D02*
X110000000Y-80500000D01*
X115000000Y-83912500D02*
X115000000Y-85250000D01*
X120250000Y-80500000D02*
X121250000Y-79500000D01*
X109750000Y-80500000D02*
X109500000Y-80750000D01*
D33*
X108250000Y-83087500D02*
X108250000Y-82000000D01*
X108250000Y-82000000D02*
X109500000Y-80750000D01*
D32*
X111087500Y-80000000D02*
X110587500Y-80500000D01*
X112162500Y-75250000D02*
X111500000Y-75250000D01*
D33*
X153525000Y-62375000D02*
X153525000Y-63325000D01*
D32*
X121250000Y-79500000D02*
X121250000Y-78500000D01*
D33*
X130400000Y-62375000D02*
X130400000Y-63325000D01*
D32*
X121250000Y-78500000D02*
X121500000Y-78250000D01*
X112500000Y-75587500D02*
X112162500Y-75250000D01*
X115000000Y-85250000D02*
X115000000Y-85750000D01*
X119412500Y-80500000D02*
X120250000Y-80500000D01*
X110000000Y-80500000D02*
X109750000Y-80500000D01*
D33*
X158025000Y-63325000D02*
X158025000Y-62375000D01*
D32*
X111087500Y-80500000D02*
X110000000Y-80500000D01*
%TO.N,/PumpCtrl_5v*%
X125525000Y-56260000D02*
X126380000Y-55405000D01*
X125525000Y-61425000D02*
X125525000Y-56260000D01*
%TO.N,/PumpCtrl_3v3*%
X128575000Y-61425000D02*
X128925000Y-61775000D01*
X116500000Y-78642590D02*
X116500000Y-83912500D01*
X128925000Y-66325000D02*
X126000000Y-69250000D01*
X128925000Y-66217590D02*
X128925000Y-66325000D01*
X123750000Y-71500000D02*
X123642590Y-71500000D01*
X123642590Y-71500000D02*
X116500000Y-78642590D01*
X128025000Y-61425000D02*
X128575000Y-61425000D01*
X128925000Y-61775000D02*
X128925000Y-66217590D01*
%TO.N,/FanCtrl_3v3*%
X140600000Y-64250000D02*
X140925000Y-63925000D01*
X140925000Y-61775000D02*
X140575000Y-61425000D01*
X117000000Y-84682410D02*
X117000000Y-83912500D01*
X117267590Y-84950000D02*
X117000000Y-84682410D01*
X123000000Y-83400000D02*
X121450000Y-84950000D01*
X123000000Y-81500000D02*
X123000000Y-83400000D01*
X140575000Y-61425000D02*
X140025000Y-61425000D01*
X140925000Y-63925000D02*
X140925000Y-61775000D01*
X121450000Y-84950000D02*
X117267590Y-84950000D01*
X133700735Y-68700735D02*
X133799265Y-68700735D01*
X133799265Y-68700735D02*
X138250000Y-64250000D01*
X123000000Y-79250000D02*
X127000000Y-75250000D01*
X138250000Y-64250000D02*
X140600000Y-64250000D01*
%TO.N,/ValveCtrl1_5v*%
X145890000Y-77607500D02*
X145890000Y-78250000D01*
X141982500Y-73700000D02*
X145890000Y-77607500D01*
X141250000Y-73700000D02*
X141982500Y-73700000D01*
%TO.N,/ValveCtrl1_3v3*%
X115000000Y-77684314D02*
X115250000Y-77934314D01*
X115250000Y-80400000D02*
X115350000Y-80500000D01*
X115250000Y-77934314D02*
X115250000Y-79250000D01*
X125000000Y-86500000D02*
X135500000Y-76000000D01*
X138750000Y-75000000D02*
X138750000Y-73700000D01*
X115000000Y-75587500D02*
X115000000Y-77684314D01*
X137750000Y-76000000D02*
X138750000Y-75000000D01*
X115250000Y-79250000D02*
X115250000Y-80400000D01*
X122000000Y-86500000D02*
X125000000Y-86500000D01*
%TO.N,/ValveCtrl2_5v*%
X136750000Y-73700000D02*
X136750000Y-78000000D01*
X136750000Y-78000000D02*
X137000000Y-78250000D01*
%TO.N,/ValveCtrl2_3v3*%
X114500000Y-75587500D02*
X114500000Y-77750000D01*
X133265686Y-73700000D02*
X134250000Y-73700000D01*
X119715686Y-87250000D02*
X133265686Y-73700000D01*
X114500000Y-77750000D02*
X114750000Y-78000000D01*
X114750000Y-81000000D02*
X115750000Y-82000000D01*
X114750000Y-78000000D02*
X114750000Y-81000000D01*
X117250000Y-87250000D02*
X119715686Y-87250000D01*
%TO.N,/PumpSense_3v3*%
X120355603Y-76394397D02*
X124250000Y-72500000D01*
X118175000Y-78482744D02*
X117250000Y-79407744D01*
X129600000Y-61425000D02*
X130400000Y-61425000D01*
X120300329Y-76449671D02*
X120300329Y-76394397D01*
X129500000Y-67250000D02*
X129500000Y-61525000D01*
X120300329Y-76394397D02*
X120355603Y-76394397D01*
X117500000Y-83142590D02*
X117500000Y-83912500D01*
X129500000Y-61525000D02*
X129600000Y-61425000D01*
X117250000Y-82892590D02*
X117500000Y-83142590D01*
X117250000Y-79407744D02*
X117250000Y-82892590D01*
X127250000Y-69500000D02*
X129500000Y-67250000D01*
%TO.N,/PumpSense_5v*%
X128920000Y-56150786D02*
X132900000Y-60130786D01*
X128920000Y-55405000D02*
X128920000Y-56150786D01*
X132900000Y-60130786D02*
X132900000Y-61425000D01*
%TO.N,/FanSense_5v*%
X144750000Y-61425000D02*
X144750000Y-58330000D01*
X144750000Y-58330000D02*
X141920000Y-55500000D01*
%TO.N,/FanSense_3v3*%
X118000000Y-83912500D02*
X118000735Y-83913235D01*
X134500000Y-69000000D02*
X134500000Y-68750000D01*
X141500000Y-65250000D02*
X142500000Y-64250000D01*
X134500000Y-68750000D02*
X138000000Y-65250000D01*
X142800000Y-61425000D02*
X142250000Y-61425000D01*
X118000735Y-83913235D02*
X119269175Y-83913235D01*
X138000000Y-65250000D02*
X141500000Y-65250000D01*
X119586765Y-83913235D02*
X128000000Y-75500000D01*
X142500000Y-64250000D02*
X142825000Y-64250000D01*
X119269175Y-83913235D02*
X119586765Y-83913235D01*
X143150000Y-63925000D02*
X143150000Y-61775000D01*
X142825000Y-64250000D02*
X143150000Y-63925000D01*
X143150000Y-61775000D02*
X142800000Y-61425000D01*
%TO.N,/ValveSense1_5v*%
X156025000Y-61425000D02*
X156025000Y-56935000D01*
X156025000Y-56935000D02*
X157460000Y-55500000D01*
%TO.N,/ValveSense1_3v3*%
X142900000Y-69500000D02*
X145400000Y-67000000D01*
X137000000Y-69500000D02*
X142900000Y-69500000D01*
X150750000Y-62750000D02*
X150750000Y-61750000D01*
X151075000Y-61425000D02*
X153525000Y-61425000D01*
X136750000Y-69250000D02*
X137000000Y-69500000D01*
X124500000Y-83750000D02*
X126400000Y-83750000D01*
X120750000Y-81500000D02*
X121500000Y-80750000D01*
X150750000Y-61750000D02*
X151075000Y-61425000D01*
X126400000Y-83750000D02*
X135500000Y-74650000D01*
X119412500Y-81500000D02*
X120750000Y-81500000D01*
%TO.N,/ValveSense2_5v*%
X160000000Y-60900000D02*
X160525000Y-61425000D01*
X160000000Y-55500000D02*
X160000000Y-60900000D01*
%TO.N,/ValveSense2_3v3*%
X138750000Y-66000000D02*
X145400000Y-66000000D01*
X147750000Y-66000000D02*
X154850000Y-66000000D01*
X154850000Y-66000000D02*
X157125000Y-63725000D01*
X120684314Y-81000000D02*
X120900000Y-80784314D01*
X120900000Y-80501471D02*
X121200735Y-80200735D01*
X121900000Y-79100000D02*
X123250000Y-77750000D01*
X157125000Y-61525000D02*
X157225000Y-61425000D01*
X157125000Y-63725000D02*
X157125000Y-61525000D01*
X121200735Y-80200735D02*
X121900000Y-79501470D01*
X157225000Y-61425000D02*
X158025000Y-61425000D01*
X123250000Y-77932410D02*
X123250000Y-77750000D01*
X135500000Y-69250000D02*
X138750000Y-66000000D01*
X120900000Y-80784314D02*
X120900000Y-80501471D01*
X121900000Y-79501470D02*
X121900000Y-79100000D01*
X119412500Y-81000000D02*
X120684314Y-81000000D01*
X121200735Y-80200735D02*
X121251471Y-80150000D01*
D33*
%TO.N,/USB_VBUS*%
X119750000Y-73750000D02*
X119750000Y-73147500D01*
X122250000Y-71000000D02*
X120852500Y-72397500D01*
X120852500Y-72397500D02*
X120500000Y-72397500D01*
X111125000Y-73375000D02*
X111500000Y-73750000D01*
X120500000Y-72397500D02*
X118540000Y-72397500D01*
X122250000Y-68690000D02*
X122250000Y-71000000D01*
X119750000Y-73147500D02*
X120500000Y-72397500D01*
X118070000Y-64510000D02*
X122250000Y-68690000D01*
X118540000Y-72397500D02*
X118187500Y-72750000D01*
X111125000Y-72500000D02*
X111125000Y-73375000D01*
D32*
%TO.N,/ValveOutput2_12v*%
X143500000Y-74000000D02*
X144000000Y-73500000D01*
X138270000Y-78250000D02*
X138270000Y-77637500D01*
X138270000Y-77637500D02*
X141124485Y-74783015D01*
X144000000Y-73500000D02*
X146000000Y-73500000D01*
X150750000Y-59000000D02*
X152380000Y-57370000D01*
X146000000Y-63750000D02*
X147250000Y-62500000D01*
X143250000Y-74000000D02*
X143500000Y-74000000D01*
X152380000Y-57370000D02*
X152380000Y-55500000D01*
X141124485Y-74783015D02*
X142216985Y-74783015D01*
X146000000Y-69500000D02*
X146000000Y-63750000D01*
%TO.N,/ValveOutput1_12v*%
X144620000Y-77186030D02*
X144216985Y-76783015D01*
X153920000Y-57080000D02*
X153920000Y-56500000D01*
X147000000Y-69500000D02*
X147000000Y-64165786D01*
X144620000Y-78250000D02*
X144620000Y-77186030D01*
X146750000Y-74750000D02*
X147000000Y-74500000D01*
X147000000Y-64165786D02*
X147000000Y-64000000D01*
X147000000Y-74250000D02*
X147000000Y-73500000D01*
X145065515Y-75934485D02*
X146250000Y-74750000D01*
X147000000Y-64000000D02*
X148000000Y-63000000D01*
X151500000Y-59500000D02*
X153920000Y-57080000D01*
X147000000Y-74500000D02*
X147000000Y-74250000D01*
X146250000Y-74750000D02*
X146750000Y-74750000D01*
X153920000Y-56500000D02*
X154920000Y-55500000D01*
D33*
%TO.N,+12V*%
X164344000Y-89700000D02*
X164344000Y-85500000D01*
X164344000Y-81300000D02*
X164344000Y-85500000D01*
D32*
%TO.N,/FanCtrl_5v*%
X137525000Y-57355000D02*
X139380000Y-55500000D01*
X137525000Y-61425000D02*
X137525000Y-57355000D01*
%TD*%
%TA.AperFunction,Conductor*%
%TO.N,+3V3*%
G36*
X163187539Y-51020185D02*
G01*
X163233294Y-51072989D01*
X163244500Y-51124500D01*
X163244500Y-62450500D01*
X163224815Y-62517539D01*
X163172011Y-62563294D01*
X163120500Y-62574500D01*
X161749500Y-62574500D01*
X161682461Y-62554815D01*
X161636706Y-62502011D01*
X161625500Y-62450500D01*
X161625499Y-62027129D01*
X161625498Y-62027123D01*
X161624378Y-62016705D01*
X161619091Y-61967517D01*
X161610070Y-61943333D01*
X161605085Y-61873644D01*
X161610066Y-61856677D01*
X161619091Y-61832483D01*
X161625500Y-61772873D01*
X161625499Y-61077128D01*
X161619091Y-61017517D01*
X161604746Y-60979057D01*
X161568797Y-60882671D01*
X161568793Y-60882664D01*
X161482547Y-60767455D01*
X161482544Y-60767452D01*
X161367335Y-60681206D01*
X161367328Y-60681202D01*
X161232482Y-60630908D01*
X161232483Y-60630908D01*
X161172883Y-60624501D01*
X161172881Y-60624500D01*
X161172873Y-60624500D01*
X161172865Y-60624500D01*
X160724500Y-60624500D01*
X160657461Y-60604815D01*
X160611706Y-60552011D01*
X160600500Y-60500500D01*
X160600500Y-56889499D01*
X160620185Y-56822460D01*
X160672989Y-56776705D01*
X160724500Y-56765499D01*
X160812871Y-56765499D01*
X160812872Y-56765499D01*
X160872483Y-56759091D01*
X161007331Y-56708796D01*
X161122546Y-56622546D01*
X161208796Y-56507331D01*
X161259091Y-56372483D01*
X161265500Y-56312873D01*
X161265499Y-54687128D01*
X161259091Y-54627517D01*
X161251860Y-54608131D01*
X161208797Y-54492671D01*
X161208793Y-54492664D01*
X161122547Y-54377455D01*
X161122544Y-54377452D01*
X161007335Y-54291206D01*
X161007328Y-54291202D01*
X160872482Y-54240908D01*
X160872483Y-54240908D01*
X160812883Y-54234501D01*
X160812881Y-54234500D01*
X160812873Y-54234500D01*
X160812864Y-54234500D01*
X159187129Y-54234500D01*
X159187123Y-54234501D01*
X159127516Y-54240908D01*
X158992671Y-54291202D01*
X158992664Y-54291206D01*
X158877455Y-54377452D01*
X158877452Y-54377455D01*
X158791206Y-54492664D01*
X158791202Y-54492671D01*
X158740908Y-54627517D01*
X158735346Y-54679255D01*
X158734501Y-54687123D01*
X158734500Y-54687135D01*
X158734500Y-54703131D01*
X158714815Y-54770170D01*
X158662011Y-54815925D01*
X158592853Y-54825869D01*
X158529297Y-54796844D01*
X158508928Y-54774258D01*
X158440822Y-54676993D01*
X158283007Y-54519178D01*
X158100186Y-54391165D01*
X157897913Y-54296844D01*
X157897909Y-54296843D01*
X157897905Y-54296841D01*
X157682339Y-54239081D01*
X157682329Y-54239079D01*
X157460001Y-54219628D01*
X157459999Y-54219628D01*
X157237670Y-54239079D01*
X157237660Y-54239081D01*
X157022094Y-54296841D01*
X157022087Y-54296843D01*
X157022087Y-54296844D01*
X156819814Y-54391165D01*
X156636993Y-54519178D01*
X156636991Y-54519179D01*
X156636988Y-54519182D01*
X156479182Y-54676988D01*
X156479179Y-54676991D01*
X156479178Y-54676993D01*
X156441454Y-54730869D01*
X156351164Y-54859814D01*
X156302382Y-54964430D01*
X156256210Y-55016869D01*
X156189016Y-55036021D01*
X156122135Y-55015805D01*
X156077618Y-54964430D01*
X156028835Y-54859814D01*
X156005066Y-54825869D01*
X155900822Y-54676993D01*
X155743007Y-54519178D01*
X155560186Y-54391165D01*
X155357913Y-54296844D01*
X155357909Y-54296843D01*
X155357905Y-54296841D01*
X155142339Y-54239081D01*
X155142329Y-54239079D01*
X154920001Y-54219628D01*
X154919999Y-54219628D01*
X154697670Y-54239079D01*
X154697660Y-54239081D01*
X154482094Y-54296841D01*
X154482087Y-54296843D01*
X154482087Y-54296844D01*
X154279814Y-54391165D01*
X154096993Y-54519178D01*
X154096991Y-54519179D01*
X154096988Y-54519182D01*
X153939182Y-54676988D01*
X153939179Y-54676991D01*
X153939178Y-54676993D01*
X153901454Y-54730869D01*
X153811164Y-54859814D01*
X153762382Y-54964430D01*
X153716210Y-55016869D01*
X153649016Y-55036021D01*
X153582135Y-55015805D01*
X153537618Y-54964430D01*
X153488835Y-54859814D01*
X153465066Y-54825869D01*
X153360822Y-54676993D01*
X153203007Y-54519178D01*
X153020186Y-54391165D01*
X152817913Y-54296844D01*
X152817909Y-54296843D01*
X152817905Y-54296841D01*
X152602339Y-54239081D01*
X152602329Y-54239079D01*
X152380001Y-54219628D01*
X152379999Y-54219628D01*
X152157670Y-54239079D01*
X152157660Y-54239081D01*
X151942094Y-54296841D01*
X151942087Y-54296843D01*
X151942087Y-54296844D01*
X151739814Y-54391165D01*
X151556993Y-54519178D01*
X151556991Y-54519179D01*
X151556988Y-54519182D01*
X151399182Y-54676988D01*
X151399179Y-54676991D01*
X151399178Y-54676993D01*
X151271165Y-54859814D01*
X151192753Y-55027971D01*
X151176845Y-55062085D01*
X151176841Y-55062094D01*
X151119081Y-55277660D01*
X151119079Y-55277670D01*
X151099628Y-55499999D01*
X151099628Y-55500000D01*
X151119079Y-55722329D01*
X151119081Y-55722339D01*
X151176841Y-55937905D01*
X151176843Y-55937909D01*
X151176844Y-55937913D01*
X151271165Y-56140186D01*
X151399178Y-56323007D01*
X151556993Y-56480822D01*
X151726626Y-56599600D01*
X151770248Y-56654175D01*
X151779500Y-56701173D01*
X151779500Y-57069902D01*
X151759815Y-57136941D01*
X151743181Y-57157583D01*
X150731465Y-58169298D01*
X150670142Y-58202783D01*
X150657668Y-58204837D01*
X150570750Y-58214630D01*
X150400478Y-58274210D01*
X150247737Y-58370184D01*
X150120184Y-58497737D01*
X150024211Y-58650476D01*
X149964631Y-58820745D01*
X149964630Y-58820750D01*
X149944435Y-58999996D01*
X149944435Y-59000003D01*
X149964630Y-59179249D01*
X149964631Y-59179254D01*
X150024211Y-59349523D01*
X150120184Y-59502262D01*
X150247738Y-59629816D01*
X150400478Y-59725789D01*
X150504163Y-59762070D01*
X150570745Y-59785368D01*
X150570750Y-59785369D01*
X150629219Y-59791956D01*
X150686990Y-59798465D01*
X150751404Y-59825531D01*
X150778101Y-59855713D01*
X150790616Y-59875631D01*
X150870184Y-60002262D01*
X150997738Y-60129816D01*
X151150478Y-60225789D01*
X151317561Y-60284254D01*
X151320745Y-60285368D01*
X151320750Y-60285369D01*
X151499996Y-60305565D01*
X151500000Y-60305565D01*
X151500004Y-60305565D01*
X151679249Y-60285369D01*
X151679252Y-60285368D01*
X151679255Y-60285368D01*
X151849522Y-60225789D01*
X152002262Y-60129816D01*
X152129816Y-60002262D01*
X152225789Y-59849522D01*
X152285368Y-59679255D01*
X152295161Y-59592329D01*
X152322226Y-59527918D01*
X152330690Y-59518543D01*
X153885528Y-57963705D01*
X153946849Y-57930222D01*
X154016541Y-57935206D01*
X154072474Y-57977078D01*
X154087768Y-58003935D01*
X154121985Y-58086544D01*
X154121990Y-58086553D01*
X154220535Y-58234034D01*
X154220538Y-58234038D01*
X154345961Y-58359461D01*
X154345965Y-58359464D01*
X154493446Y-58458009D01*
X154493459Y-58458016D01*
X154616363Y-58508923D01*
X154657334Y-58525894D01*
X154657336Y-58525894D01*
X154657341Y-58525896D01*
X154831304Y-58560499D01*
X154831307Y-58560500D01*
X154831309Y-58560500D01*
X155008693Y-58560500D01*
X155008694Y-58560499D01*
X155099605Y-58542416D01*
X155182658Y-58525896D01*
X155182661Y-58525894D01*
X155182666Y-58525894D01*
X155253048Y-58496740D01*
X155322517Y-58489272D01*
X155384996Y-58520547D01*
X155420648Y-58580636D01*
X155424500Y-58611302D01*
X155424500Y-60508023D01*
X155404815Y-60575062D01*
X155352011Y-60620817D01*
X155324865Y-60628266D01*
X155325068Y-60629124D01*
X155317520Y-60630907D01*
X155182671Y-60681202D01*
X155182664Y-60681206D01*
X155067455Y-60767452D01*
X155067452Y-60767455D01*
X154981206Y-60882664D01*
X154981202Y-60882671D01*
X154930910Y-61017513D01*
X154930909Y-61017517D01*
X154924500Y-61077127D01*
X154924500Y-61077134D01*
X154924500Y-61077135D01*
X154924500Y-61712768D01*
X154904815Y-61779807D01*
X154888181Y-61800449D01*
X154837180Y-61851450D01*
X154775857Y-61884935D01*
X154706165Y-61879951D01*
X154650232Y-61838079D01*
X154625815Y-61772615D01*
X154625499Y-61763796D01*
X154625499Y-61077128D01*
X154619091Y-61017517D01*
X154604746Y-60979057D01*
X154568797Y-60882671D01*
X154568793Y-60882664D01*
X154482547Y-60767455D01*
X154482544Y-60767452D01*
X154367335Y-60681206D01*
X154367328Y-60681202D01*
X154232482Y-60630908D01*
X154232483Y-60630908D01*
X154172883Y-60624501D01*
X154172881Y-60624500D01*
X154172873Y-60624500D01*
X154172864Y-60624500D01*
X152877129Y-60624500D01*
X152877123Y-60624501D01*
X152817516Y-60630908D01*
X152682671Y-60681202D01*
X152682664Y-60681206D01*
X152567457Y-60767451D01*
X152567451Y-60767457D01*
X152561948Y-60774809D01*
X152506015Y-60816681D01*
X152462680Y-60824500D01*
X150995940Y-60824500D01*
X150955019Y-60835464D01*
X150955019Y-60835465D01*
X150922599Y-60844152D01*
X150843214Y-60865423D01*
X150843209Y-60865426D01*
X150706290Y-60944475D01*
X150706282Y-60944481D01*
X150269481Y-61381282D01*
X150269479Y-61381285D01*
X150224279Y-61459576D01*
X150224277Y-61459578D01*
X150190425Y-61518209D01*
X150190424Y-61518210D01*
X150190423Y-61518215D01*
X150149499Y-61670943D01*
X150149499Y-61670945D01*
X150149499Y-61839046D01*
X150149500Y-61839059D01*
X150149500Y-62167587D01*
X150129815Y-62234626D01*
X150122450Y-62244896D01*
X150120186Y-62247734D01*
X150024211Y-62400476D01*
X149964631Y-62570745D01*
X149964630Y-62570750D01*
X149944435Y-62749996D01*
X149944435Y-62750003D01*
X149964630Y-62929249D01*
X149964631Y-62929254D01*
X150024211Y-63099523D01*
X150102655Y-63224365D01*
X150120184Y-63252262D01*
X150247738Y-63379816D01*
X150283763Y-63402452D01*
X150375499Y-63460094D01*
X150400478Y-63475789D01*
X150539958Y-63524595D01*
X150570745Y-63535368D01*
X150570750Y-63535369D01*
X150749996Y-63555565D01*
X150750000Y-63555565D01*
X150750004Y-63555565D01*
X150929249Y-63535369D01*
X150929252Y-63535368D01*
X150929255Y-63535368D01*
X151099522Y-63475789D01*
X151252262Y-63379816D01*
X151379816Y-63252262D01*
X151475789Y-63099522D01*
X151535368Y-62929255D01*
X151536678Y-62917627D01*
X151555565Y-62750003D01*
X151555565Y-62749996D01*
X151535369Y-62570750D01*
X151535368Y-62570745D01*
X151475907Y-62400816D01*
X151475789Y-62400478D01*
X151379816Y-62247738D01*
X151379814Y-62247736D01*
X151379813Y-62247734D01*
X151377550Y-62244896D01*
X151376659Y-62242715D01*
X151376111Y-62241842D01*
X151376264Y-62241745D01*
X151351144Y-62180209D01*
X151350500Y-62167587D01*
X151350500Y-62149500D01*
X151370185Y-62082461D01*
X151422989Y-62036706D01*
X151474500Y-62025500D01*
X152301000Y-62025500D01*
X152368039Y-62045185D01*
X152413794Y-62097989D01*
X152425000Y-62149500D01*
X152425000Y-62722844D01*
X152431401Y-62782372D01*
X152431403Y-62782379D01*
X152440462Y-62806669D01*
X152445445Y-62876361D01*
X152440462Y-62893331D01*
X152431403Y-62917620D01*
X152431401Y-62917627D01*
X152425000Y-62977155D01*
X152425000Y-63672844D01*
X152431401Y-63732372D01*
X152431402Y-63732376D01*
X152481647Y-63867088D01*
X152481648Y-63867089D01*
X152544884Y-63951562D01*
X153437319Y-63059128D01*
X153498642Y-63025643D01*
X153568334Y-63030627D01*
X153612681Y-63059128D01*
X154505115Y-63951562D01*
X154513470Y-63950964D01*
X154551412Y-63922561D01*
X154621104Y-63917577D01*
X154682427Y-63951061D01*
X154715912Y-64012384D01*
X154715640Y-64066324D01*
X154714631Y-64070745D01*
X154694435Y-64249996D01*
X154694435Y-64250003D01*
X154714630Y-64429249D01*
X154714631Y-64429254D01*
X154774211Y-64599523D01*
X154870184Y-64752262D01*
X154971662Y-64853740D01*
X155005147Y-64915063D01*
X155000163Y-64984755D01*
X154971662Y-65029102D01*
X154637584Y-65363181D01*
X154576261Y-65396666D01*
X154549903Y-65399500D01*
X148332412Y-65399500D01*
X148265373Y-65379815D01*
X148255097Y-65372445D01*
X148252262Y-65370184D01*
X148099523Y-65274211D01*
X147929254Y-65214631D01*
X147929249Y-65214630D01*
X147750004Y-65194435D01*
X147750001Y-65194435D01*
X147750000Y-65194435D01*
X147745975Y-65194888D01*
X147738380Y-65195744D01*
X147669558Y-65183687D01*
X147618180Y-65136336D01*
X147600500Y-65072523D01*
X147600500Y-64300096D01*
X147620185Y-64233057D01*
X147636815Y-64212419D01*
X147724235Y-64124999D01*
X153078553Y-64124999D01*
X153078554Y-64125000D01*
X153971446Y-64125000D01*
X153971446Y-64124999D01*
X153525001Y-63678553D01*
X153524999Y-63678553D01*
X153078553Y-64124999D01*
X147724235Y-64124999D01*
X148018535Y-63830698D01*
X148079856Y-63797215D01*
X148092311Y-63795163D01*
X148179255Y-63785368D01*
X148349522Y-63725789D01*
X148502262Y-63629816D01*
X148629816Y-63502262D01*
X148725789Y-63349522D01*
X148785368Y-63179255D01*
X148785472Y-63178333D01*
X148805565Y-63000003D01*
X148805565Y-62999996D01*
X148785369Y-62820750D01*
X148785368Y-62820745D01*
X148771980Y-62782484D01*
X148725789Y-62650478D01*
X148696171Y-62603342D01*
X148678049Y-62574500D01*
X148629816Y-62497738D01*
X148502262Y-62370184D01*
X148494071Y-62365037D01*
X148349523Y-62274211D01*
X148179254Y-62214631D01*
X148179250Y-62214630D01*
X148063008Y-62201533D01*
X147998594Y-62174466D01*
X147971898Y-62144285D01*
X147904301Y-62036706D01*
X147879816Y-61997738D01*
X147752262Y-61870184D01*
X147599523Y-61774211D01*
X147429254Y-61714631D01*
X147429249Y-61714630D01*
X147250004Y-61694435D01*
X147249996Y-61694435D01*
X147070750Y-61714630D01*
X147070742Y-61714632D01*
X146900459Y-61774217D01*
X146830681Y-61777778D01*
X146770053Y-61743049D01*
X146742463Y-61698129D01*
X146725789Y-61650478D01*
X146703277Y-61614650D01*
X146629816Y-61497738D01*
X146502262Y-61370184D01*
X146349523Y-61274211D01*
X146179254Y-61214631D01*
X146179249Y-61214630D01*
X146000004Y-61194435D01*
X146000002Y-61194435D01*
X146000000Y-61194435D01*
X145991662Y-61195374D01*
X145988310Y-61195752D01*
X145919489Y-61183695D01*
X145868111Y-61136345D01*
X145850994Y-61080413D01*
X145850854Y-61080429D01*
X145850775Y-61079697D01*
X145850606Y-61079144D01*
X145850499Y-61077149D01*
X145850499Y-61077128D01*
X145844091Y-61017517D01*
X145829746Y-60979057D01*
X145793797Y-60882671D01*
X145793793Y-60882664D01*
X145707547Y-60767455D01*
X145707544Y-60767452D01*
X145592335Y-60681206D01*
X145592328Y-60681202D01*
X145457482Y-60630908D01*
X145449938Y-60629126D01*
X145450474Y-60626853D01*
X145396688Y-60604571D01*
X145356843Y-60547177D01*
X145350500Y-60508024D01*
X145350500Y-58250945D01*
X145350500Y-58250943D01*
X145309577Y-58098216D01*
X145309573Y-58098209D01*
X145230524Y-57961290D01*
X145230521Y-57961286D01*
X145230520Y-57961284D01*
X145118716Y-57849480D01*
X145118715Y-57849479D01*
X145114385Y-57845149D01*
X145114374Y-57845139D01*
X144251161Y-56981926D01*
X144217676Y-56920603D01*
X144222660Y-56850911D01*
X144264532Y-56794978D01*
X144329996Y-56770561D01*
X144349643Y-56770716D01*
X144442966Y-56778881D01*
X144459999Y-56780372D01*
X144460000Y-56780372D01*
X144460001Y-56780372D01*
X144501913Y-56776705D01*
X144682334Y-56760920D01*
X144897913Y-56703156D01*
X145100186Y-56608835D01*
X145283007Y-56480822D01*
X145440822Y-56323007D01*
X145508928Y-56225741D01*
X145563502Y-56182119D01*
X145633000Y-56174925D01*
X145695355Y-56206448D01*
X145730769Y-56266677D01*
X145734500Y-56296861D01*
X145734500Y-56312866D01*
X145734501Y-56312876D01*
X145740908Y-56372483D01*
X145791202Y-56507328D01*
X145791206Y-56507335D01*
X145877452Y-56622544D01*
X145877455Y-56622547D01*
X145992664Y-56708793D01*
X145992671Y-56708797D01*
X146127517Y-56759091D01*
X146127516Y-56759091D01*
X146133860Y-56759773D01*
X146187127Y-56765500D01*
X147812872Y-56765499D01*
X147872483Y-56759091D01*
X148007331Y-56708796D01*
X148122546Y-56622546D01*
X148208796Y-56507331D01*
X148259091Y-56372483D01*
X148265500Y-56312873D01*
X148265499Y-54687128D01*
X148259091Y-54627517D01*
X148251860Y-54608131D01*
X148208797Y-54492671D01*
X148208793Y-54492664D01*
X148122547Y-54377455D01*
X148122544Y-54377452D01*
X148007335Y-54291206D01*
X148007328Y-54291202D01*
X147872482Y-54240908D01*
X147872483Y-54240908D01*
X147812883Y-54234501D01*
X147812881Y-54234500D01*
X147812873Y-54234500D01*
X147812864Y-54234500D01*
X146187129Y-54234500D01*
X146187123Y-54234501D01*
X146127516Y-54240908D01*
X145992671Y-54291202D01*
X145992664Y-54291206D01*
X145877455Y-54377452D01*
X145877452Y-54377455D01*
X145791206Y-54492664D01*
X145791202Y-54492671D01*
X145740908Y-54627517D01*
X145735346Y-54679255D01*
X145734501Y-54687123D01*
X145734500Y-54687135D01*
X145734500Y-54703131D01*
X145714815Y-54770170D01*
X145662011Y-54815925D01*
X145592853Y-54825869D01*
X145529297Y-54796844D01*
X145508928Y-54774258D01*
X145440822Y-54676993D01*
X145283007Y-54519178D01*
X145100186Y-54391165D01*
X144897913Y-54296844D01*
X144897909Y-54296843D01*
X144897905Y-54296841D01*
X144682339Y-54239081D01*
X144682329Y-54239079D01*
X144460001Y-54219628D01*
X144459999Y-54219628D01*
X144237670Y-54239079D01*
X144237660Y-54239081D01*
X144022094Y-54296841D01*
X144022087Y-54296843D01*
X144022087Y-54296844D01*
X143819814Y-54391165D01*
X143636993Y-54519178D01*
X143636991Y-54519179D01*
X143636988Y-54519182D01*
X143479182Y-54676988D01*
X143479179Y-54676991D01*
X143479178Y-54676993D01*
X143441454Y-54730869D01*
X143351164Y-54859814D01*
X143302382Y-54964430D01*
X143256210Y-55016869D01*
X143189016Y-55036021D01*
X143122135Y-55015805D01*
X143077618Y-54964430D01*
X143028835Y-54859814D01*
X143005066Y-54825869D01*
X142900822Y-54676993D01*
X142743007Y-54519178D01*
X142560186Y-54391165D01*
X142357913Y-54296844D01*
X142357909Y-54296843D01*
X142357905Y-54296841D01*
X142142339Y-54239081D01*
X142142329Y-54239079D01*
X141920001Y-54219628D01*
X141919999Y-54219628D01*
X141697670Y-54239079D01*
X141697660Y-54239081D01*
X141482094Y-54296841D01*
X141482087Y-54296843D01*
X141482087Y-54296844D01*
X141279814Y-54391165D01*
X141096993Y-54519178D01*
X141096991Y-54519179D01*
X141096988Y-54519182D01*
X140939182Y-54676988D01*
X140939179Y-54676991D01*
X140939178Y-54676993D01*
X140901454Y-54730869D01*
X140811164Y-54859814D01*
X140762382Y-54964430D01*
X140716210Y-55016869D01*
X140649016Y-55036021D01*
X140582135Y-55015805D01*
X140537618Y-54964430D01*
X140488835Y-54859814D01*
X140465066Y-54825869D01*
X140360822Y-54676993D01*
X140203007Y-54519178D01*
X140020186Y-54391165D01*
X139817913Y-54296844D01*
X139817909Y-54296843D01*
X139817905Y-54296841D01*
X139602339Y-54239081D01*
X139602329Y-54239079D01*
X139380001Y-54219628D01*
X139379999Y-54219628D01*
X139157670Y-54239079D01*
X139157660Y-54239081D01*
X138942094Y-54296841D01*
X138942087Y-54296843D01*
X138942087Y-54296844D01*
X138739814Y-54391165D01*
X138556993Y-54519178D01*
X138556991Y-54519179D01*
X138556988Y-54519182D01*
X138399182Y-54676988D01*
X138399179Y-54676991D01*
X138399178Y-54676993D01*
X138271165Y-54859814D01*
X138192753Y-55027971D01*
X138176845Y-55062085D01*
X138176841Y-55062094D01*
X138119081Y-55277660D01*
X138119079Y-55277670D01*
X138099628Y-55499999D01*
X138099628Y-55500000D01*
X138119079Y-55722329D01*
X138119081Y-55722339D01*
X138140565Y-55802518D01*
X138138902Y-55872368D01*
X138108471Y-55922292D01*
X137156286Y-56874478D01*
X137044481Y-56986282D01*
X137044475Y-56986290D01*
X137002165Y-57059575D01*
X137002165Y-57059577D01*
X136965423Y-57123214D01*
X136956214Y-57157583D01*
X136924499Y-57275943D01*
X136924499Y-57275945D01*
X136924499Y-57444046D01*
X136924500Y-57444059D01*
X136924500Y-60508023D01*
X136904815Y-60575062D01*
X136852011Y-60620817D01*
X136824865Y-60628266D01*
X136825068Y-60629124D01*
X136817520Y-60630907D01*
X136682671Y-60681202D01*
X136682664Y-60681206D01*
X136567455Y-60767452D01*
X136567452Y-60767455D01*
X136481206Y-60882664D01*
X136481202Y-60882671D01*
X136430910Y-61017513D01*
X136430909Y-61017517D01*
X136424500Y-61077127D01*
X136424500Y-61077134D01*
X136424500Y-61077135D01*
X136424500Y-61772870D01*
X136424501Y-61772876D01*
X136430909Y-61832484D01*
X136439929Y-61856670D01*
X136444911Y-61926361D01*
X136439929Y-61943330D01*
X136430910Y-61967512D01*
X136430909Y-61967515D01*
X136430909Y-61967517D01*
X136424500Y-62027127D01*
X136424500Y-62274211D01*
X136424501Y-62450500D01*
X136404817Y-62517539D01*
X136352013Y-62563294D01*
X136300501Y-62574500D01*
X136101080Y-62574500D01*
X135956092Y-62603340D01*
X135956082Y-62603343D01*
X135819511Y-62659912D01*
X135819498Y-62659919D01*
X135696584Y-62742048D01*
X135696580Y-62742051D01*
X134475451Y-63963181D01*
X134414128Y-63996666D01*
X134387770Y-63999500D01*
X134073094Y-63999500D01*
X134006055Y-63979815D01*
X133960300Y-63927011D01*
X133950356Y-63857853D01*
X133956912Y-63832167D01*
X133988401Y-63747738D01*
X133994091Y-63732483D01*
X134000500Y-63672873D01*
X134000499Y-63166427D01*
X134020183Y-63099389D01*
X134072987Y-63053634D01*
X134077050Y-63051866D01*
X134105489Y-63040087D01*
X134105491Y-63040085D01*
X134105495Y-63040084D01*
X134154729Y-63007186D01*
X134228416Y-62957952D01*
X134582951Y-62603416D01*
X134665084Y-62480495D01*
X134721658Y-62343913D01*
X134743397Y-62234626D01*
X134750500Y-62198920D01*
X134750500Y-62049972D01*
X134757458Y-62009017D01*
X134771979Y-61967518D01*
X134785368Y-61929255D01*
X134785694Y-61926361D01*
X134805565Y-61750003D01*
X134805565Y-61749996D01*
X134785369Y-61570750D01*
X134785368Y-61570745D01*
X134746469Y-61459578D01*
X134725789Y-61400478D01*
X134713727Y-61381282D01*
X134643476Y-61269478D01*
X134629816Y-61247738D01*
X134502262Y-61120184D01*
X134349523Y-61024211D01*
X134179254Y-60964631D01*
X134179249Y-60964630D01*
X134040105Y-60948953D01*
X133975691Y-60921887D01*
X133945153Y-60885155D01*
X133943792Y-60882662D01*
X133857547Y-60767455D01*
X133857544Y-60767452D01*
X133742335Y-60681206D01*
X133742328Y-60681202D01*
X133607482Y-60630908D01*
X133599938Y-60629126D01*
X133600474Y-60626853D01*
X133546688Y-60604571D01*
X133506843Y-60547177D01*
X133500500Y-60508024D01*
X133500500Y-60219845D01*
X133500501Y-60219832D01*
X133500501Y-60051731D01*
X133500501Y-60051729D01*
X133459577Y-59899001D01*
X133430639Y-59848881D01*
X133380520Y-59762070D01*
X133268716Y-59650266D01*
X133268715Y-59650265D01*
X133264385Y-59645935D01*
X133264374Y-59645925D01*
X129952005Y-56333556D01*
X129918520Y-56272233D01*
X129923504Y-56202541D01*
X129938112Y-56174751D01*
X129939306Y-56173046D01*
X130028835Y-56045186D01*
X130077618Y-55940569D01*
X130123790Y-55888130D01*
X130190983Y-55868978D01*
X130257865Y-55889193D01*
X130302382Y-55940570D01*
X130344563Y-56031029D01*
X130351165Y-56045186D01*
X130479178Y-56228007D01*
X130636993Y-56385822D01*
X130819814Y-56513835D01*
X131022087Y-56608156D01*
X131022093Y-56608157D01*
X131022094Y-56608158D01*
X131073980Y-56622060D01*
X131237666Y-56665920D01*
X131415533Y-56681481D01*
X131459999Y-56685372D01*
X131460000Y-56685372D01*
X131460001Y-56685372D01*
X131497055Y-56682130D01*
X131682334Y-56665920D01*
X131897913Y-56608156D01*
X132100186Y-56513835D01*
X132283007Y-56385822D01*
X132440822Y-56228007D01*
X132508928Y-56130741D01*
X132563502Y-56087119D01*
X132633000Y-56079925D01*
X132695355Y-56111448D01*
X132730769Y-56171677D01*
X132734500Y-56201861D01*
X132734500Y-56217866D01*
X132734501Y-56217876D01*
X132740908Y-56277483D01*
X132791202Y-56412328D01*
X132791206Y-56412335D01*
X132877452Y-56527544D01*
X132877455Y-56527547D01*
X132992664Y-56613793D01*
X132992671Y-56613797D01*
X133127517Y-56664091D01*
X133127516Y-56664091D01*
X133134444Y-56664835D01*
X133187127Y-56670500D01*
X134812872Y-56670499D01*
X134872483Y-56664091D01*
X135007331Y-56613796D01*
X135122546Y-56527546D01*
X135208796Y-56412331D01*
X135259091Y-56277483D01*
X135265500Y-56217873D01*
X135265499Y-54592128D01*
X135259091Y-54532517D01*
X135254117Y-54519182D01*
X135208797Y-54397671D01*
X135208793Y-54397664D01*
X135122547Y-54282455D01*
X135122544Y-54282452D01*
X135007335Y-54196206D01*
X135007328Y-54196202D01*
X134872482Y-54145908D01*
X134872483Y-54145908D01*
X134812883Y-54139501D01*
X134812881Y-54139500D01*
X134812873Y-54139500D01*
X134812864Y-54139500D01*
X133187129Y-54139500D01*
X133187123Y-54139501D01*
X133127516Y-54145908D01*
X132992671Y-54196202D01*
X132992664Y-54196206D01*
X132877455Y-54282452D01*
X132877452Y-54282455D01*
X132791206Y-54397664D01*
X132791202Y-54397671D01*
X132740908Y-54532517D01*
X132734501Y-54592116D01*
X132734501Y-54592123D01*
X132734500Y-54592135D01*
X132734500Y-54608131D01*
X132714815Y-54675170D01*
X132662011Y-54720925D01*
X132592853Y-54730869D01*
X132529297Y-54701844D01*
X132508928Y-54679258D01*
X132440822Y-54581993D01*
X132283007Y-54424178D01*
X132100186Y-54296165D01*
X131897913Y-54201844D01*
X131897909Y-54201843D01*
X131897905Y-54201841D01*
X131682339Y-54144081D01*
X131682329Y-54144079D01*
X131460001Y-54124628D01*
X131459999Y-54124628D01*
X131237670Y-54144079D01*
X131237660Y-54144081D01*
X131022094Y-54201841D01*
X131022087Y-54201843D01*
X131022087Y-54201844D01*
X130819814Y-54296165D01*
X130636993Y-54424178D01*
X130636991Y-54424179D01*
X130636988Y-54424182D01*
X130479182Y-54581988D01*
X130479179Y-54581991D01*
X130479178Y-54581993D01*
X130460876Y-54608131D01*
X130351164Y-54764814D01*
X130302382Y-54869430D01*
X130256210Y-54921869D01*
X130189016Y-54941021D01*
X130122135Y-54920805D01*
X130077618Y-54869430D01*
X130028835Y-54764814D01*
X130005066Y-54730869D01*
X129900822Y-54581993D01*
X129743007Y-54424178D01*
X129560186Y-54296165D01*
X129357913Y-54201844D01*
X129357909Y-54201843D01*
X129357905Y-54201841D01*
X129142339Y-54144081D01*
X129142329Y-54144079D01*
X128920001Y-54124628D01*
X128919999Y-54124628D01*
X128697670Y-54144079D01*
X128697660Y-54144081D01*
X128482094Y-54201841D01*
X128482087Y-54201843D01*
X128482087Y-54201844D01*
X128279814Y-54296165D01*
X128096993Y-54424178D01*
X128096991Y-54424179D01*
X128096988Y-54424182D01*
X127939182Y-54581988D01*
X127939179Y-54581991D01*
X127939178Y-54581993D01*
X127920876Y-54608131D01*
X127811164Y-54764814D01*
X127762382Y-54869430D01*
X127716210Y-54921869D01*
X127649016Y-54941021D01*
X127582135Y-54920805D01*
X127537618Y-54869430D01*
X127488835Y-54764814D01*
X127465066Y-54730869D01*
X127360822Y-54581993D01*
X127203007Y-54424178D01*
X127020186Y-54296165D01*
X126817913Y-54201844D01*
X126817909Y-54201843D01*
X126817905Y-54201841D01*
X126602339Y-54144081D01*
X126602329Y-54144079D01*
X126380001Y-54124628D01*
X126379999Y-54124628D01*
X126157670Y-54144079D01*
X126157660Y-54144081D01*
X125942094Y-54201841D01*
X125942087Y-54201843D01*
X125942087Y-54201844D01*
X125739814Y-54296165D01*
X125556993Y-54424178D01*
X125556991Y-54424179D01*
X125556988Y-54424182D01*
X125399182Y-54581988D01*
X125399179Y-54581991D01*
X125399178Y-54581993D01*
X125294934Y-54730869D01*
X125271165Y-54764814D01*
X125176845Y-54967085D01*
X125176841Y-54967094D01*
X125119081Y-55182660D01*
X125119079Y-55182670D01*
X125099628Y-55404999D01*
X125099628Y-55405000D01*
X125119079Y-55627329D01*
X125119081Y-55627339D01*
X125140565Y-55707518D01*
X125138902Y-55777368D01*
X125108472Y-55827292D01*
X125044478Y-55891285D01*
X125011358Y-55948654D01*
X125011357Y-55948656D01*
X124965423Y-56028214D01*
X124960874Y-56045192D01*
X124924499Y-56180943D01*
X124924499Y-56180945D01*
X124924499Y-56349046D01*
X124924500Y-56349059D01*
X124924500Y-60508023D01*
X124904815Y-60575062D01*
X124852011Y-60620817D01*
X124824865Y-60628266D01*
X124825068Y-60629124D01*
X124817520Y-60630907D01*
X124682671Y-60681202D01*
X124682664Y-60681206D01*
X124567455Y-60767452D01*
X124567452Y-60767455D01*
X124481206Y-60882664D01*
X124481202Y-60882671D01*
X124430910Y-61017513D01*
X124430909Y-61017517D01*
X124424500Y-61077127D01*
X124424500Y-61077134D01*
X124424500Y-61077135D01*
X124424500Y-61772870D01*
X124424501Y-61772876D01*
X124430909Y-61832484D01*
X124439929Y-61856670D01*
X124444911Y-61926361D01*
X124439929Y-61943330D01*
X124430910Y-61967512D01*
X124430909Y-61967515D01*
X124430909Y-61967517D01*
X124424500Y-62027127D01*
X124424500Y-62027134D01*
X124424500Y-62027135D01*
X124424500Y-62722870D01*
X124424501Y-62722876D01*
X124430909Y-62782484D01*
X124439929Y-62806670D01*
X124444911Y-62876361D01*
X124439929Y-62893330D01*
X124430910Y-62917512D01*
X124430909Y-62917515D01*
X124430909Y-62917517D01*
X124424500Y-62977127D01*
X124424500Y-62977134D01*
X124424500Y-62977135D01*
X124424500Y-63672870D01*
X124424501Y-63672876D01*
X124430908Y-63732483D01*
X124481202Y-63867328D01*
X124481206Y-63867335D01*
X124567452Y-63982544D01*
X124567455Y-63982547D01*
X124682664Y-64068793D01*
X124682671Y-64068797D01*
X124824785Y-64121802D01*
X124823711Y-64124681D01*
X124872036Y-64152188D01*
X124885918Y-64169410D01*
X124890372Y-64176075D01*
X124890374Y-64176084D01*
X124890377Y-64176083D01*
X124939097Y-64249000D01*
X124942049Y-64253417D01*
X126246692Y-65558060D01*
X126269356Y-65594129D01*
X126271188Y-65593247D01*
X126274207Y-65599516D01*
X126300001Y-65640567D01*
X126370184Y-65752262D01*
X126497738Y-65879816D01*
X126650478Y-65975789D01*
X126790835Y-66024902D01*
X126820745Y-66035368D01*
X126820750Y-66035369D01*
X126999996Y-66055565D01*
X127000000Y-66055565D01*
X127000004Y-66055565D01*
X127179249Y-66035369D01*
X127179252Y-66035368D01*
X127179255Y-66035368D01*
X127349522Y-65975789D01*
X127502262Y-65879816D01*
X127629816Y-65752262D01*
X127725789Y-65599522D01*
X127785368Y-65429255D01*
X127785369Y-65429249D01*
X127805565Y-65250003D01*
X127805565Y-65249996D01*
X127785369Y-65070750D01*
X127785368Y-65070745D01*
X127745391Y-64956497D01*
X127725789Y-64900478D01*
X127629816Y-64747738D01*
X127502262Y-64620184D01*
X127349522Y-64524211D01*
X127349516Y-64524207D01*
X127343247Y-64521188D01*
X127344129Y-64519356D01*
X127308060Y-64496692D01*
X126976293Y-64164925D01*
X126942808Y-64103602D01*
X126947792Y-64033910D01*
X126989664Y-63977977D01*
X127035605Y-63960841D01*
X127784629Y-63211818D01*
X127845952Y-63178333D01*
X127872310Y-63175499D01*
X128177690Y-63175499D01*
X128244729Y-63195184D01*
X128265371Y-63211818D01*
X128288181Y-63234628D01*
X128321666Y-63295951D01*
X128324500Y-63322309D01*
X128324500Y-63327691D01*
X128304815Y-63394730D01*
X128288181Y-63415372D01*
X127578553Y-64124999D01*
X127578554Y-64125000D01*
X128200500Y-64125000D01*
X128267539Y-64144685D01*
X128313294Y-64197489D01*
X128324500Y-64249000D01*
X128324500Y-66024902D01*
X128304815Y-66091941D01*
X128288181Y-66112583D01*
X125981465Y-68419298D01*
X125920142Y-68452783D01*
X125907668Y-68454837D01*
X125820750Y-68464630D01*
X125650478Y-68524210D01*
X125497737Y-68620184D01*
X125370184Y-68747737D01*
X125274211Y-68900476D01*
X125214631Y-69070745D01*
X125214630Y-69070750D01*
X125194435Y-69249996D01*
X125194435Y-69250003D01*
X125214630Y-69429249D01*
X125214631Y-69429254D01*
X125274211Y-69599523D01*
X125329668Y-69687782D01*
X125370184Y-69752262D01*
X125497738Y-69879816D01*
X125543110Y-69908325D01*
X125641261Y-69969998D01*
X125650478Y-69975789D01*
X125807230Y-70030639D01*
X125820745Y-70035368D01*
X125820750Y-70035369D01*
X125999996Y-70055565D01*
X126000000Y-70055565D01*
X126000004Y-70055565D01*
X126179249Y-70035369D01*
X126179252Y-70035368D01*
X126179255Y-70035368D01*
X126349522Y-69975789D01*
X126358739Y-69969998D01*
X126426650Y-69927326D01*
X126493887Y-69908325D01*
X126560722Y-69928692D01*
X126597616Y-69966346D01*
X126620182Y-70002260D01*
X126620184Y-70002262D01*
X126747738Y-70129816D01*
X126900478Y-70225789D01*
X127065584Y-70283562D01*
X127070745Y-70285368D01*
X127070750Y-70285369D01*
X127249996Y-70305565D01*
X127250000Y-70305565D01*
X127250004Y-70305565D01*
X127429249Y-70285369D01*
X127429252Y-70285368D01*
X127429255Y-70285368D01*
X127599522Y-70225789D01*
X127752262Y-70129816D01*
X127879816Y-70002262D01*
X127975789Y-69849522D01*
X128035368Y-69679255D01*
X128045161Y-69592329D01*
X128072226Y-69527918D01*
X128080690Y-69518543D01*
X129980520Y-67618716D01*
X130059577Y-67481784D01*
X130100501Y-67329057D01*
X130100501Y-67170942D01*
X130100501Y-67163347D01*
X130100500Y-67163329D01*
X130100500Y-64249000D01*
X130120185Y-64181961D01*
X130172989Y-64136206D01*
X130224500Y-64125000D01*
X130846446Y-64125000D01*
X130846446Y-64124999D01*
X130136819Y-63415372D01*
X130103334Y-63354049D01*
X130100500Y-63327691D01*
X130100500Y-63322309D01*
X130120185Y-63255270D01*
X130136819Y-63234628D01*
X130312319Y-63059128D01*
X130373642Y-63025643D01*
X130443334Y-63030627D01*
X130487681Y-63059128D01*
X131380114Y-63951561D01*
X131443351Y-63867090D01*
X131493597Y-63732376D01*
X131493598Y-63732372D01*
X131499999Y-63672844D01*
X131500000Y-63672827D01*
X131500000Y-62977172D01*
X131499999Y-62977155D01*
X131493598Y-62917627D01*
X131493597Y-62917624D01*
X131484538Y-62893335D01*
X131479552Y-62823644D01*
X131484538Y-62806665D01*
X131493597Y-62782375D01*
X131493598Y-62782372D01*
X131499999Y-62722844D01*
X131500000Y-62722827D01*
X131500000Y-62027172D01*
X131499999Y-62027155D01*
X131493598Y-61967627D01*
X131493597Y-61967623D01*
X131484804Y-61944047D01*
X131479820Y-61874355D01*
X131484802Y-61857387D01*
X131494091Y-61832483D01*
X131500500Y-61772873D01*
X131500499Y-61077128D01*
X131494091Y-61017517D01*
X131479746Y-60979057D01*
X131443797Y-60882671D01*
X131443793Y-60882664D01*
X131357547Y-60767455D01*
X131357544Y-60767452D01*
X131242335Y-60681206D01*
X131242328Y-60681202D01*
X131107482Y-60630908D01*
X131107483Y-60630908D01*
X131047883Y-60624501D01*
X131047881Y-60624500D01*
X131047873Y-60624500D01*
X131047864Y-60624500D01*
X129752129Y-60624500D01*
X129752123Y-60624501D01*
X129692516Y-60630908D01*
X129557671Y-60681202D01*
X129557664Y-60681206D01*
X129442455Y-60767452D01*
X129442454Y-60767453D01*
X129385036Y-60844152D01*
X129347770Y-60877227D01*
X129243377Y-60937497D01*
X129175477Y-60953968D01*
X129109450Y-60931116D01*
X129072546Y-60889536D01*
X129068794Y-60882666D01*
X128982547Y-60767455D01*
X128982544Y-60767452D01*
X128867335Y-60681206D01*
X128867328Y-60681202D01*
X128732482Y-60630908D01*
X128732483Y-60630908D01*
X128672883Y-60624501D01*
X128672881Y-60624500D01*
X128672873Y-60624500D01*
X128672864Y-60624500D01*
X127377129Y-60624500D01*
X127377123Y-60624501D01*
X127317516Y-60630908D01*
X127182671Y-60681202D01*
X127182664Y-60681206D01*
X127067455Y-60767452D01*
X127067452Y-60767455D01*
X126981206Y-60882664D01*
X126981202Y-60882671D01*
X126930908Y-61017517D01*
X126924501Y-61077116D01*
X126924501Y-61077123D01*
X126924500Y-61077135D01*
X126924500Y-61562860D01*
X126904815Y-61629899D01*
X126852011Y-61675654D01*
X126847952Y-61677421D01*
X126796951Y-61698546D01*
X126727482Y-61706015D01*
X126665003Y-61674739D01*
X126629351Y-61614650D01*
X126625499Y-61583990D01*
X126625499Y-61077128D01*
X126619091Y-61017517D01*
X126604746Y-60979057D01*
X126568797Y-60882671D01*
X126568793Y-60882664D01*
X126482547Y-60767455D01*
X126482544Y-60767452D01*
X126367335Y-60681206D01*
X126367328Y-60681202D01*
X126232482Y-60630908D01*
X126224938Y-60629126D01*
X126225474Y-60626853D01*
X126171688Y-60604571D01*
X126131843Y-60547177D01*
X126125500Y-60508024D01*
X126125500Y-56798428D01*
X126145185Y-56731389D01*
X126197989Y-56685634D01*
X126260307Y-56674900D01*
X126335495Y-56681478D01*
X126379999Y-56685372D01*
X126380000Y-56685372D01*
X126380001Y-56685372D01*
X126417055Y-56682130D01*
X126602334Y-56665920D01*
X126817913Y-56608156D01*
X127020186Y-56513835D01*
X127203007Y-56385822D01*
X127360822Y-56228007D01*
X127488835Y-56045186D01*
X127537618Y-55940569D01*
X127583790Y-55888130D01*
X127650983Y-55868978D01*
X127717865Y-55889193D01*
X127762382Y-55940570D01*
X127804563Y-56031029D01*
X127811165Y-56045186D01*
X127939178Y-56228007D01*
X128096993Y-56385822D01*
X128279814Y-56513835D01*
X128429133Y-56583463D01*
X128481573Y-56629635D01*
X128500725Y-56696828D01*
X128480510Y-56763709D01*
X128445621Y-56798947D01*
X128345961Y-56865538D01*
X128220538Y-56990961D01*
X128220535Y-56990965D01*
X128121990Y-57138446D01*
X128121983Y-57138459D01*
X128054106Y-57302332D01*
X128054103Y-57302341D01*
X128019500Y-57476304D01*
X128019500Y-57653695D01*
X128054103Y-57827658D01*
X128054106Y-57827667D01*
X128121983Y-57991540D01*
X128121990Y-57991553D01*
X128220535Y-58139034D01*
X128220538Y-58139038D01*
X128345961Y-58264461D01*
X128345965Y-58264464D01*
X128493446Y-58363009D01*
X128493459Y-58363016D01*
X128597055Y-58405926D01*
X128657334Y-58430894D01*
X128657336Y-58430894D01*
X128657341Y-58430896D01*
X128831304Y-58465499D01*
X128831307Y-58465500D01*
X128831309Y-58465500D01*
X129008693Y-58465500D01*
X129008694Y-58465499D01*
X129066682Y-58453964D01*
X129182658Y-58430896D01*
X129182661Y-58430894D01*
X129182666Y-58430894D01*
X129322535Y-58372958D01*
X129346540Y-58363016D01*
X129346540Y-58363015D01*
X129346547Y-58363013D01*
X129494035Y-58264464D01*
X129619464Y-58139035D01*
X129711580Y-58001173D01*
X129765192Y-57956369D01*
X129834517Y-57947662D01*
X129897544Y-57977816D01*
X129902363Y-57982384D01*
X132263181Y-60343202D01*
X132296666Y-60404525D01*
X132299500Y-60430883D01*
X132299500Y-60508023D01*
X132279815Y-60575062D01*
X132227011Y-60620817D01*
X132199865Y-60628266D01*
X132200068Y-60629124D01*
X132192520Y-60630907D01*
X132057671Y-60681202D01*
X132057664Y-60681206D01*
X131942455Y-60767452D01*
X131942452Y-60767455D01*
X131856206Y-60882664D01*
X131856202Y-60882671D01*
X131805910Y-61017513D01*
X131805909Y-61017517D01*
X131799500Y-61077127D01*
X131799500Y-61077134D01*
X131799500Y-61077135D01*
X131799500Y-61772870D01*
X131799501Y-61772876D01*
X131805909Y-61832484D01*
X131814929Y-61856670D01*
X131819911Y-61926361D01*
X131814929Y-61943330D01*
X131805910Y-61967512D01*
X131805909Y-61967515D01*
X131805909Y-61967517D01*
X131799500Y-62027127D01*
X131799500Y-62027134D01*
X131799500Y-62027135D01*
X131799500Y-62722870D01*
X131799501Y-62722876D01*
X131805909Y-62782484D01*
X131814929Y-62806670D01*
X131819911Y-62876361D01*
X131814929Y-62893330D01*
X131805910Y-62917512D01*
X131805909Y-62917515D01*
X131805909Y-62917517D01*
X131799500Y-62977127D01*
X131799500Y-62977134D01*
X131799500Y-62977135D01*
X131799500Y-63672870D01*
X131799501Y-63672876D01*
X131805908Y-63732482D01*
X131818874Y-63767246D01*
X131823857Y-63836938D01*
X131790372Y-63898258D01*
X131543196Y-64145434D01*
X131539721Y-64147331D01*
X131529484Y-64159147D01*
X131504145Y-64184487D01*
X131504143Y-64184488D01*
X131504142Y-64184489D01*
X131191937Y-64496693D01*
X131155876Y-64519362D01*
X131156756Y-64521188D01*
X131150478Y-64524211D01*
X130997737Y-64620184D01*
X130870184Y-64747737D01*
X130774211Y-64900476D01*
X130714631Y-65070745D01*
X130714630Y-65070750D01*
X130694435Y-65249996D01*
X130694435Y-65250003D01*
X130714630Y-65429249D01*
X130714631Y-65429254D01*
X130774211Y-65599523D01*
X130860430Y-65736738D01*
X130870184Y-65752262D01*
X130997738Y-65879816D01*
X131150478Y-65975789D01*
X131290835Y-66024902D01*
X131320745Y-66035368D01*
X131320750Y-66035369D01*
X131499996Y-66055565D01*
X131500000Y-66055565D01*
X131500004Y-66055565D01*
X131679249Y-66035369D01*
X131679252Y-66035368D01*
X131679255Y-66035368D01*
X131849522Y-65975789D01*
X132002262Y-65879816D01*
X132129816Y-65752262D01*
X132225789Y-65599522D01*
X132225791Y-65599516D01*
X132228811Y-65593246D01*
X132230647Y-65594130D01*
X132253309Y-65558059D01*
X132274552Y-65536817D01*
X132335876Y-65503333D01*
X132362231Y-65500500D01*
X132875500Y-65500500D01*
X132942539Y-65520185D01*
X132988294Y-65572989D01*
X132999500Y-65624500D01*
X132999500Y-66637768D01*
X132979815Y-66704807D01*
X132963179Y-66725451D01*
X132941934Y-66746695D01*
X132905878Y-66769366D01*
X132906756Y-66771188D01*
X132900478Y-66774211D01*
X132747737Y-66870184D01*
X132620184Y-66997737D01*
X132524211Y-67150476D01*
X132464631Y-67320745D01*
X132464630Y-67320750D01*
X132444435Y-67499996D01*
X132444435Y-67500003D01*
X132464630Y-67679249D01*
X132464631Y-67679254D01*
X132524211Y-67849523D01*
X132617341Y-67997737D01*
X132620184Y-68002262D01*
X132747738Y-68129816D01*
X132900478Y-68225789D01*
X132900481Y-68225790D01*
X132901929Y-68226488D01*
X132902704Y-68227188D01*
X132906374Y-68229494D01*
X132905970Y-68230136D01*
X132953787Y-68273312D01*
X132972098Y-68340740D01*
X132965166Y-68379161D01*
X132915367Y-68521477D01*
X132915365Y-68521485D01*
X132895170Y-68700731D01*
X132895170Y-68700738D01*
X132915365Y-68879984D01*
X132915366Y-68879989D01*
X132974946Y-69050258D01*
X133069349Y-69200498D01*
X133070919Y-69202997D01*
X133198473Y-69330551D01*
X133280357Y-69382002D01*
X133346858Y-69423788D01*
X133351213Y-69426524D01*
X133519239Y-69485319D01*
X133521480Y-69486103D01*
X133521485Y-69486104D01*
X133700731Y-69506300D01*
X133700735Y-69506300D01*
X133700737Y-69506300D01*
X133770991Y-69498384D01*
X133797314Y-69495418D01*
X133866136Y-69507472D01*
X133898879Y-69530957D01*
X133997738Y-69629816D01*
X134150478Y-69725789D01*
X134312232Y-69782389D01*
X134320745Y-69785368D01*
X134320750Y-69785369D01*
X134499996Y-69805565D01*
X134500000Y-69805565D01*
X134500004Y-69805565D01*
X134679249Y-69785369D01*
X134679252Y-69785368D01*
X134679255Y-69785368D01*
X134679256Y-69785367D01*
X134679259Y-69785367D01*
X134760103Y-69757078D01*
X134771674Y-69753028D01*
X134841453Y-69749466D01*
X134900311Y-69782389D01*
X134997738Y-69879816D01*
X135043110Y-69908325D01*
X135141261Y-69969998D01*
X135150478Y-69975789D01*
X135307230Y-70030639D01*
X135320745Y-70035368D01*
X135320750Y-70035369D01*
X135499996Y-70055565D01*
X135500000Y-70055565D01*
X135500004Y-70055565D01*
X135679249Y-70035369D01*
X135679252Y-70035368D01*
X135679255Y-70035368D01*
X135849522Y-69975789D01*
X136002262Y-69879816D01*
X136037319Y-69844759D01*
X136098642Y-69811274D01*
X136168334Y-69816258D01*
X136212681Y-69844759D01*
X136247738Y-69879816D01*
X136293110Y-69908325D01*
X136391261Y-69969998D01*
X136400478Y-69975789D01*
X136557230Y-70030639D01*
X136570745Y-70035368D01*
X136570750Y-70035369D01*
X136746360Y-70055155D01*
X136764570Y-70058600D01*
X136768215Y-70059576D01*
X136768216Y-70059577D01*
X136880019Y-70089534D01*
X136920942Y-70100500D01*
X136920943Y-70100500D01*
X142813331Y-70100500D01*
X142813347Y-70100501D01*
X142820943Y-70100501D01*
X142979054Y-70100501D01*
X142979057Y-70100501D01*
X143131785Y-70059577D01*
X143181904Y-70030639D01*
X143268716Y-69980520D01*
X143380520Y-69868716D01*
X143380520Y-69868714D01*
X143390728Y-69858507D01*
X143390729Y-69858504D01*
X145187820Y-68061413D01*
X145249142Y-68027930D01*
X145318834Y-68032914D01*
X145374767Y-68074786D01*
X145399184Y-68140250D01*
X145399500Y-68149096D01*
X145399500Y-68917587D01*
X145379815Y-68984626D01*
X145372450Y-68994896D01*
X145370186Y-68997734D01*
X145274211Y-69150476D01*
X145214631Y-69320745D01*
X145214630Y-69320750D01*
X145194435Y-69499996D01*
X145194435Y-69500003D01*
X145214630Y-69679249D01*
X145214631Y-69679254D01*
X145274211Y-69849523D01*
X145370183Y-70002260D01*
X145370184Y-70002262D01*
X145497738Y-70129816D01*
X145650478Y-70225789D01*
X145815584Y-70283562D01*
X145820745Y-70285368D01*
X145820750Y-70285369D01*
X145999996Y-70305565D01*
X146000000Y-70305565D01*
X146000004Y-70305565D01*
X146179249Y-70285369D01*
X146179252Y-70285368D01*
X146179255Y-70285368D01*
X146349522Y-70225789D01*
X146434027Y-70172691D01*
X146501264Y-70153690D01*
X146565973Y-70172691D01*
X146650475Y-70225788D01*
X146820745Y-70285368D01*
X146820750Y-70285369D01*
X146999996Y-70305565D01*
X147000000Y-70305565D01*
X147000004Y-70305565D01*
X147179249Y-70285369D01*
X147179252Y-70285368D01*
X147179255Y-70285368D01*
X147349522Y-70225789D01*
X147502262Y-70129816D01*
X147629816Y-70002262D01*
X147725789Y-69849522D01*
X147785368Y-69679255D01*
X147789796Y-69639954D01*
X147805565Y-69500003D01*
X147805565Y-69499996D01*
X147785369Y-69320750D01*
X147785368Y-69320745D01*
X147739618Y-69189999D01*
X147725789Y-69150478D01*
X147715945Y-69134812D01*
X147689521Y-69092758D01*
X147629816Y-68997738D01*
X147629814Y-68997736D01*
X147629813Y-68997734D01*
X147627550Y-68994896D01*
X147626659Y-68992715D01*
X147626111Y-68991842D01*
X147626264Y-68991745D01*
X147601144Y-68930209D01*
X147600500Y-68917587D01*
X147600500Y-66927476D01*
X147620185Y-66860437D01*
X147672989Y-66814682D01*
X147738385Y-66804256D01*
X147750000Y-66805565D01*
X147750001Y-66805564D01*
X147750002Y-66805565D01*
X147750004Y-66805565D01*
X147929249Y-66785369D01*
X147929252Y-66785368D01*
X147929255Y-66785368D01*
X148099522Y-66725789D01*
X148252262Y-66629816D01*
X148252267Y-66629810D01*
X148255097Y-66627555D01*
X148257275Y-66626665D01*
X148258158Y-66626111D01*
X148258255Y-66626265D01*
X148319783Y-66601145D01*
X148332412Y-66600500D01*
X154763331Y-66600500D01*
X154763347Y-66600501D01*
X154770943Y-66600501D01*
X154929054Y-66600501D01*
X154929057Y-66600501D01*
X155081785Y-66559577D01*
X155131904Y-66530639D01*
X155218716Y-66480520D01*
X155330520Y-66368716D01*
X155330520Y-66368714D01*
X155340728Y-66358507D01*
X155340730Y-66358504D01*
X155820897Y-65878337D01*
X155882220Y-65844852D01*
X155951912Y-65849836D01*
X155992129Y-65875682D01*
X155992295Y-65875475D01*
X155994325Y-65877094D01*
X155996259Y-65878337D01*
X155997738Y-65879816D01*
X156150478Y-65975789D01*
X156290835Y-66024902D01*
X156320745Y-66035368D01*
X156320750Y-66035369D01*
X156499996Y-66055565D01*
X156500000Y-66055565D01*
X156500004Y-66055565D01*
X156679249Y-66035369D01*
X156679252Y-66035368D01*
X156679255Y-66035368D01*
X156759017Y-66007457D01*
X156799972Y-66000500D01*
X160000976Y-66000500D01*
X160068015Y-66020185D01*
X160113770Y-66072989D01*
X160123714Y-66142147D01*
X160094786Y-66205589D01*
X159344197Y-67073918D01*
X159240028Y-67194427D01*
X158976538Y-67499248D01*
X158976538Y-67499249D01*
X158798814Y-67704849D01*
X158745960Y-67740799D01*
X158650476Y-67774211D01*
X158650475Y-67774212D01*
X158497737Y-67870184D01*
X158370184Y-67997737D01*
X158274210Y-68150478D01*
X158214630Y-68320750D01*
X158211166Y-68351497D01*
X158184098Y-68415910D01*
X158181756Y-68418701D01*
X157031623Y-69749249D01*
X156081330Y-70848607D01*
X155817846Y-71153422D01*
X154693248Y-72454427D01*
X154429758Y-72759249D01*
X152605245Y-74869960D01*
X152415752Y-75089178D01*
X152091384Y-75464427D01*
X151827894Y-75769249D01*
X151434435Y-76224427D01*
X151170945Y-76529249D01*
X150646901Y-77135494D01*
X150627328Y-77159594D01*
X150618119Y-77171673D01*
X150600084Y-77196895D01*
X150600073Y-77196913D01*
X150537852Y-77326625D01*
X150537851Y-77326627D01*
X150517064Y-77392773D01*
X150516907Y-77393263D01*
X150516903Y-77393288D01*
X150516548Y-77395463D01*
X150515477Y-77397694D01*
X150514025Y-77402192D01*
X150513415Y-77401994D01*
X150486329Y-77458458D01*
X150426848Y-77495116D01*
X150394166Y-77499500D01*
X148134499Y-77499500D01*
X148067460Y-77479815D01*
X148021705Y-77427011D01*
X148010499Y-77375500D01*
X148010499Y-77239629D01*
X148010498Y-77239623D01*
X148009861Y-77233698D01*
X148004091Y-77180017D01*
X147978993Y-77112727D01*
X147953797Y-77045171D01*
X147953793Y-77045164D01*
X147867547Y-76929955D01*
X147867544Y-76929952D01*
X147752335Y-76843706D01*
X147752328Y-76843702D01*
X147617482Y-76793408D01*
X147617483Y-76793408D01*
X147557883Y-76787001D01*
X147557881Y-76787000D01*
X147557873Y-76787000D01*
X147557864Y-76787000D01*
X146762129Y-76787000D01*
X146762123Y-76787001D01*
X146702515Y-76793409D01*
X146568332Y-76843455D01*
X146498640Y-76848439D01*
X146481668Y-76843455D01*
X146347485Y-76793409D01*
X146347483Y-76793408D01*
X146287883Y-76787001D01*
X146287881Y-76787000D01*
X146287873Y-76787000D01*
X146287865Y-76787000D01*
X145970097Y-76787000D01*
X145903058Y-76767315D01*
X145882416Y-76750681D01*
X145716306Y-76584571D01*
X145682821Y-76523248D01*
X145687805Y-76453556D01*
X145698994Y-76430918D01*
X145791303Y-76284010D01*
X145822424Y-76195070D01*
X145850883Y-76113740D01*
X145860676Y-76026814D01*
X145887741Y-75962403D01*
X145896204Y-75953029D01*
X146462417Y-75386819D01*
X146523740Y-75353334D01*
X146550098Y-75350500D01*
X146663331Y-75350500D01*
X146663347Y-75350501D01*
X146670943Y-75350501D01*
X146829054Y-75350501D01*
X146829057Y-75350501D01*
X146981785Y-75309577D01*
X147043222Y-75274106D01*
X147118716Y-75230520D01*
X147230520Y-75118716D01*
X147230520Y-75118714D01*
X147240724Y-75108511D01*
X147240728Y-75108506D01*
X147358506Y-74990728D01*
X147358511Y-74990724D01*
X147368714Y-74980520D01*
X147368716Y-74980520D01*
X147480520Y-74868716D01*
X147559577Y-74731784D01*
X147589873Y-74618716D01*
X147600500Y-74579058D01*
X147600500Y-74420943D01*
X147600500Y-74170943D01*
X147600500Y-74082412D01*
X147620185Y-74015373D01*
X147627555Y-74005097D01*
X147629810Y-74002267D01*
X147629816Y-74002262D01*
X147725789Y-73849522D01*
X147785368Y-73679255D01*
X147786298Y-73671003D01*
X147805565Y-73500003D01*
X147805565Y-73499996D01*
X147785369Y-73320750D01*
X147785368Y-73320745D01*
X147768634Y-73272922D01*
X147725789Y-73150478D01*
X147629816Y-72997738D01*
X147502262Y-72870184D01*
X147434027Y-72827309D01*
X147349523Y-72774211D01*
X147179254Y-72714631D01*
X147179249Y-72714630D01*
X147000004Y-72694435D01*
X146999996Y-72694435D01*
X146820750Y-72714630D01*
X146820737Y-72714633D01*
X146650479Y-72774209D01*
X146565971Y-72827309D01*
X146498734Y-72846309D01*
X146434029Y-72827309D01*
X146349520Y-72774209D01*
X146179262Y-72714633D01*
X146179249Y-72714630D01*
X146000004Y-72694435D01*
X145999996Y-72694435D01*
X145820750Y-72714630D01*
X145820745Y-72714631D01*
X145650476Y-72774211D01*
X145497736Y-72870185D01*
X145494903Y-72872445D01*
X145492724Y-72873334D01*
X145491842Y-72873889D01*
X145491744Y-72873734D01*
X145430217Y-72898855D01*
X145417588Y-72899500D01*
X144086670Y-72899500D01*
X144086654Y-72899499D01*
X144079058Y-72899499D01*
X143920943Y-72899499D01*
X143844579Y-72919961D01*
X143768214Y-72940423D01*
X143768209Y-72940426D01*
X143631290Y-73019475D01*
X143631286Y-73019478D01*
X143631284Y-73019480D01*
X143477658Y-73173104D01*
X143416337Y-73206588D01*
X143376096Y-73208642D01*
X143250004Y-73194435D01*
X143249996Y-73194435D01*
X143070750Y-73214630D01*
X143070745Y-73214631D01*
X142900476Y-73274211D01*
X142747734Y-73370186D01*
X142747733Y-73370187D01*
X142712506Y-73405413D01*
X142651182Y-73438897D01*
X142581491Y-73433911D01*
X142537146Y-73405411D01*
X142470090Y-73338355D01*
X142470087Y-73338351D01*
X142470087Y-73338352D01*
X142463020Y-73331285D01*
X142463020Y-73331284D01*
X142380713Y-73248977D01*
X142347229Y-73187653D01*
X142345106Y-73148040D01*
X142347066Y-73129816D01*
X142350500Y-73097873D01*
X142350499Y-72402128D01*
X142344091Y-72342517D01*
X142335070Y-72318333D01*
X142330085Y-72248644D01*
X142335066Y-72231677D01*
X142344091Y-72207483D01*
X142350500Y-72147873D01*
X142350499Y-71452128D01*
X142344103Y-71392627D01*
X142344091Y-71392516D01*
X142293797Y-71257671D01*
X142293793Y-71257664D01*
X142207547Y-71142455D01*
X142207544Y-71142452D01*
X142092335Y-71056206D01*
X142092328Y-71056202D01*
X141957482Y-71005908D01*
X141957483Y-71005908D01*
X141897883Y-70999501D01*
X141897881Y-70999500D01*
X141897873Y-70999500D01*
X141897865Y-70999500D01*
X141562229Y-70999500D01*
X141495190Y-70979815D01*
X141474552Y-70963185D01*
X141178416Y-70667048D01*
X141178415Y-70667047D01*
X141178414Y-70667046D01*
X141099563Y-70614360D01*
X141099464Y-70614295D01*
X141055495Y-70584916D01*
X141055494Y-70584915D01*
X141055492Y-70584914D01*
X140918917Y-70528343D01*
X140918907Y-70528340D01*
X140794012Y-70503496D01*
X140777250Y-70498921D01*
X140679257Y-70464632D01*
X140679249Y-70464630D01*
X140500004Y-70444435D01*
X140499996Y-70444435D01*
X140320750Y-70464630D01*
X140320745Y-70464631D01*
X140150476Y-70524211D01*
X139997737Y-70620184D01*
X139870184Y-70747737D01*
X139774210Y-70900478D01*
X139714630Y-71070750D01*
X139704483Y-71160810D01*
X139677416Y-71225224D01*
X139668944Y-71234607D01*
X138990371Y-71913181D01*
X138929048Y-71946666D01*
X138902690Y-71949500D01*
X138597309Y-71949500D01*
X138530270Y-71929815D01*
X138509628Y-71913181D01*
X138484127Y-71887680D01*
X138450642Y-71826357D01*
X138455626Y-71756665D01*
X138484127Y-71712318D01*
X139196446Y-71000000D01*
X138348596Y-71000000D01*
X138281557Y-70980315D01*
X138235802Y-70927511D01*
X138231554Y-70916954D01*
X138225789Y-70900478D01*
X138220694Y-70892370D01*
X138174002Y-70818060D01*
X138129816Y-70747738D01*
X138002262Y-70620184D01*
X137964114Y-70596214D01*
X137849523Y-70524211D01*
X137679254Y-70464631D01*
X137679249Y-70464630D01*
X137500004Y-70444435D01*
X137499996Y-70444435D01*
X137320750Y-70464630D01*
X137320745Y-70464631D01*
X137150476Y-70524211D01*
X136997737Y-70620184D01*
X136870184Y-70747737D01*
X136774212Y-70900475D01*
X136771191Y-70906750D01*
X136769370Y-70905873D01*
X136746693Y-70941937D01*
X136725449Y-70963181D01*
X136664126Y-70996666D01*
X136637768Y-70999500D01*
X136102129Y-70999500D01*
X136102123Y-70999501D01*
X136042516Y-71005908D01*
X135907671Y-71056202D01*
X135907664Y-71056206D01*
X135792455Y-71142452D01*
X135792452Y-71142455D01*
X135706206Y-71257664D01*
X135706202Y-71257671D01*
X135658577Y-71385363D01*
X135655909Y-71392517D01*
X135649500Y-71452127D01*
X135649500Y-71452134D01*
X135649500Y-71452135D01*
X135649500Y-72147870D01*
X135649501Y-72147876D01*
X135655909Y-72207484D01*
X135664929Y-72231670D01*
X135669911Y-72301361D01*
X135664929Y-72318330D01*
X135655910Y-72342512D01*
X135655909Y-72342515D01*
X135655909Y-72342517D01*
X135649500Y-72402127D01*
X135649500Y-72402134D01*
X135649500Y-72402135D01*
X135649500Y-73097870D01*
X135649501Y-73097876D01*
X135655909Y-73157484D01*
X135664929Y-73181670D01*
X135669911Y-73251361D01*
X135664929Y-73268330D01*
X135655909Y-73292515D01*
X135655908Y-73292516D01*
X135649780Y-73349522D01*
X135649501Y-73352123D01*
X135649500Y-73352135D01*
X135649500Y-73722523D01*
X135629815Y-73789562D01*
X135577011Y-73835317D01*
X135511620Y-73845744D01*
X135504024Y-73844888D01*
X135500000Y-73844435D01*
X135499999Y-73844435D01*
X135488378Y-73845744D01*
X135419556Y-73833686D01*
X135368179Y-73786335D01*
X135350499Y-73722523D01*
X135350499Y-73352129D01*
X135350498Y-73352123D01*
X135350497Y-73352116D01*
X135344091Y-73292517D01*
X135335070Y-73268333D01*
X135330085Y-73198644D01*
X135335066Y-73181677D01*
X135344091Y-73157483D01*
X135350500Y-73097873D01*
X135350499Y-72402128D01*
X135344091Y-72342517D01*
X135344089Y-72342512D01*
X135334805Y-72317620D01*
X135329820Y-72247928D01*
X135334804Y-72230951D01*
X135343598Y-72207371D01*
X135349999Y-72147844D01*
X135350000Y-72147827D01*
X135350000Y-71452172D01*
X135349999Y-71452155D01*
X135343598Y-71392627D01*
X135343597Y-71392623D01*
X135293351Y-71257909D01*
X135230114Y-71173436D01*
X134490371Y-71913181D01*
X134429048Y-71946666D01*
X134402690Y-71949500D01*
X134097309Y-71949500D01*
X134030270Y-71929815D01*
X134009628Y-71913181D01*
X133269884Y-71173436D01*
X133206646Y-71257911D01*
X133206645Y-71257913D01*
X133156403Y-71392620D01*
X133156401Y-71392627D01*
X133150000Y-71452155D01*
X133150000Y-71875500D01*
X133130315Y-71942539D01*
X133077511Y-71988294D01*
X133026000Y-71999500D01*
X132926080Y-71999500D01*
X132781092Y-72028340D01*
X132781082Y-72028343D01*
X132644511Y-72084912D01*
X132644498Y-72084919D01*
X132521587Y-72167046D01*
X132441937Y-72246694D01*
X132405881Y-72269365D01*
X132406758Y-72271186D01*
X132400483Y-72274208D01*
X132400478Y-72274210D01*
X132400478Y-72274211D01*
X132393259Y-72278747D01*
X132247737Y-72370184D01*
X132120184Y-72497737D01*
X132024211Y-72650476D01*
X131964631Y-72820745D01*
X131964630Y-72820750D01*
X131944435Y-72999996D01*
X131944435Y-73000003D01*
X131964630Y-73179249D01*
X131964631Y-73179254D01*
X132024211Y-73349523D01*
X132114423Y-73493093D01*
X132120184Y-73502262D01*
X132247738Y-73629816D01*
X132262599Y-73639153D01*
X132262792Y-73639275D01*
X132309082Y-73691611D01*
X132319729Y-73760664D01*
X132291353Y-73824512D01*
X132284499Y-73831949D01*
X123812181Y-82304268D01*
X123750858Y-82337753D01*
X123681166Y-82332769D01*
X123625233Y-82290897D01*
X123600816Y-82225433D01*
X123600500Y-82216587D01*
X123600500Y-82082412D01*
X123620185Y-82015373D01*
X123627555Y-82005097D01*
X123629810Y-82002267D01*
X123629816Y-82002262D01*
X123725789Y-81849522D01*
X123785368Y-81679255D01*
X123785369Y-81679249D01*
X123805565Y-81500003D01*
X123805565Y-81499996D01*
X123785369Y-81320750D01*
X123785368Y-81320745D01*
X123774772Y-81290464D01*
X123725789Y-81150478D01*
X123702068Y-81112727D01*
X123666151Y-81055565D01*
X123629816Y-80997738D01*
X123578337Y-80946259D01*
X123544852Y-80884936D01*
X123549836Y-80815244D01*
X123578337Y-80770897D01*
X125785701Y-78563533D01*
X128018535Y-76330698D01*
X128079856Y-76297215D01*
X128092311Y-76295163D01*
X128179255Y-76285368D01*
X128349522Y-76225789D01*
X128502262Y-76129816D01*
X128629816Y-76002262D01*
X128725789Y-75849522D01*
X128785368Y-75679255D01*
X128788274Y-75653465D01*
X128805565Y-75500003D01*
X128805565Y-75499996D01*
X128785369Y-75320750D01*
X128785368Y-75320745D01*
X128766127Y-75265757D01*
X128725789Y-75150478D01*
X128723254Y-75146444D01*
X128680911Y-75079055D01*
X128629816Y-74997738D01*
X128502262Y-74870184D01*
X128499915Y-74868709D01*
X128349523Y-74774211D01*
X128179254Y-74714631D01*
X128179249Y-74714630D01*
X128000004Y-74694435D01*
X127999996Y-74694435D01*
X127820750Y-74714630D01*
X127820742Y-74714632D01*
X127728323Y-74746971D01*
X127658544Y-74750532D01*
X127599688Y-74717610D01*
X127502262Y-74620184D01*
X127349523Y-74524211D01*
X127179254Y-74464631D01*
X127179249Y-74464630D01*
X127000004Y-74444435D01*
X126999996Y-74444435D01*
X126820750Y-74464630D01*
X126820745Y-74464631D01*
X126650476Y-74524211D01*
X126497737Y-74620184D01*
X126370184Y-74747737D01*
X126274210Y-74900478D01*
X126214630Y-75070750D01*
X126204837Y-75157668D01*
X126177770Y-75222082D01*
X126169298Y-75231465D01*
X124095190Y-77305573D01*
X124033867Y-77339058D01*
X123964175Y-77334074D01*
X123908242Y-77292202D01*
X123902515Y-77283864D01*
X123896797Y-77274764D01*
X123879816Y-77247738D01*
X123752262Y-77120184D01*
X123740383Y-77112720D01*
X123599523Y-77024211D01*
X123429254Y-76964631D01*
X123429249Y-76964630D01*
X123250004Y-76944435D01*
X123249996Y-76944435D01*
X123070750Y-76964630D01*
X123070745Y-76964631D01*
X122900476Y-77024211D01*
X122747737Y-77120184D01*
X122620184Y-77247737D01*
X122524210Y-77400478D01*
X122464630Y-77570750D01*
X122454837Y-77657668D01*
X122427770Y-77722082D01*
X122419298Y-77731465D01*
X121531286Y-78619478D01*
X121419481Y-78731282D01*
X121419479Y-78731285D01*
X121375626Y-78807243D01*
X121375624Y-78807245D01*
X121340425Y-78868209D01*
X121340423Y-78868212D01*
X121327233Y-78917440D01*
X121299499Y-79020943D01*
X121299499Y-79020945D01*
X121299499Y-79189046D01*
X121299500Y-79189059D01*
X121299500Y-79201372D01*
X121279815Y-79268411D01*
X121263181Y-79289053D01*
X120862181Y-79690053D01*
X120800858Y-79723538D01*
X120731166Y-79718554D01*
X120675233Y-79676682D01*
X120650816Y-79611218D01*
X120650500Y-79602372D01*
X120650500Y-79387286D01*
X120650500Y-79387280D01*
X120635687Y-79274764D01*
X120635686Y-79274763D01*
X120634626Y-79266705D01*
X120637689Y-79266301D01*
X120637689Y-79233698D01*
X120634626Y-79233295D01*
X120638829Y-79201372D01*
X120650500Y-79112720D01*
X120650500Y-78887280D01*
X120635687Y-78774764D01*
X120635686Y-78774763D01*
X120634626Y-78766705D01*
X120637689Y-78766301D01*
X120637689Y-78733698D01*
X120634626Y-78733295D01*
X120636159Y-78721650D01*
X120650500Y-78612720D01*
X120650500Y-78387280D01*
X120635687Y-78274764D01*
X120635686Y-78274763D01*
X120634626Y-78266705D01*
X120637689Y-78266301D01*
X120637689Y-78233698D01*
X120634626Y-78233295D01*
X120636666Y-78217802D01*
X120650500Y-78112720D01*
X120650500Y-77887280D01*
X120635687Y-77774764D01*
X120635686Y-77774763D01*
X120634626Y-77766705D01*
X120637689Y-77766301D01*
X120637689Y-77733698D01*
X120634626Y-77733295D01*
X120638676Y-77702530D01*
X120650500Y-77612720D01*
X120650500Y-77387280D01*
X120635687Y-77274764D01*
X120635686Y-77274763D01*
X120634626Y-77266705D01*
X120637676Y-77266303D01*
X120637685Y-77233698D01*
X120634626Y-77233296D01*
X120635687Y-77225236D01*
X120641877Y-77178210D01*
X120670142Y-77114315D01*
X120698841Y-77089403D01*
X120802591Y-77024213D01*
X120930145Y-76896659D01*
X121026118Y-76743919D01*
X121085697Y-76573652D01*
X121088472Y-76549020D01*
X121115536Y-76484609D01*
X121124001Y-76475232D01*
X124268535Y-73330698D01*
X124329856Y-73297215D01*
X124342311Y-73295163D01*
X124429255Y-73285368D01*
X124599522Y-73225789D01*
X124752262Y-73129816D01*
X124879816Y-73002262D01*
X124975789Y-72849522D01*
X125035368Y-72679255D01*
X125035369Y-72679249D01*
X125055565Y-72500003D01*
X125055565Y-72499996D01*
X125035369Y-72320750D01*
X125035368Y-72320745D01*
X125019084Y-72274208D01*
X124975789Y-72150478D01*
X124974150Y-72147870D01*
X124936582Y-72088080D01*
X124879816Y-71997738D01*
X124752262Y-71870184D01*
X124706152Y-71841211D01*
X124595590Y-71771740D01*
X124549299Y-71719405D01*
X124538342Y-71652862D01*
X124555565Y-71500002D01*
X124555565Y-71499996D01*
X124535369Y-71320750D01*
X124535368Y-71320745D01*
X124503966Y-71231003D01*
X124475789Y-71150478D01*
X124469323Y-71140188D01*
X124427099Y-71072989D01*
X124381237Y-71000000D01*
X133803553Y-71000000D01*
X134250000Y-71446446D01*
X134696446Y-71000000D01*
X133803553Y-71000000D01*
X124381237Y-71000000D01*
X124379816Y-70997738D01*
X124252262Y-70870184D01*
X124230602Y-70856574D01*
X124099523Y-70774211D01*
X123929254Y-70714631D01*
X123929249Y-70714630D01*
X123750004Y-70694435D01*
X123749996Y-70694435D01*
X123570750Y-70714630D01*
X123570745Y-70714631D01*
X123400476Y-70774211D01*
X123247737Y-70870184D01*
X123212181Y-70905741D01*
X123150858Y-70939226D01*
X123081166Y-70934242D01*
X123025233Y-70892370D01*
X123000816Y-70826906D01*
X123000500Y-70818060D01*
X123000500Y-68616081D01*
X122996800Y-68597482D01*
X122993623Y-68581511D01*
X122987642Y-68551444D01*
X122971660Y-68471094D01*
X122971659Y-68471088D01*
X122929863Y-68370184D01*
X122915084Y-68334505D01*
X122905890Y-68320745D01*
X122874601Y-68273917D01*
X122874599Y-68273916D01*
X122832952Y-68211584D01*
X119406818Y-64785450D01*
X119373333Y-64724127D01*
X119370499Y-64697769D01*
X119370499Y-63712129D01*
X119370498Y-63712123D01*
X119368273Y-63691426D01*
X119364091Y-63652517D01*
X119362965Y-63649499D01*
X119313797Y-63517671D01*
X119313793Y-63517664D01*
X119227547Y-63402455D01*
X119227544Y-63402452D01*
X119112335Y-63316206D01*
X119112328Y-63316202D01*
X118977482Y-63265908D01*
X118977483Y-63265908D01*
X118917883Y-63259501D01*
X118917881Y-63259500D01*
X118917873Y-63259500D01*
X118917864Y-63259500D01*
X117222129Y-63259500D01*
X117222123Y-63259501D01*
X117162516Y-63265908D01*
X117027671Y-63316202D01*
X117027664Y-63316206D01*
X116912455Y-63402452D01*
X116912452Y-63402455D01*
X116826206Y-63517664D01*
X116826203Y-63517669D01*
X116782197Y-63635656D01*
X116740325Y-63691589D01*
X116674861Y-63716006D01*
X116606588Y-63701154D01*
X116574057Y-63674507D01*
X116573876Y-63674689D01*
X116572050Y-63672863D01*
X116571017Y-63672017D01*
X116570043Y-63670856D01*
X116409141Y-63509954D01*
X116222734Y-63379432D01*
X116222732Y-63379431D01*
X116016497Y-63283261D01*
X116016488Y-63283258D01*
X115796697Y-63224366D01*
X115796693Y-63224365D01*
X115796692Y-63224365D01*
X115796691Y-63224364D01*
X115796686Y-63224364D01*
X115570002Y-63204532D01*
X115569998Y-63204532D01*
X115343313Y-63224364D01*
X115343302Y-63224366D01*
X115123511Y-63283258D01*
X115123502Y-63283261D01*
X114917267Y-63379431D01*
X114917265Y-63379432D01*
X114730858Y-63509954D01*
X114657681Y-63583132D01*
X114596358Y-63616617D01*
X114526666Y-63611633D01*
X114482319Y-63583132D01*
X114409141Y-63509954D01*
X114222734Y-63379432D01*
X114222732Y-63379431D01*
X114016497Y-63283261D01*
X114016488Y-63283258D01*
X113796697Y-63224366D01*
X113796693Y-63224365D01*
X113796692Y-63224365D01*
X113796691Y-63224364D01*
X113796686Y-63224364D01*
X113570002Y-63204532D01*
X113569998Y-63204532D01*
X113343313Y-63224364D01*
X113343302Y-63224366D01*
X113123511Y-63283258D01*
X113123502Y-63283261D01*
X112917267Y-63379431D01*
X112917265Y-63379432D01*
X112730858Y-63509954D01*
X112569954Y-63670858D01*
X112450185Y-63841909D01*
X112439432Y-63857266D01*
X112432380Y-63872387D01*
X112386209Y-63924825D01*
X112319015Y-63943976D01*
X112252134Y-63923760D01*
X112207619Y-63872387D01*
X112200568Y-63857266D01*
X112071449Y-63672863D01*
X112070045Y-63670858D01*
X111909141Y-63509954D01*
X111722734Y-63379432D01*
X111722732Y-63379431D01*
X111516497Y-63283261D01*
X111516488Y-63283258D01*
X111296697Y-63224366D01*
X111296693Y-63224365D01*
X111296692Y-63224365D01*
X111296691Y-63224364D01*
X111296686Y-63224364D01*
X111070002Y-63204532D01*
X111069998Y-63204532D01*
X110843313Y-63224364D01*
X110843302Y-63224366D01*
X110623511Y-63283258D01*
X110623502Y-63283261D01*
X110417267Y-63379431D01*
X110417265Y-63379432D01*
X110230858Y-63509954D01*
X110069954Y-63670858D01*
X109939432Y-63857265D01*
X109939431Y-63857267D01*
X109843261Y-64063502D01*
X109843258Y-64063511D01*
X109784366Y-64283302D01*
X109784364Y-64283313D01*
X109764532Y-64509998D01*
X109764532Y-64510001D01*
X109784364Y-64736686D01*
X109784366Y-64736697D01*
X109843258Y-64956488D01*
X109843261Y-64956497D01*
X109939431Y-65162732D01*
X109939432Y-65162734D01*
X110069954Y-65349141D01*
X110117041Y-65396228D01*
X110150526Y-65457551D01*
X110145542Y-65527243D01*
X110117041Y-65571590D01*
X108667048Y-67021584D01*
X108312951Y-67375681D01*
X108251628Y-67409166D01*
X108225270Y-67412000D01*
X106824730Y-67412000D01*
X106757691Y-67392315D01*
X106737049Y-67375681D01*
X106699049Y-67337681D01*
X106665564Y-67276358D01*
X106670548Y-67206666D01*
X106699049Y-67162319D01*
X106718656Y-67142712D01*
X106792712Y-67068656D01*
X106884814Y-66919334D01*
X106939999Y-66752797D01*
X106950500Y-66650009D01*
X106950499Y-66024992D01*
X106939999Y-65922203D01*
X106884814Y-65755666D01*
X106792712Y-65606344D01*
X106668656Y-65482288D01*
X106559700Y-65415084D01*
X106519336Y-65390187D01*
X106519331Y-65390185D01*
X106458963Y-65370181D01*
X106435495Y-65362404D01*
X106378051Y-65322632D01*
X106351228Y-65258116D01*
X106350500Y-65244699D01*
X106350500Y-64350096D01*
X106370185Y-64283057D01*
X106386815Y-64262419D01*
X107009374Y-63639859D01*
X107070695Y-63606376D01*
X107140386Y-63611360D01*
X107156474Y-63618707D01*
X107166839Y-63624367D01*
X107434954Y-63724369D01*
X107434960Y-63724370D01*
X107434962Y-63724371D01*
X107714566Y-63785195D01*
X107714568Y-63785195D01*
X107714572Y-63785196D01*
X107968220Y-63803337D01*
X107999999Y-63805610D01*
X108000000Y-63805610D01*
X108000001Y-63805610D01*
X108028595Y-63803564D01*
X108285428Y-63785196D01*
X108357674Y-63769480D01*
X108565037Y-63724371D01*
X108565037Y-63724370D01*
X108565046Y-63724369D01*
X108833161Y-63624367D01*
X109084315Y-63487226D01*
X109313395Y-63315739D01*
X109515739Y-63113395D01*
X109687226Y-62884315D01*
X109824367Y-62633161D01*
X109881058Y-62481165D01*
X109922930Y-62425233D01*
X109988394Y-62400816D01*
X109997240Y-62400500D01*
X119142760Y-62400500D01*
X119209799Y-62420185D01*
X119255554Y-62472989D01*
X119258940Y-62481162D01*
X119304538Y-62603415D01*
X119315635Y-62633166D01*
X119452770Y-62884309D01*
X119452775Y-62884317D01*
X119624254Y-63113387D01*
X119624270Y-63113405D01*
X119826594Y-63315729D01*
X119826612Y-63315745D01*
X120055682Y-63487224D01*
X120055690Y-63487229D01*
X120306833Y-63624364D01*
X120306832Y-63624364D01*
X120306836Y-63624365D01*
X120306839Y-63624367D01*
X120574954Y-63724369D01*
X120574960Y-63724370D01*
X120574962Y-63724371D01*
X120854566Y-63785195D01*
X120854568Y-63785195D01*
X120854572Y-63785196D01*
X121108220Y-63803337D01*
X121139999Y-63805610D01*
X121140000Y-63805610D01*
X121140001Y-63805610D01*
X121168595Y-63803564D01*
X121425428Y-63785196D01*
X121497674Y-63769480D01*
X121705037Y-63724371D01*
X121705037Y-63724370D01*
X121705046Y-63724369D01*
X121973161Y-63624367D01*
X122224315Y-63487226D01*
X122453395Y-63315739D01*
X122655739Y-63113395D01*
X122827226Y-62884315D01*
X122964367Y-62633161D01*
X123064369Y-62365046D01*
X123068966Y-62343913D01*
X123125195Y-62085433D01*
X123125195Y-62085432D01*
X123125196Y-62085428D01*
X123145610Y-61800000D01*
X123125196Y-61514572D01*
X123113232Y-61459576D01*
X123064371Y-61234962D01*
X123064370Y-61234960D01*
X123064369Y-61234954D01*
X122964367Y-60966839D01*
X122963161Y-60964631D01*
X122827229Y-60715690D01*
X122827224Y-60715682D01*
X122655745Y-60486612D01*
X122655729Y-60486594D01*
X122453405Y-60284270D01*
X122453387Y-60284254D01*
X122224317Y-60112775D01*
X122224309Y-60112770D01*
X121973166Y-59975635D01*
X121973167Y-59975635D01*
X121767703Y-59899001D01*
X121705046Y-59875631D01*
X121705043Y-59875630D01*
X121705037Y-59875628D01*
X121425433Y-59814804D01*
X121140001Y-59794390D01*
X121139999Y-59794390D01*
X120854566Y-59814804D01*
X120574962Y-59875628D01*
X120306833Y-59975635D01*
X120055690Y-60112770D01*
X120055682Y-60112775D01*
X119826612Y-60284254D01*
X119826594Y-60284270D01*
X119624270Y-60486594D01*
X119624254Y-60486612D01*
X119452775Y-60715682D01*
X119452770Y-60715690D01*
X119315635Y-60966833D01*
X119258942Y-61118834D01*
X119217070Y-61174767D01*
X119151606Y-61199184D01*
X119142760Y-61199500D01*
X109997240Y-61199500D01*
X109930201Y-61179815D01*
X109884446Y-61127011D01*
X109881058Y-61118834D01*
X109866734Y-61080429D01*
X109824367Y-60966839D01*
X109823161Y-60964631D01*
X109687229Y-60715690D01*
X109687224Y-60715682D01*
X109515745Y-60486612D01*
X109515729Y-60486594D01*
X109313405Y-60284270D01*
X109313387Y-60284254D01*
X109084317Y-60112775D01*
X109084309Y-60112770D01*
X108833166Y-59975635D01*
X108833167Y-59975635D01*
X108627703Y-59899001D01*
X108565046Y-59875631D01*
X108565043Y-59875630D01*
X108565037Y-59875628D01*
X108285433Y-59814804D01*
X108000001Y-59794390D01*
X107999999Y-59794390D01*
X107714566Y-59814804D01*
X107434962Y-59875628D01*
X107166833Y-59975635D01*
X106915690Y-60112770D01*
X106915682Y-60112775D01*
X106686612Y-60284254D01*
X106686594Y-60284270D01*
X106484270Y-60486594D01*
X106484254Y-60486612D01*
X106312775Y-60715682D01*
X106312770Y-60715690D01*
X106175635Y-60966833D01*
X106075628Y-61234962D01*
X106014804Y-61514566D01*
X105994390Y-61799998D01*
X105994390Y-61800001D01*
X106014804Y-62085433D01*
X106075628Y-62365037D01*
X106075630Y-62365043D01*
X106075631Y-62365046D01*
X106164539Y-62603416D01*
X106175634Y-62633163D01*
X106181288Y-62643517D01*
X106196140Y-62711790D01*
X106171724Y-62777254D01*
X106160137Y-62790626D01*
X105381286Y-63569478D01*
X105269481Y-63681282D01*
X105269479Y-63681285D01*
X105239922Y-63732481D01*
X105239921Y-63732483D01*
X105190423Y-63818214D01*
X105185406Y-63836938D01*
X105149499Y-63970943D01*
X105149499Y-63970945D01*
X105149499Y-64139046D01*
X105149500Y-64139059D01*
X105149500Y-65244699D01*
X105129815Y-65311738D01*
X105077011Y-65357493D01*
X105064507Y-65362403D01*
X105062162Y-65363181D01*
X104980668Y-65390185D01*
X104980663Y-65390187D01*
X104831342Y-65482289D01*
X104737681Y-65575951D01*
X104676358Y-65609436D01*
X104606666Y-65604452D01*
X104562319Y-65575951D01*
X104443657Y-65457289D01*
X104443656Y-65457288D01*
X104302437Y-65370184D01*
X104294336Y-65365187D01*
X104294331Y-65365185D01*
X104288283Y-65363181D01*
X104127797Y-65310001D01*
X104127795Y-65310000D01*
X104025010Y-65299500D01*
X102974998Y-65299500D01*
X102974980Y-65299501D01*
X102872203Y-65310000D01*
X102872200Y-65310001D01*
X102705668Y-65365185D01*
X102705663Y-65365187D01*
X102556342Y-65457289D01*
X102432289Y-65581342D01*
X102340187Y-65730663D01*
X102340185Y-65730668D01*
X102330300Y-65760499D01*
X102285001Y-65897203D01*
X102285001Y-65897204D01*
X102285000Y-65897204D01*
X102274500Y-65999983D01*
X102274500Y-66600001D01*
X102274501Y-66600019D01*
X102285000Y-66702796D01*
X102285001Y-66702799D01*
X102313473Y-66788720D01*
X102340186Y-66869334D01*
X102390424Y-66950784D01*
X102432289Y-67018657D01*
X102556346Y-67142714D01*
X102559182Y-67144463D01*
X102560717Y-67146170D01*
X102562011Y-67147193D01*
X102561836Y-67147414D01*
X102605905Y-67196411D01*
X102617126Y-67265374D01*
X102589282Y-67329456D01*
X102559182Y-67355537D01*
X102556346Y-67357285D01*
X102432289Y-67481342D01*
X102340187Y-67630663D01*
X102340185Y-67630668D01*
X102324085Y-67679255D01*
X102285001Y-67797203D01*
X102285001Y-67797204D01*
X102285000Y-67797204D01*
X102274500Y-67899983D01*
X102274500Y-68500001D01*
X102274501Y-68500019D01*
X102285000Y-68602796D01*
X102285001Y-68602799D01*
X102340185Y-68769331D01*
X102340187Y-68769336D01*
X102375069Y-68825888D01*
X102432288Y-68918656D01*
X102556344Y-69042712D01*
X102705666Y-69134814D01*
X102872203Y-69189999D01*
X102974991Y-69200500D01*
X104025008Y-69200499D01*
X104025016Y-69200498D01*
X104025019Y-69200498D01*
X104081302Y-69194748D01*
X104127797Y-69189999D01*
X104294334Y-69134814D01*
X104443656Y-69042712D01*
X104499549Y-68986819D01*
X104560872Y-68953334D01*
X104587230Y-68950500D01*
X104712770Y-68950500D01*
X104779809Y-68970185D01*
X104800451Y-68986819D01*
X104831344Y-69017712D01*
X104980666Y-69109814D01*
X105147203Y-69164999D01*
X105249991Y-69175500D01*
X106250008Y-69175499D01*
X106250016Y-69175498D01*
X106250019Y-69175498D01*
X106330379Y-69167289D01*
X106352797Y-69164999D01*
X106519334Y-69109814D01*
X106668656Y-69017712D01*
X106737049Y-68949319D01*
X106798372Y-68915834D01*
X106824730Y-68913000D01*
X108513582Y-68913000D01*
X108513583Y-68913000D01*
X108661417Y-68913000D01*
X109264826Y-68913000D01*
X109330798Y-68932006D01*
X109400477Y-68975789D01*
X109406128Y-68978510D01*
X109457988Y-69025332D01*
X109476302Y-69092758D01*
X109455255Y-69159383D01*
X109440010Y-69177912D01*
X109370183Y-69247739D01*
X109274211Y-69400476D01*
X109214631Y-69570745D01*
X109214630Y-69570750D01*
X109194435Y-69749996D01*
X109194435Y-69750003D01*
X109214630Y-69929249D01*
X109214631Y-69929254D01*
X109274211Y-70099523D01*
X109308247Y-70153690D01*
X109370184Y-70252262D01*
X109497738Y-70379816D01*
X109650478Y-70475789D01*
X109650480Y-70475789D01*
X109650484Y-70475792D01*
X109656756Y-70478813D01*
X109655869Y-70480653D01*
X109691939Y-70503307D01*
X110021584Y-70832952D01*
X110045014Y-70848607D01*
X110056938Y-70856574D01*
X110101744Y-70910185D01*
X110105755Y-70920673D01*
X110139637Y-71022922D01*
X110139642Y-71022933D01*
X110230971Y-71170999D01*
X110230974Y-71171003D01*
X110353996Y-71294025D01*
X110354000Y-71294028D01*
X110359343Y-71297324D01*
X110406068Y-71349272D01*
X110417289Y-71418234D01*
X110389446Y-71482316D01*
X110381928Y-71490543D01*
X110293471Y-71579000D01*
X110202142Y-71727066D01*
X110202137Y-71727077D01*
X110147413Y-71892223D01*
X110137000Y-71994144D01*
X110137000Y-73005855D01*
X110147413Y-73107776D01*
X110202137Y-73272922D01*
X110202142Y-73272933D01*
X110293471Y-73420999D01*
X110293474Y-73421003D01*
X110361090Y-73488619D01*
X110394575Y-73549942D01*
X110395026Y-73552108D01*
X110403340Y-73593907D01*
X110403343Y-73593917D01*
X110459913Y-73730490D01*
X110459914Y-73730491D01*
X110459916Y-73730495D01*
X110472949Y-73750000D01*
X110536047Y-73844435D01*
X110542051Y-73853420D01*
X110542052Y-73853421D01*
X110746692Y-74058060D01*
X110769356Y-74094123D01*
X110771186Y-74093242D01*
X110774208Y-74099516D01*
X110774210Y-74099519D01*
X110774211Y-74099522D01*
X110870184Y-74252262D01*
X110997738Y-74379816D01*
X111063191Y-74420943D01*
X111132721Y-74464632D01*
X111150478Y-74475789D01*
X111261248Y-74514549D01*
X111320745Y-74535368D01*
X111320750Y-74535369D01*
X111499996Y-74555565D01*
X111500000Y-74555565D01*
X111500004Y-74555565D01*
X111679249Y-74535369D01*
X111679252Y-74535368D01*
X111679255Y-74535368D01*
X111679256Y-74535367D01*
X111679259Y-74535367D01*
X111738752Y-74514549D01*
X111750721Y-74510360D01*
X111820499Y-74506798D01*
X111881127Y-74541527D01*
X111913354Y-74603520D01*
X111906950Y-74673095D01*
X111906238Y-74674854D01*
X111864799Y-74774897D01*
X111850000Y-74887302D01*
X111850000Y-75437500D01*
X112225500Y-75437500D01*
X112292539Y-75457185D01*
X112338294Y-75509989D01*
X112349500Y-75561500D01*
X112349500Y-75613500D01*
X112329815Y-75680539D01*
X112277011Y-75726294D01*
X112225500Y-75737500D01*
X111850000Y-75737500D01*
X111850000Y-76225500D01*
X111830315Y-76292539D01*
X111777511Y-76338294D01*
X111726000Y-76349500D01*
X110387272Y-76349500D01*
X110274764Y-76364313D01*
X110274763Y-76364313D01*
X110134770Y-76422300D01*
X110134767Y-76422301D01*
X110134767Y-76422302D01*
X110014549Y-76514549D01*
X109932212Y-76621853D01*
X109922300Y-76634770D01*
X109864313Y-76774763D01*
X109864313Y-76774764D01*
X109849500Y-76887272D01*
X109849500Y-77112727D01*
X109865374Y-77233292D01*
X109862399Y-77233683D01*
X109862399Y-77266316D01*
X109865374Y-77266708D01*
X109849500Y-77387272D01*
X109849500Y-77612727D01*
X109857165Y-77670943D01*
X109861323Y-77702528D01*
X109865374Y-77733292D01*
X109862399Y-77733683D01*
X109862399Y-77766316D01*
X109865374Y-77766708D01*
X109849500Y-77887272D01*
X109849500Y-78067492D01*
X109829815Y-78134531D01*
X109813181Y-78155173D01*
X106044481Y-81923872D01*
X106044479Y-81923874D01*
X106039007Y-81933353D01*
X106011776Y-81980520D01*
X105965423Y-82060805D01*
X105924499Y-82213533D01*
X105924499Y-82213535D01*
X105924499Y-82381636D01*
X105924500Y-82381649D01*
X105924500Y-84413330D01*
X105924499Y-84413348D01*
X105924499Y-84589046D01*
X105924500Y-84589059D01*
X105924500Y-85892060D01*
X105904815Y-85959099D01*
X105888181Y-85979741D01*
X105870184Y-85997737D01*
X105774211Y-86150476D01*
X105714631Y-86320745D01*
X105714630Y-86320750D01*
X105694435Y-86499996D01*
X105694435Y-86500003D01*
X105714630Y-86679249D01*
X105714631Y-86679254D01*
X105774211Y-86849523D01*
X105870184Y-87002262D01*
X105997738Y-87129816D01*
X106150478Y-87225789D01*
X106219678Y-87250003D01*
X106320745Y-87285368D01*
X106320750Y-87285369D01*
X106499996Y-87305565D01*
X106500000Y-87305565D01*
X106500004Y-87305565D01*
X106679249Y-87285369D01*
X106679252Y-87285368D01*
X106679255Y-87285368D01*
X106849522Y-87225789D01*
X107002262Y-87129816D01*
X107129816Y-87002262D01*
X107225789Y-86849522D01*
X107285368Y-86679255D01*
X107287129Y-86663627D01*
X107305565Y-86500003D01*
X107305565Y-86499996D01*
X107285369Y-86320750D01*
X107285368Y-86320745D01*
X107262127Y-86254327D01*
X107225789Y-86150478D01*
X107180382Y-86078214D01*
X107144506Y-86021117D01*
X107125500Y-85955145D01*
X107125500Y-85861077D01*
X107145185Y-85794038D01*
X107197989Y-85748283D01*
X107267147Y-85738339D01*
X107326413Y-85763812D01*
X107331340Y-85767708D01*
X107331344Y-85767712D01*
X107480666Y-85859814D01*
X107647203Y-85914999D01*
X107749991Y-85925500D01*
X108750008Y-85925499D01*
X108750016Y-85925498D01*
X108750019Y-85925498D01*
X108806302Y-85919748D01*
X108852797Y-85914999D01*
X109019334Y-85859814D01*
X109168656Y-85767712D01*
X109292712Y-85643656D01*
X109384814Y-85494334D01*
X109439999Y-85327797D01*
X109450500Y-85225009D01*
X109450499Y-84599992D01*
X109448360Y-84579057D01*
X109439999Y-84497203D01*
X109439998Y-84497200D01*
X109414729Y-84420943D01*
X109384814Y-84330666D01*
X109292712Y-84181344D01*
X109198695Y-84087327D01*
X109165210Y-84026004D01*
X109170194Y-83956312D01*
X109198695Y-83911964D01*
X109292317Y-83818342D01*
X109384356Y-83669124D01*
X109384358Y-83669119D01*
X109439505Y-83502697D01*
X109439506Y-83502690D01*
X109449999Y-83399986D01*
X109450000Y-83399973D01*
X109450000Y-83337500D01*
X108124000Y-83337500D01*
X108056961Y-83317815D01*
X108011206Y-83265011D01*
X108000000Y-83213500D01*
X108000000Y-82075000D01*
X108500000Y-82075000D01*
X108500000Y-82837500D01*
X109449999Y-82837500D01*
X109449999Y-82775028D01*
X109449998Y-82775013D01*
X109439505Y-82672302D01*
X109384358Y-82505880D01*
X109384356Y-82505875D01*
X109292315Y-82356654D01*
X109168345Y-82232684D01*
X109019124Y-82140643D01*
X109019119Y-82140641D01*
X108852697Y-82085494D01*
X108852690Y-82085493D01*
X108749986Y-82075000D01*
X108500000Y-82075000D01*
X108000000Y-82075000D01*
X107891185Y-82075000D01*
X107824146Y-82055315D01*
X107778391Y-82002511D01*
X107768447Y-81933353D01*
X107797472Y-81869797D01*
X107803480Y-81863344D01*
X109638321Y-80028502D01*
X109699642Y-79995019D01*
X109769334Y-80000003D01*
X109825267Y-80041875D01*
X109849684Y-80107339D01*
X109849730Y-80108640D01*
X109849735Y-80108640D01*
X109850000Y-80112697D01*
X109865861Y-80233161D01*
X109862915Y-80233548D01*
X109862915Y-80266451D01*
X109865861Y-80266839D01*
X109854911Y-80349999D01*
X109854912Y-80350000D01*
X109889365Y-80350000D01*
X109956404Y-80369685D01*
X110002159Y-80422489D01*
X110012103Y-80491647D01*
X109987741Y-80549485D01*
X109948597Y-80600500D01*
X109947840Y-80601486D01*
X109891412Y-80642689D01*
X109855894Y-80648879D01*
X109854911Y-80650000D01*
X109865804Y-80732729D01*
X109863595Y-80766472D01*
X109865374Y-80766707D01*
X109849500Y-80887272D01*
X109849500Y-81112727D01*
X109858010Y-81177360D01*
X109863196Y-81216755D01*
X109865374Y-81233292D01*
X109862399Y-81233683D01*
X109862399Y-81266316D01*
X109865374Y-81266708D01*
X109849500Y-81387272D01*
X109849500Y-81612727D01*
X109865374Y-81733292D01*
X109862399Y-81733683D01*
X109862399Y-81766316D01*
X109865374Y-81766708D01*
X109849500Y-81887272D01*
X109849500Y-82112727D01*
X109857671Y-82174786D01*
X109863174Y-82216587D01*
X109865374Y-82233292D01*
X109862399Y-82233683D01*
X109862399Y-82266316D01*
X109865374Y-82266708D01*
X109849500Y-82387272D01*
X109849500Y-82612727D01*
X109864313Y-82725235D01*
X109864313Y-82725236D01*
X109910814Y-82837500D01*
X109922302Y-82865233D01*
X110014549Y-82985451D01*
X110134767Y-83077698D01*
X110274764Y-83135687D01*
X110387280Y-83150500D01*
X110387287Y-83150500D01*
X111725500Y-83150500D01*
X111792539Y-83170185D01*
X111838294Y-83222989D01*
X111849500Y-83274500D01*
X111849500Y-84612727D01*
X111862461Y-84711171D01*
X111864313Y-84725236D01*
X111922302Y-84865233D01*
X112014549Y-84985451D01*
X112134767Y-85077698D01*
X112274764Y-85135687D01*
X112381586Y-85149750D01*
X112387264Y-85150498D01*
X112387280Y-85150500D01*
X112387287Y-85150500D01*
X112612713Y-85150500D01*
X112612720Y-85150500D01*
X112725236Y-85135687D01*
X112725236Y-85135686D01*
X112733295Y-85134626D01*
X112733698Y-85137689D01*
X112766302Y-85137689D01*
X112766705Y-85134626D01*
X112774763Y-85135686D01*
X112774764Y-85135687D01*
X112887280Y-85150500D01*
X112887287Y-85150500D01*
X113112713Y-85150500D01*
X113112720Y-85150500D01*
X113225236Y-85135687D01*
X113225236Y-85135686D01*
X113233295Y-85134626D01*
X113233698Y-85137689D01*
X113266302Y-85137689D01*
X113266705Y-85134626D01*
X113274763Y-85135686D01*
X113274764Y-85135687D01*
X113387280Y-85150500D01*
X113387287Y-85150500D01*
X113612713Y-85150500D01*
X113612720Y-85150500D01*
X113725236Y-85135687D01*
X113725236Y-85135686D01*
X113733295Y-85134626D01*
X113733698Y-85137689D01*
X113766302Y-85137689D01*
X113766705Y-85134626D01*
X113774763Y-85135686D01*
X113774764Y-85135687D01*
X113887280Y-85150500D01*
X113887287Y-85150500D01*
X114112713Y-85150500D01*
X114112720Y-85150500D01*
X114225236Y-85135687D01*
X114225236Y-85135686D01*
X114233295Y-85134626D01*
X114233698Y-85137689D01*
X114266302Y-85137689D01*
X114266705Y-85134626D01*
X114274763Y-85135686D01*
X114274764Y-85135687D01*
X114387280Y-85150500D01*
X114387287Y-85150500D01*
X114612713Y-85150500D01*
X114612720Y-85150500D01*
X114725236Y-85135687D01*
X114725236Y-85135686D01*
X114733295Y-85134626D01*
X114733530Y-85136418D01*
X114767269Y-85134195D01*
X114849999Y-85145086D01*
X114852155Y-85143195D01*
X114869685Y-85083497D01*
X114898512Y-85052161D01*
X114924515Y-85032208D01*
X114989684Y-85007016D01*
X115058129Y-85021055D01*
X115075484Y-85032208D01*
X115101486Y-85052160D01*
X115142689Y-85108587D01*
X115148878Y-85144102D01*
X115150000Y-85145086D01*
X115232730Y-85134195D01*
X115266469Y-85136415D01*
X115266705Y-85134626D01*
X115274763Y-85135686D01*
X115274764Y-85135687D01*
X115387280Y-85150500D01*
X115387287Y-85150500D01*
X115612713Y-85150500D01*
X115612720Y-85150500D01*
X115725236Y-85135687D01*
X115725236Y-85135686D01*
X115733295Y-85134626D01*
X115733698Y-85137689D01*
X115766302Y-85137689D01*
X115766705Y-85134626D01*
X115774763Y-85135686D01*
X115774764Y-85135687D01*
X115887280Y-85150500D01*
X115887287Y-85150500D01*
X116112713Y-85150500D01*
X116112720Y-85150500D01*
X116225236Y-85135687D01*
X116225236Y-85135686D01*
X116233295Y-85134626D01*
X116233698Y-85137689D01*
X116266302Y-85137689D01*
X116266705Y-85134626D01*
X116274763Y-85135686D01*
X116274764Y-85135687D01*
X116387280Y-85150500D01*
X116387287Y-85150500D01*
X116567493Y-85150500D01*
X116634532Y-85170185D01*
X116655174Y-85186819D01*
X116782729Y-85314374D01*
X116782739Y-85314385D01*
X116787069Y-85318715D01*
X116787070Y-85318716D01*
X116898874Y-85430520D01*
X116898876Y-85430521D01*
X116898880Y-85430524D01*
X117019218Y-85500000D01*
X117035806Y-85509577D01*
X117147609Y-85539534D01*
X117188532Y-85550500D01*
X117188533Y-85550500D01*
X120266589Y-85550500D01*
X120333628Y-85570185D01*
X120379383Y-85622989D01*
X120389327Y-85692147D01*
X120360302Y-85755703D01*
X120354270Y-85762181D01*
X119503270Y-86613181D01*
X119441947Y-86646666D01*
X119415589Y-86649500D01*
X117832412Y-86649500D01*
X117765373Y-86629815D01*
X117755097Y-86622445D01*
X117752263Y-86620185D01*
X117752262Y-86620184D01*
X117695496Y-86584515D01*
X117599523Y-86524211D01*
X117429254Y-86464631D01*
X117429249Y-86464630D01*
X117250004Y-86444435D01*
X117249996Y-86444435D01*
X117070750Y-86464630D01*
X117070745Y-86464631D01*
X116900476Y-86524211D01*
X116747737Y-86620184D01*
X116620184Y-86747737D01*
X116524211Y-86900476D01*
X116464631Y-87070745D01*
X116464630Y-87070750D01*
X116444435Y-87249996D01*
X116444435Y-87250003D01*
X116464630Y-87429249D01*
X116464631Y-87429254D01*
X116524211Y-87599523D01*
X116620184Y-87752262D01*
X116747738Y-87879816D01*
X116900478Y-87975789D01*
X117070745Y-88035368D01*
X117070750Y-88035369D01*
X117249996Y-88055565D01*
X117250000Y-88055565D01*
X117250004Y-88055565D01*
X117429249Y-88035369D01*
X117429252Y-88035368D01*
X117429255Y-88035368D01*
X117599522Y-87975789D01*
X117752262Y-87879816D01*
X117752267Y-87879810D01*
X117755097Y-87877555D01*
X117757275Y-87876665D01*
X117758158Y-87876111D01*
X117758255Y-87876265D01*
X117819783Y-87851145D01*
X117832412Y-87850500D01*
X119629017Y-87850500D01*
X119629033Y-87850501D01*
X119636629Y-87850501D01*
X119794740Y-87850501D01*
X119794743Y-87850501D01*
X119947471Y-87809577D01*
X119997590Y-87780639D01*
X120084402Y-87730520D01*
X120196206Y-87618716D01*
X120196206Y-87618714D01*
X120206414Y-87608507D01*
X120206416Y-87608504D01*
X121054620Y-86760299D01*
X121115941Y-86726816D01*
X121185633Y-86731800D01*
X121241566Y-86773672D01*
X121259340Y-86807027D01*
X121274208Y-86849519D01*
X121370184Y-87002262D01*
X121497738Y-87129816D01*
X121650478Y-87225789D01*
X121719678Y-87250003D01*
X121820745Y-87285368D01*
X121820750Y-87285369D01*
X121999996Y-87305565D01*
X122000000Y-87305565D01*
X122000004Y-87305565D01*
X122179249Y-87285369D01*
X122179252Y-87285368D01*
X122179255Y-87285368D01*
X122349522Y-87225789D01*
X122502262Y-87129816D01*
X122502267Y-87129810D01*
X122505097Y-87127555D01*
X122507275Y-87126665D01*
X122508158Y-87126111D01*
X122508255Y-87126265D01*
X122569783Y-87101145D01*
X122582412Y-87100500D01*
X124913331Y-87100500D01*
X124913347Y-87100501D01*
X124920943Y-87100501D01*
X125079054Y-87100501D01*
X125079057Y-87100501D01*
X125231785Y-87059577D01*
X125281904Y-87030639D01*
X125368716Y-86980520D01*
X125480520Y-86868716D01*
X125480520Y-86868714D01*
X125490728Y-86858507D01*
X125490730Y-86858504D01*
X134667821Y-77681412D01*
X134729142Y-77647929D01*
X134798834Y-77652913D01*
X134854767Y-77694785D01*
X134879184Y-77760249D01*
X134879500Y-77769095D01*
X134879500Y-79260370D01*
X134879501Y-79260376D01*
X134885908Y-79319983D01*
X134936202Y-79454828D01*
X134936206Y-79454835D01*
X135022452Y-79570044D01*
X135022455Y-79570047D01*
X135137664Y-79656293D01*
X135137671Y-79656297D01*
X135272517Y-79706591D01*
X135272516Y-79706591D01*
X135279444Y-79707335D01*
X135332127Y-79713000D01*
X136127872Y-79712999D01*
X136187483Y-79706591D01*
X136321669Y-79656542D01*
X136391358Y-79651559D01*
X136408321Y-79656539D01*
X136542517Y-79706591D01*
X136602127Y-79713000D01*
X137397872Y-79712999D01*
X137457483Y-79706591D01*
X137591669Y-79656542D01*
X137661358Y-79651559D01*
X137678321Y-79656539D01*
X137812517Y-79706591D01*
X137872127Y-79713000D01*
X138667872Y-79712999D01*
X138727483Y-79706591D01*
X138772167Y-79689924D01*
X138841857Y-79684941D01*
X138903180Y-79718425D01*
X138936665Y-79779748D01*
X138939499Y-79806107D01*
X138939499Y-79869054D01*
X138939498Y-79869054D01*
X138980424Y-80021789D01*
X138980425Y-80021790D01*
X139002754Y-80060464D01*
X139002755Y-80060465D01*
X139059477Y-80158712D01*
X139059481Y-80158717D01*
X139169298Y-80268534D01*
X139202783Y-80329857D01*
X139204837Y-80342331D01*
X139214630Y-80429249D01*
X139274210Y-80599521D01*
X139304574Y-80647845D01*
X139370184Y-80752262D01*
X139497738Y-80879816D01*
X139650478Y-80975789D01*
X139713202Y-80997737D01*
X139820745Y-81035368D01*
X139820750Y-81035369D01*
X139999996Y-81055565D01*
X140000000Y-81055565D01*
X140000004Y-81055565D01*
X140179249Y-81035369D01*
X140179252Y-81035368D01*
X140179255Y-81035368D01*
X140349522Y-80975789D01*
X140502262Y-80879816D01*
X140629816Y-80752262D01*
X140725789Y-80599522D01*
X140785368Y-80429255D01*
X140795161Y-80342329D01*
X140822226Y-80277918D01*
X140830690Y-80268543D01*
X141178713Y-79920521D01*
X141178716Y-79920520D01*
X141268043Y-79831192D01*
X141329362Y-79797710D01*
X141399054Y-79802694D01*
X141454988Y-79844565D01*
X141478659Y-79902682D01*
X141479497Y-79909050D01*
X141520423Y-80061785D01*
X141539496Y-80094820D01*
X141539495Y-80094820D01*
X141539496Y-80094821D01*
X141599475Y-80198709D01*
X141599481Y-80198717D01*
X141669298Y-80268534D01*
X141702783Y-80329857D01*
X141704837Y-80342331D01*
X141714630Y-80429249D01*
X141774210Y-80599521D01*
X141804574Y-80647845D01*
X141870184Y-80752262D01*
X141997738Y-80879816D01*
X142150478Y-80975789D01*
X142213202Y-80997737D01*
X142320745Y-81035368D01*
X142320750Y-81035369D01*
X142499996Y-81055565D01*
X142500000Y-81055565D01*
X142500004Y-81055565D01*
X142679249Y-81035369D01*
X142679252Y-81035368D01*
X142679255Y-81035368D01*
X142849522Y-80975789D01*
X143002262Y-80879816D01*
X143129816Y-80752262D01*
X143225789Y-80599522D01*
X143285368Y-80429255D01*
X143295161Y-80342329D01*
X143322226Y-80277918D01*
X143330680Y-80268553D01*
X143830520Y-79768716D01*
X143860263Y-79717198D01*
X143910829Y-79668981D01*
X143924317Y-79663015D01*
X143941666Y-79656544D01*
X144011357Y-79651559D01*
X144028321Y-79656539D01*
X144162517Y-79706591D01*
X144222127Y-79713000D01*
X145017872Y-79712999D01*
X145077483Y-79706591D01*
X145211669Y-79656542D01*
X145281358Y-79651559D01*
X145298321Y-79656539D01*
X145432517Y-79706591D01*
X145492127Y-79713000D01*
X146287872Y-79712999D01*
X146347483Y-79706591D01*
X146481669Y-79656542D01*
X146551358Y-79651559D01*
X146568321Y-79656539D01*
X146702517Y-79706591D01*
X146762127Y-79713000D01*
X147557872Y-79712999D01*
X147617483Y-79706591D01*
X147752331Y-79656296D01*
X147867546Y-79570046D01*
X147953796Y-79454831D01*
X148004091Y-79319983D01*
X148010500Y-79260373D01*
X148010500Y-79124500D01*
X148030185Y-79057461D01*
X148082989Y-79011706D01*
X148134500Y-79000500D01*
X150339737Y-79000500D01*
X150406776Y-79020185D01*
X150452531Y-79072989D01*
X150463715Y-79126839D01*
X150422892Y-81290464D01*
X150422892Y-81290465D01*
X150422712Y-81300000D01*
X150365144Y-84351145D01*
X150343647Y-85490465D01*
X150343467Y-85500000D01*
X150319688Y-86760301D01*
X150318904Y-86801839D01*
X150297958Y-86868495D01*
X150244300Y-86913246D01*
X150194926Y-86923500D01*
X148134499Y-86923500D01*
X148067460Y-86903815D01*
X148021705Y-86851011D01*
X148010499Y-86799500D01*
X148010499Y-86663629D01*
X148010498Y-86663623D01*
X148010497Y-86663616D01*
X148004091Y-86604017D01*
X147974325Y-86524211D01*
X147953797Y-86469171D01*
X147953793Y-86469164D01*
X147867547Y-86353955D01*
X147867544Y-86353952D01*
X147752335Y-86267706D01*
X147752328Y-86267702D01*
X147617482Y-86217408D01*
X147617483Y-86217408D01*
X147557883Y-86211001D01*
X147557881Y-86211000D01*
X147557873Y-86211000D01*
X147557864Y-86211000D01*
X146762129Y-86211000D01*
X146762123Y-86211001D01*
X146702515Y-86217409D01*
X146568332Y-86267455D01*
X146498640Y-86272439D01*
X146481668Y-86267455D01*
X146347485Y-86217409D01*
X146347483Y-86217408D01*
X146287883Y-86211001D01*
X146287881Y-86211000D01*
X146287873Y-86211000D01*
X146287864Y-86211000D01*
X145492129Y-86211000D01*
X145492123Y-86211001D01*
X145432515Y-86217409D01*
X145298332Y-86267455D01*
X145228640Y-86272439D01*
X145211668Y-86267455D01*
X145077485Y-86217409D01*
X145077483Y-86217408D01*
X145017883Y-86211001D01*
X145017881Y-86211000D01*
X145017873Y-86211000D01*
X145017864Y-86211000D01*
X144222129Y-86211000D01*
X144222123Y-86211001D01*
X144162515Y-86217409D01*
X144117833Y-86234074D01*
X144048141Y-86239058D01*
X143986819Y-86205572D01*
X143953334Y-86144249D01*
X143950501Y-86117892D01*
X143950501Y-86020944D01*
X143944283Y-85997737D01*
X143909577Y-85868216D01*
X143851552Y-85767712D01*
X143830524Y-85731290D01*
X143830521Y-85731287D01*
X143830520Y-85731284D01*
X143830517Y-85731281D01*
X143825574Y-85724839D01*
X143826637Y-85724023D01*
X143797215Y-85670141D01*
X143795163Y-85657684D01*
X143785368Y-85570745D01*
X143725789Y-85400478D01*
X143629816Y-85247738D01*
X143502262Y-85120184D01*
X143349523Y-85024211D01*
X143179254Y-84964631D01*
X143179249Y-84964630D01*
X143000004Y-84944435D01*
X142999996Y-84944435D01*
X142820750Y-84964630D01*
X142820745Y-84964631D01*
X142650476Y-85024211D01*
X142497737Y-85120184D01*
X142370184Y-85247737D01*
X142274210Y-85400478D01*
X142214630Y-85570750D01*
X142204837Y-85657668D01*
X142177770Y-85722082D01*
X142169298Y-85731465D01*
X141721615Y-86179148D01*
X141660292Y-86212633D01*
X141647187Y-86214757D01*
X141622517Y-86217408D01*
X141554268Y-86242863D01*
X141484577Y-86247846D01*
X141423254Y-86214360D01*
X141391163Y-86158777D01*
X141369577Y-86078216D01*
X141336611Y-86021117D01*
X141290524Y-85941290D01*
X141290518Y-85941282D01*
X141080700Y-85731465D01*
X141047215Y-85670142D01*
X141045163Y-85657686D01*
X141035368Y-85570745D01*
X140975789Y-85400478D01*
X140879816Y-85247738D01*
X140752262Y-85120184D01*
X140599523Y-85024211D01*
X140429254Y-84964631D01*
X140429249Y-84964630D01*
X140250004Y-84944435D01*
X140249996Y-84944435D01*
X140070750Y-84964630D01*
X140070745Y-84964631D01*
X139900476Y-85024211D01*
X139747737Y-85120184D01*
X139620184Y-85247737D01*
X139524210Y-85400478D01*
X139464630Y-85570750D01*
X139454837Y-85657668D01*
X139427770Y-85722082D01*
X139419298Y-85731465D01*
X139171286Y-85979478D01*
X139059481Y-86091282D01*
X139059475Y-86091290D01*
X139025305Y-86150476D01*
X139025305Y-86150478D01*
X138993184Y-86206112D01*
X138942616Y-86254327D01*
X138874009Y-86267549D01*
X138842465Y-86260293D01*
X138727485Y-86217409D01*
X138727483Y-86217408D01*
X138667883Y-86211001D01*
X138667881Y-86211000D01*
X138667873Y-86211000D01*
X138667864Y-86211000D01*
X137872129Y-86211000D01*
X137872123Y-86211001D01*
X137812515Y-86217409D01*
X137678332Y-86267455D01*
X137608640Y-86272439D01*
X137591668Y-86267455D01*
X137457485Y-86217409D01*
X137457483Y-86217408D01*
X137397883Y-86211001D01*
X137397881Y-86211000D01*
X137397873Y-86211000D01*
X137397864Y-86211000D01*
X136602129Y-86211000D01*
X136602123Y-86211001D01*
X136542515Y-86217409D01*
X136408332Y-86267455D01*
X136338640Y-86272439D01*
X136321668Y-86267455D01*
X136187485Y-86217409D01*
X136187483Y-86217408D01*
X136127883Y-86211001D01*
X136127881Y-86211000D01*
X136127873Y-86211000D01*
X136127864Y-86211000D01*
X135332129Y-86211000D01*
X135332123Y-86211001D01*
X135272516Y-86217408D01*
X135137671Y-86267702D01*
X135137664Y-86267706D01*
X135022455Y-86353952D01*
X135022452Y-86353955D01*
X134936206Y-86469164D01*
X134936202Y-86469171D01*
X134885908Y-86604017D01*
X134879501Y-86663616D01*
X134879501Y-86663623D01*
X134879500Y-86663635D01*
X134879500Y-88684370D01*
X134879501Y-88684376D01*
X134885908Y-88743983D01*
X134936202Y-88878827D01*
X134936206Y-88878835D01*
X135022452Y-88994044D01*
X135022455Y-88994047D01*
X135137664Y-89080293D01*
X135137671Y-89080297D01*
X135272517Y-89130591D01*
X135272516Y-89130591D01*
X135278963Y-89131284D01*
X135332127Y-89137000D01*
X136127872Y-89136999D01*
X136187483Y-89130591D01*
X136321669Y-89080542D01*
X136391358Y-89075559D01*
X136408321Y-89080539D01*
X136542517Y-89130591D01*
X136602127Y-89137000D01*
X137397872Y-89136999D01*
X137457483Y-89130591D01*
X137591669Y-89080542D01*
X137661358Y-89075559D01*
X137678321Y-89080539D01*
X137812517Y-89130591D01*
X137872127Y-89137000D01*
X138667872Y-89136999D01*
X138727483Y-89130591D01*
X138861669Y-89080542D01*
X138931358Y-89075559D01*
X138948321Y-89080539D01*
X139082517Y-89130591D01*
X139142127Y-89137000D01*
X139937872Y-89136999D01*
X139997483Y-89130591D01*
X140131669Y-89080542D01*
X140201358Y-89075559D01*
X140218321Y-89080539D01*
X140352517Y-89130591D01*
X140412127Y-89137000D01*
X141207872Y-89136999D01*
X141267483Y-89130591D01*
X141401669Y-89080542D01*
X141471358Y-89075559D01*
X141488321Y-89080539D01*
X141622517Y-89130591D01*
X141682127Y-89137000D01*
X142477872Y-89136999D01*
X142537483Y-89130591D01*
X142671669Y-89080542D01*
X142741358Y-89075559D01*
X142758321Y-89080539D01*
X142892517Y-89130591D01*
X142952127Y-89137000D01*
X143747872Y-89136999D01*
X143807483Y-89130591D01*
X143941669Y-89080542D01*
X144011358Y-89075559D01*
X144028321Y-89080539D01*
X144162517Y-89130591D01*
X144222127Y-89137000D01*
X145017872Y-89136999D01*
X145077483Y-89130591D01*
X145211669Y-89080542D01*
X145281358Y-89075559D01*
X145298321Y-89080539D01*
X145432517Y-89130591D01*
X145492127Y-89137000D01*
X146287872Y-89136999D01*
X146347483Y-89130591D01*
X146481669Y-89080542D01*
X146551358Y-89075559D01*
X146568321Y-89080539D01*
X146702517Y-89130591D01*
X146762127Y-89137000D01*
X147557872Y-89136999D01*
X147617483Y-89130591D01*
X147752331Y-89080296D01*
X147867546Y-88994046D01*
X147953796Y-88878831D01*
X147953796Y-88878829D01*
X147953798Y-88878827D01*
X147982800Y-88801064D01*
X148004091Y-88743983D01*
X148010500Y-88684373D01*
X148010500Y-88548500D01*
X148030185Y-88481461D01*
X148082989Y-88435706D01*
X148134500Y-88424500D01*
X150161925Y-88424500D01*
X150228964Y-88444185D01*
X150274719Y-88496989D01*
X150285903Y-88550839D01*
X150264401Y-89690464D01*
X150264401Y-89690465D01*
X150264221Y-89700000D01*
X150249892Y-90459364D01*
X150228946Y-90526021D01*
X150206915Y-90550912D01*
X141110427Y-98398863D01*
X141083551Y-98423806D01*
X141070858Y-98436472D01*
X141045889Y-98463261D01*
X141045883Y-98463269D01*
X140968100Y-98584304D01*
X140968089Y-98584322D01*
X140939331Y-98647296D01*
X140939078Y-98647845D01*
X140939072Y-98647862D01*
X140939072Y-98647864D01*
X140898538Y-98785917D01*
X140898538Y-98857853D01*
X140898539Y-98875499D01*
X140878855Y-98942538D01*
X140826052Y-98988294D01*
X140774539Y-98999500D01*
X105529848Y-98999500D01*
X105462809Y-98979815D01*
X105417054Y-98927011D01*
X105407110Y-98857853D01*
X105436135Y-98794297D01*
X105450142Y-98780511D01*
X105562558Y-98686183D01*
X105802412Y-98431953D01*
X106011130Y-98151596D01*
X106185889Y-97848904D01*
X106324326Y-97527971D01*
X106424569Y-97193136D01*
X106448875Y-97055292D01*
X106485260Y-96848938D01*
X106485259Y-96848938D01*
X106485262Y-96848927D01*
X106505585Y-96500000D01*
X106485262Y-96151073D01*
X106458624Y-96000000D01*
X106424571Y-95806872D01*
X106424569Y-95806865D01*
X106383279Y-95668946D01*
X106324326Y-95472029D01*
X106185889Y-95151096D01*
X106084676Y-94975789D01*
X106011129Y-94848402D01*
X105802415Y-94568050D01*
X105802410Y-94568044D01*
X105711884Y-94472093D01*
X105680196Y-94409822D01*
X105687206Y-94340305D01*
X105730686Y-94285613D01*
X105796833Y-94263110D01*
X105802078Y-94262999D01*
X106250002Y-94262999D01*
X106250008Y-94262999D01*
X106352797Y-94252499D01*
X106505881Y-94201771D01*
X106575704Y-94199370D01*
X106632562Y-94231797D01*
X106966150Y-94565385D01*
X106999635Y-94626708D01*
X107001982Y-94664046D01*
X106999500Y-94691963D01*
X106999500Y-95808028D01*
X106999501Y-95808034D01*
X107010113Y-95927415D01*
X107066089Y-96123045D01*
X107066090Y-96123048D01*
X107066091Y-96123049D01*
X107160302Y-96303407D01*
X107160304Y-96303409D01*
X107288890Y-96461109D01*
X107382803Y-96537684D01*
X107446593Y-96589698D01*
X107626951Y-96683909D01*
X107822582Y-96739886D01*
X107941963Y-96750500D01*
X109058036Y-96750499D01*
X109177418Y-96739886D01*
X109373049Y-96683909D01*
X109553407Y-96589698D01*
X109711109Y-96461109D01*
X109839698Y-96303407D01*
X109933909Y-96123049D01*
X109989886Y-95927418D01*
X110000500Y-95808037D01*
X110000500Y-95808028D01*
X112999500Y-95808028D01*
X112999501Y-95808034D01*
X113010113Y-95927415D01*
X113066089Y-96123045D01*
X113066090Y-96123048D01*
X113066091Y-96123049D01*
X113160302Y-96303407D01*
X113160304Y-96303409D01*
X113288890Y-96461109D01*
X113382803Y-96537684D01*
X113446593Y-96589698D01*
X113626951Y-96683909D01*
X113822582Y-96739886D01*
X113941963Y-96750500D01*
X115058036Y-96750499D01*
X115177418Y-96739886D01*
X115373049Y-96683909D01*
X115553407Y-96589698D01*
X115711109Y-96461109D01*
X115839698Y-96303407D01*
X115933909Y-96123049D01*
X115989886Y-95927418D01*
X116000500Y-95808037D01*
X116000499Y-95362227D01*
X116020183Y-95295189D01*
X116036813Y-95274552D01*
X116308059Y-95003306D01*
X116344132Y-94980657D01*
X116343244Y-94978813D01*
X116349515Y-94975792D01*
X116349516Y-94975790D01*
X116349522Y-94975789D01*
X116502262Y-94879816D01*
X116629816Y-94752262D01*
X116725789Y-94599522D01*
X116785368Y-94429255D01*
X116791261Y-94376954D01*
X116805565Y-94250003D01*
X116805565Y-94249996D01*
X116785369Y-94070750D01*
X116785368Y-94070745D01*
X116729227Y-93910304D01*
X116725789Y-93900478D01*
X116723658Y-93897087D01*
X116637592Y-93760114D01*
X116629816Y-93747738D01*
X116502262Y-93620184D01*
X116502260Y-93620183D01*
X116349523Y-93524211D01*
X116179254Y-93464631D01*
X116179249Y-93464630D01*
X116000004Y-93444435D01*
X115999996Y-93444435D01*
X115820750Y-93464630D01*
X115820745Y-93464631D01*
X115650476Y-93524211D01*
X115497739Y-93620183D01*
X115369290Y-93748632D01*
X115307967Y-93782116D01*
X115247498Y-93780166D01*
X115221971Y-93772862D01*
X115177418Y-93760114D01*
X115177416Y-93760113D01*
X115177413Y-93760113D01*
X115111102Y-93754217D01*
X115058037Y-93749500D01*
X115058032Y-93749500D01*
X113941971Y-93749500D01*
X113941965Y-93749500D01*
X113941964Y-93749501D01*
X113930316Y-93750536D01*
X113822584Y-93760113D01*
X113626954Y-93816089D01*
X113536772Y-93863196D01*
X113446593Y-93910302D01*
X113446591Y-93910303D01*
X113446590Y-93910304D01*
X113288890Y-94038890D01*
X113184209Y-94167273D01*
X113160302Y-94196593D01*
X113113802Y-94285613D01*
X113066089Y-94376954D01*
X113021332Y-94533376D01*
X113011413Y-94568044D01*
X113010114Y-94572583D01*
X113010113Y-94572586D01*
X113005302Y-94626708D01*
X113000375Y-94682128D01*
X112999500Y-94691966D01*
X112999500Y-95808028D01*
X110000500Y-95808028D01*
X110000499Y-94691964D01*
X109989886Y-94572582D01*
X109933909Y-94376951D01*
X109839698Y-94196593D01*
X109765635Y-94105762D01*
X109711109Y-94038890D01*
X109553409Y-93910304D01*
X109553410Y-93910304D01*
X109553407Y-93910302D01*
X109373049Y-93816091D01*
X109373048Y-93816090D01*
X109373045Y-93816089D01*
X109254312Y-93782116D01*
X109177418Y-93760114D01*
X109177415Y-93760113D01*
X109177413Y-93760113D01*
X109111102Y-93754217D01*
X109058037Y-93749500D01*
X109058032Y-93749500D01*
X107941971Y-93749500D01*
X107941953Y-93749501D01*
X107914041Y-93751982D01*
X107845522Y-93738309D01*
X107815385Y-93716150D01*
X106987590Y-92888355D01*
X106987588Y-92888352D01*
X106963782Y-92864546D01*
X106933759Y-92815872D01*
X106884814Y-92668166D01*
X106792712Y-92518844D01*
X106699049Y-92425181D01*
X106665564Y-92363858D01*
X106670548Y-92294166D01*
X106699049Y-92249819D01*
X106792712Y-92156156D01*
X106884814Y-92006834D01*
X106939999Y-91840297D01*
X106950500Y-91737509D01*
X106950499Y-91112492D01*
X106941309Y-91022530D01*
X106954079Y-90953839D01*
X106976983Y-90922251D01*
X107005520Y-90893716D01*
X107065661Y-90789545D01*
X107085359Y-90763874D01*
X107212417Y-90636817D01*
X107273740Y-90603334D01*
X107300097Y-90600500D01*
X107849336Y-90600500D01*
X107914432Y-90618961D01*
X107980659Y-90659810D01*
X107980660Y-90659810D01*
X107980666Y-90659814D01*
X108147203Y-90714999D01*
X108249991Y-90725500D01*
X108850008Y-90725499D01*
X108850016Y-90725498D01*
X108850019Y-90725498D01*
X108906302Y-90719748D01*
X108952797Y-90714999D01*
X109119334Y-90659814D01*
X109268656Y-90567712D01*
X109392712Y-90443656D01*
X109394461Y-90440819D01*
X109396169Y-90439283D01*
X109397193Y-90437989D01*
X109397414Y-90438163D01*
X109446406Y-90394096D01*
X109515368Y-90382872D01*
X109579451Y-90410713D01*
X109605537Y-90440817D01*
X109607288Y-90443656D01*
X109731344Y-90567712D01*
X109880666Y-90659814D01*
X110047203Y-90714999D01*
X110149991Y-90725500D01*
X110750008Y-90725499D01*
X110750016Y-90725498D01*
X110750019Y-90725498D01*
X110806302Y-90719748D01*
X110852797Y-90714999D01*
X111019334Y-90659814D01*
X111095710Y-90612704D01*
X111163098Y-90594265D01*
X111229762Y-90615187D01*
X111242292Y-90625477D01*
X111242295Y-90625475D01*
X111247737Y-90629815D01*
X111247738Y-90629816D01*
X111338080Y-90686582D01*
X111400014Y-90725498D01*
X111400478Y-90725789D01*
X111509296Y-90763866D01*
X111570745Y-90785368D01*
X111570750Y-90785369D01*
X111749996Y-90805565D01*
X111750000Y-90805565D01*
X111750004Y-90805565D01*
X111929249Y-90785369D01*
X111929252Y-90785368D01*
X111929255Y-90785368D01*
X112099522Y-90725789D01*
X112252262Y-90629816D01*
X112379816Y-90502262D01*
X112475789Y-90349522D01*
X112535368Y-90179255D01*
X112543272Y-90109107D01*
X112555565Y-90000003D01*
X112555565Y-89999996D01*
X112535369Y-89820750D01*
X112535368Y-89820745D01*
X112489781Y-89690465D01*
X112475789Y-89650478D01*
X112454599Y-89616755D01*
X112379815Y-89497737D01*
X112252262Y-89370184D01*
X112099521Y-89274210D01*
X111929249Y-89214630D01*
X111842332Y-89204837D01*
X111777918Y-89177770D01*
X111768535Y-89169298D01*
X111730523Y-89131286D01*
X111730520Y-89131284D01*
X111618717Y-89019481D01*
X111618709Y-89019475D01*
X111499494Y-88950647D01*
X111499498Y-88950639D01*
X111499465Y-88950631D01*
X111498461Y-88950051D01*
X111450258Y-88899472D01*
X111442738Y-88878428D01*
X111442129Y-88878630D01*
X111397511Y-88743983D01*
X111384814Y-88705666D01*
X111292712Y-88556344D01*
X111168656Y-88432288D01*
X111019334Y-88340186D01*
X110852797Y-88285001D01*
X110852795Y-88285000D01*
X110750010Y-88274500D01*
X110149998Y-88274500D01*
X110149980Y-88274501D01*
X110047203Y-88285000D01*
X110047200Y-88285001D01*
X109880668Y-88340185D01*
X109880663Y-88340187D01*
X109731342Y-88432289D01*
X109607285Y-88556346D01*
X109605537Y-88559182D01*
X109603829Y-88560717D01*
X109602807Y-88562011D01*
X109602585Y-88561836D01*
X109553589Y-88605905D01*
X109484626Y-88617126D01*
X109420544Y-88589282D01*
X109394463Y-88559182D01*
X109392714Y-88556346D01*
X109268657Y-88432289D01*
X109268656Y-88432288D01*
X109119334Y-88340186D01*
X108952797Y-88285001D01*
X108952795Y-88285000D01*
X108850010Y-88274500D01*
X108249998Y-88274500D01*
X108249980Y-88274501D01*
X108147203Y-88285000D01*
X108147200Y-88285001D01*
X107980668Y-88340185D01*
X107980663Y-88340187D01*
X107831342Y-88432289D01*
X107707289Y-88556342D01*
X107615187Y-88705663D01*
X107615185Y-88705668D01*
X107602776Y-88743117D01*
X107560001Y-88872203D01*
X107560001Y-88872204D01*
X107560000Y-88872204D01*
X107549500Y-88974983D01*
X107549500Y-89206957D01*
X107529815Y-89273996D01*
X107477011Y-89319751D01*
X107407853Y-89329695D01*
X107344297Y-89300670D01*
X107306523Y-89241892D01*
X107302280Y-89220840D01*
X107285369Y-89070750D01*
X107285368Y-89070745D01*
X107225788Y-88900476D01*
X107129815Y-88747737D01*
X107002262Y-88620184D01*
X106849523Y-88524211D01*
X106679254Y-88464631D01*
X106679249Y-88464630D01*
X106500004Y-88444435D01*
X106499996Y-88444435D01*
X106320750Y-88464630D01*
X106320745Y-88464631D01*
X106150476Y-88524211D01*
X105997737Y-88620184D01*
X105870184Y-88747737D01*
X105774211Y-88900476D01*
X105714631Y-89070745D01*
X105714630Y-89070750D01*
X105694435Y-89249996D01*
X105694435Y-89250003D01*
X105714630Y-89429249D01*
X105714631Y-89429254D01*
X105774211Y-89599523D01*
X105870185Y-89752263D01*
X105872445Y-89755097D01*
X105873334Y-89757275D01*
X105873889Y-89758158D01*
X105873734Y-89758255D01*
X105898855Y-89819783D01*
X105899500Y-89832412D01*
X105899500Y-90249900D01*
X105879815Y-90316939D01*
X105863181Y-90337581D01*
X105825081Y-90375681D01*
X105763758Y-90409166D01*
X105737400Y-90412000D01*
X105249998Y-90412000D01*
X105249980Y-90412001D01*
X105147203Y-90422500D01*
X105147200Y-90422501D01*
X104980668Y-90477685D01*
X104980663Y-90477687D01*
X104831342Y-90569789D01*
X104707289Y-90693842D01*
X104615187Y-90843163D01*
X104615186Y-90843166D01*
X104560001Y-91009703D01*
X104560001Y-91009704D01*
X104560000Y-91009704D01*
X104549500Y-91112483D01*
X104549500Y-91737501D01*
X104549501Y-91737519D01*
X104560000Y-91840296D01*
X104560001Y-91840299D01*
X104615185Y-92006831D01*
X104615187Y-92006836D01*
X104707289Y-92156157D01*
X104800951Y-92249819D01*
X104834436Y-92311142D01*
X104829452Y-92380834D01*
X104800951Y-92425181D01*
X104707289Y-92518842D01*
X104615187Y-92668163D01*
X104615186Y-92668166D01*
X104560001Y-92834703D01*
X104560001Y-92834704D01*
X104560000Y-92834704D01*
X104549500Y-92937483D01*
X104549500Y-93511831D01*
X104529815Y-93578870D01*
X104477011Y-93624625D01*
X104407853Y-93634569D01*
X104383091Y-93628353D01*
X104362011Y-93620681D01*
X104362010Y-93620680D01*
X104362008Y-93620680D01*
X104021915Y-93540077D01*
X103978519Y-93535004D01*
X103674759Y-93499500D01*
X103325241Y-93499500D01*
X103021480Y-93535004D01*
X102978085Y-93540077D01*
X102978083Y-93540077D01*
X102637990Y-93620680D01*
X102637987Y-93620681D01*
X102309547Y-93740223D01*
X102309541Y-93740226D01*
X101997203Y-93897088D01*
X101705194Y-94089146D01*
X101705186Y-94089152D01*
X101437442Y-94313817D01*
X101437440Y-94313819D01*
X101214694Y-94549915D01*
X101154371Y-94585169D01*
X101084564Y-94582214D01*
X101027436Y-94541987D01*
X101001126Y-94477260D01*
X101000500Y-94464821D01*
X101000500Y-55222405D01*
X101020185Y-55155366D01*
X101072989Y-55109611D01*
X101142147Y-55099667D01*
X101205703Y-55128692D01*
X101238359Y-55173291D01*
X101314107Y-55348895D01*
X101314113Y-55348908D01*
X101488870Y-55651597D01*
X101697584Y-55931949D01*
X101697589Y-55931955D01*
X101795346Y-56035570D01*
X101937442Y-56186183D01*
X102100503Y-56323007D01*
X102205186Y-56410847D01*
X102205194Y-56410853D01*
X102497203Y-56602911D01*
X102739575Y-56724635D01*
X102809549Y-56759777D01*
X103137989Y-56879319D01*
X103478086Y-56959923D01*
X103825241Y-57000500D01*
X103825248Y-57000500D01*
X104174752Y-57000500D01*
X104174759Y-57000500D01*
X104521914Y-56959923D01*
X104862011Y-56879319D01*
X105190451Y-56759777D01*
X105502793Y-56602913D01*
X105794811Y-56410849D01*
X106062558Y-56186183D01*
X106302412Y-55931953D01*
X106511130Y-55651596D01*
X106685889Y-55348904D01*
X106824326Y-55027971D01*
X106924569Y-54693136D01*
X106925628Y-54687135D01*
X106985260Y-54348938D01*
X106985259Y-54348938D01*
X106985262Y-54348927D01*
X107005585Y-54000000D01*
X106985262Y-53651073D01*
X106979344Y-53617508D01*
X106924571Y-53306872D01*
X106924569Y-53306865D01*
X106883279Y-53168946D01*
X106824326Y-52972029D01*
X106685889Y-52651096D01*
X106511130Y-52348404D01*
X106511129Y-52348402D01*
X106302415Y-52068050D01*
X106302410Y-52068044D01*
X106186433Y-51945117D01*
X106062558Y-51813817D01*
X105834044Y-51622071D01*
X105794813Y-51589152D01*
X105794805Y-51589146D01*
X105502796Y-51397088D01*
X105190458Y-51240226D01*
X105187141Y-51238795D01*
X105187738Y-51237409D01*
X105136379Y-51199592D01*
X105111447Y-51134322D01*
X105125759Y-51065934D01*
X105174773Y-51016140D01*
X105235057Y-51000500D01*
X163120500Y-51000500D01*
X163187539Y-51020185D01*
G37*
%TD.AperFunction*%
%TA.AperFunction,Conductor*%
G36*
X158068334Y-63030627D02*
G01*
X158112681Y-63059128D01*
X159005115Y-63951562D01*
X159068351Y-63867090D01*
X159118597Y-63732376D01*
X159118598Y-63732372D01*
X159124999Y-63672844D01*
X159125000Y-63672827D01*
X159125000Y-63641636D01*
X159144685Y-63574597D01*
X159197489Y-63528842D01*
X159266647Y-63518898D01*
X159289955Y-63524595D01*
X159320737Y-63535366D01*
X159320743Y-63535367D01*
X159320745Y-63535368D01*
X159320746Y-63535368D01*
X159327532Y-63536917D01*
X159326846Y-63539922D01*
X159378649Y-63561597D01*
X159418293Y-63619131D01*
X159424500Y-63657864D01*
X159424500Y-63672866D01*
X159424501Y-63672876D01*
X159430908Y-63732483D01*
X159481202Y-63867328D01*
X159481206Y-63867335D01*
X159567452Y-63982544D01*
X159567455Y-63982547D01*
X159682664Y-64068793D01*
X159682671Y-64068797D01*
X159817517Y-64119091D01*
X159817516Y-64119091D01*
X159824444Y-64119835D01*
X159877127Y-64125500D01*
X161172872Y-64125499D01*
X161232483Y-64119091D01*
X161328396Y-64083318D01*
X161371729Y-64075500D01*
X161664959Y-64075500D01*
X161731998Y-64095185D01*
X161777753Y-64147989D01*
X161787697Y-64217147D01*
X161758769Y-64280588D01*
X161606633Y-64456590D01*
X161547900Y-64494435D01*
X161512823Y-64499500D01*
X157499096Y-64499500D01*
X157432057Y-64479815D01*
X157386302Y-64427011D01*
X157376358Y-64357853D01*
X157405383Y-64294297D01*
X157411396Y-64287837D01*
X157483509Y-64215724D01*
X157483514Y-64215721D01*
X157493714Y-64205520D01*
X157493716Y-64205520D01*
X157537917Y-64161319D01*
X157599240Y-64127834D01*
X157625598Y-64125000D01*
X158471446Y-64125000D01*
X158471446Y-64124999D01*
X157761819Y-63415372D01*
X157728334Y-63354049D01*
X157725500Y-63327691D01*
X157725500Y-63322309D01*
X157745185Y-63255270D01*
X157761819Y-63234628D01*
X157937319Y-63059128D01*
X157998642Y-63025643D01*
X158068334Y-63030627D01*
G37*
%TD.AperFunction*%
%TD*%
%TA.AperFunction,Conductor*%
%TO.N,+5V*%
G36*
X175831982Y-51020185D02*
G01*
X175877737Y-51072989D01*
X175887681Y-51142147D01*
X175858656Y-51205703D01*
X175812339Y-51237590D01*
X175812859Y-51238795D01*
X175809541Y-51240226D01*
X175497203Y-51397088D01*
X175205194Y-51589146D01*
X175205186Y-51589152D01*
X174937442Y-51813817D01*
X174937440Y-51813819D01*
X174697589Y-52068044D01*
X174697584Y-52068050D01*
X174488870Y-52348402D01*
X174314113Y-52651091D01*
X174314107Y-52651104D01*
X174175674Y-52972027D01*
X174075430Y-53306865D01*
X174075428Y-53306872D01*
X174014739Y-53651061D01*
X174014738Y-53651072D01*
X173994415Y-53999996D01*
X173994415Y-54000003D01*
X174014738Y-54348927D01*
X174014739Y-54348938D01*
X174075428Y-54693127D01*
X174075430Y-54693134D01*
X174175674Y-55027972D01*
X174314107Y-55348895D01*
X174314113Y-55348908D01*
X174488870Y-55651597D01*
X174697584Y-55931949D01*
X174697589Y-55931955D01*
X174821463Y-56063253D01*
X174937442Y-56186183D01*
X175088426Y-56312873D01*
X175205186Y-56410847D01*
X175205194Y-56410853D01*
X175497203Y-56602911D01*
X175497207Y-56602913D01*
X175809549Y-56759777D01*
X176137989Y-56879319D01*
X176478086Y-56959923D01*
X176825241Y-57000500D01*
X176825248Y-57000500D01*
X177174752Y-57000500D01*
X177174759Y-57000500D01*
X177521914Y-56959923D01*
X177862011Y-56879319D01*
X178190451Y-56759777D01*
X178502793Y-56602913D01*
X178794805Y-56410853D01*
X178794807Y-56410852D01*
X178795781Y-56410035D01*
X178796082Y-56409903D01*
X178797705Y-56408695D01*
X178797984Y-56409070D01*
X178859785Y-56382013D01*
X178928779Y-56393043D01*
X178980857Y-56439622D01*
X178999500Y-56505013D01*
X178999500Y-65981787D01*
X178979815Y-66048826D01*
X178927011Y-66094581D01*
X178857853Y-66104525D01*
X178794297Y-66075500D01*
X178778016Y-66056359D01*
X178777193Y-66057011D01*
X178772711Y-66051343D01*
X178648657Y-65927289D01*
X178648656Y-65927288D01*
X178507442Y-65840187D01*
X178499336Y-65835187D01*
X178499331Y-65835185D01*
X178497862Y-65834698D01*
X178332797Y-65780001D01*
X178332795Y-65780000D01*
X178230010Y-65769500D01*
X177604998Y-65769500D01*
X177604980Y-65769501D01*
X177502203Y-65780000D01*
X177502200Y-65780001D01*
X177335668Y-65835185D01*
X177335663Y-65835187D01*
X177186342Y-65927289D01*
X177092681Y-66020951D01*
X177031358Y-66054436D01*
X176961666Y-66049452D01*
X176917319Y-66020951D01*
X176823657Y-65927289D01*
X176823656Y-65927288D01*
X176682442Y-65840187D01*
X176674336Y-65835187D01*
X176674331Y-65835185D01*
X176672862Y-65834698D01*
X176507797Y-65780001D01*
X176507795Y-65780000D01*
X176405010Y-65769500D01*
X175779998Y-65769500D01*
X175779980Y-65769501D01*
X175677203Y-65780000D01*
X175677200Y-65780001D01*
X175510668Y-65835185D01*
X175510663Y-65835187D01*
X175361342Y-65927289D01*
X175237289Y-66051342D01*
X175145187Y-66200663D01*
X175145186Y-66200666D01*
X175090001Y-66367203D01*
X175090001Y-66367204D01*
X175090000Y-66367204D01*
X175079500Y-66469983D01*
X175079500Y-67470001D01*
X175079501Y-67470019D01*
X175090000Y-67572796D01*
X175090001Y-67572799D01*
X175145185Y-67739331D01*
X175145187Y-67739336D01*
X175179108Y-67794331D01*
X175237288Y-67888656D01*
X175361344Y-68012712D01*
X175510666Y-68104814D01*
X175677203Y-68159999D01*
X175779991Y-68170500D01*
X176405008Y-68170499D01*
X176405016Y-68170498D01*
X176405019Y-68170498D01*
X176461302Y-68164748D01*
X176507797Y-68159999D01*
X176674334Y-68104814D01*
X176823656Y-68012712D01*
X176917319Y-67919049D01*
X176978642Y-67885564D01*
X177048334Y-67890548D01*
X177092681Y-67919049D01*
X177186344Y-68012712D01*
X177335666Y-68104814D01*
X177502203Y-68159999D01*
X177604991Y-68170500D01*
X178230008Y-68170499D01*
X178230016Y-68170498D01*
X178230019Y-68170498D01*
X178286302Y-68164748D01*
X178332797Y-68159999D01*
X178499334Y-68104814D01*
X178648656Y-68012712D01*
X178772712Y-67888656D01*
X178772715Y-67888650D01*
X178777193Y-67882989D01*
X178779337Y-67884684D01*
X178821901Y-67846394D01*
X178890863Y-67835167D01*
X178954947Y-67863006D01*
X178993807Y-67921072D01*
X178999500Y-67958212D01*
X178999500Y-68931787D01*
X178979815Y-68998826D01*
X178927011Y-69044581D01*
X178857853Y-69054525D01*
X178794297Y-69025500D01*
X178778016Y-69006359D01*
X178777193Y-69007011D01*
X178772711Y-69001343D01*
X178648657Y-68877289D01*
X178648656Y-68877288D01*
X178499334Y-68785186D01*
X178332797Y-68730001D01*
X178332795Y-68730000D01*
X178230010Y-68719500D01*
X177604998Y-68719500D01*
X177604980Y-68719501D01*
X177502203Y-68730000D01*
X177502200Y-68730001D01*
X177335668Y-68785185D01*
X177335663Y-68785187D01*
X177186342Y-68877289D01*
X177092681Y-68970951D01*
X177031358Y-69004436D01*
X176961666Y-68999452D01*
X176917319Y-68970951D01*
X176823657Y-68877289D01*
X176823656Y-68877288D01*
X176674334Y-68785186D01*
X176507797Y-68730001D01*
X176507795Y-68730000D01*
X176405010Y-68719500D01*
X175779998Y-68719500D01*
X175779980Y-68719501D01*
X175677203Y-68730000D01*
X175677200Y-68730001D01*
X175510668Y-68785185D01*
X175510663Y-68785187D01*
X175361342Y-68877289D01*
X175237289Y-69001342D01*
X175145187Y-69150663D01*
X175145186Y-69150666D01*
X175090001Y-69317203D01*
X175090001Y-69317204D01*
X175090000Y-69317204D01*
X175079500Y-69419983D01*
X175079500Y-70420001D01*
X175079501Y-70420019D01*
X175090000Y-70522796D01*
X175090001Y-70522799D01*
X175128108Y-70637796D01*
X175145186Y-70689334D01*
X175237288Y-70838656D01*
X175361344Y-70962712D01*
X175510666Y-71054814D01*
X175677203Y-71109999D01*
X175779991Y-71120500D01*
X176405008Y-71120499D01*
X176405016Y-71120498D01*
X176405019Y-71120498D01*
X176461302Y-71114748D01*
X176507797Y-71109999D01*
X176674334Y-71054814D01*
X176823656Y-70962712D01*
X176917319Y-70869049D01*
X176978642Y-70835564D01*
X177048334Y-70840548D01*
X177092681Y-70869049D01*
X177186344Y-70962712D01*
X177335666Y-71054814D01*
X177502203Y-71109999D01*
X177604991Y-71120500D01*
X178230008Y-71120499D01*
X178230016Y-71120498D01*
X178230019Y-71120498D01*
X178286302Y-71114748D01*
X178332797Y-71109999D01*
X178499334Y-71054814D01*
X178648656Y-70962712D01*
X178772712Y-70838656D01*
X178772715Y-70838650D01*
X178777193Y-70832989D01*
X178779337Y-70834684D01*
X178821901Y-70796394D01*
X178890863Y-70785167D01*
X178954947Y-70813006D01*
X178993807Y-70871072D01*
X178999500Y-70908212D01*
X178999500Y-71881787D01*
X178979815Y-71948826D01*
X178927011Y-71994581D01*
X178857853Y-72004525D01*
X178794297Y-71975500D01*
X178778016Y-71956359D01*
X178777193Y-71957011D01*
X178772711Y-71951343D01*
X178648657Y-71827289D01*
X178648656Y-71827288D01*
X178499334Y-71735186D01*
X178332797Y-71680001D01*
X178332795Y-71680000D01*
X178230010Y-71669500D01*
X177604998Y-71669500D01*
X177604980Y-71669501D01*
X177502203Y-71680000D01*
X177502200Y-71680001D01*
X177335668Y-71735185D01*
X177335663Y-71735187D01*
X177186345Y-71827287D01*
X177092327Y-71921305D01*
X177031003Y-71954789D01*
X176961312Y-71949805D01*
X176916965Y-71921304D01*
X176823345Y-71827684D01*
X176674124Y-71735643D01*
X176674119Y-71735641D01*
X176507697Y-71680494D01*
X176507690Y-71680493D01*
X176404986Y-71670000D01*
X176342500Y-71670000D01*
X176342500Y-74069999D01*
X176404972Y-74069999D01*
X176404986Y-74069998D01*
X176507697Y-74059505D01*
X176674119Y-74004358D01*
X176674124Y-74004356D01*
X176823342Y-73912317D01*
X176916964Y-73818695D01*
X176978287Y-73785210D01*
X177047979Y-73790194D01*
X177092327Y-73818695D01*
X177186344Y-73912712D01*
X177335666Y-74004814D01*
X177502203Y-74059999D01*
X177604991Y-74070500D01*
X178230008Y-74070499D01*
X178230016Y-74070498D01*
X178230019Y-74070498D01*
X178286302Y-74064748D01*
X178332797Y-74059999D01*
X178499334Y-74004814D01*
X178648656Y-73912712D01*
X178772712Y-73788656D01*
X178772715Y-73788650D01*
X178777193Y-73782989D01*
X178779337Y-73784684D01*
X178821901Y-73746394D01*
X178890863Y-73735167D01*
X178954947Y-73763006D01*
X178993807Y-73821072D01*
X178999500Y-73858212D01*
X178999500Y-74831787D01*
X178979815Y-74898826D01*
X178927011Y-74944581D01*
X178857853Y-74954525D01*
X178794297Y-74925500D01*
X178778016Y-74906359D01*
X178777193Y-74907011D01*
X178772711Y-74901343D01*
X178648657Y-74777289D01*
X178648656Y-74777288D01*
X178499334Y-74685186D01*
X178332797Y-74630001D01*
X178332795Y-74630000D01*
X178230010Y-74619500D01*
X177604998Y-74619500D01*
X177604980Y-74619501D01*
X177502203Y-74630000D01*
X177502200Y-74630001D01*
X177335668Y-74685185D01*
X177335663Y-74685187D01*
X177186342Y-74777289D01*
X177092681Y-74870951D01*
X177031358Y-74904436D01*
X176961666Y-74899452D01*
X176917319Y-74870951D01*
X176823657Y-74777289D01*
X176823656Y-74777288D01*
X176674334Y-74685186D01*
X176507797Y-74630001D01*
X176507795Y-74630000D01*
X176405010Y-74619500D01*
X175779998Y-74619500D01*
X175779980Y-74619501D01*
X175677203Y-74630000D01*
X175677200Y-74630001D01*
X175510668Y-74685185D01*
X175510663Y-74685187D01*
X175361342Y-74777289D01*
X175237289Y-74901342D01*
X175145187Y-75050663D01*
X175145185Y-75050668D01*
X175122637Y-75118713D01*
X175090001Y-75217203D01*
X175090001Y-75217204D01*
X175090000Y-75217204D01*
X175079500Y-75319983D01*
X175079500Y-76320001D01*
X175079501Y-76320019D01*
X175090000Y-76422796D01*
X175090001Y-76422799D01*
X175114092Y-76495499D01*
X175145186Y-76589334D01*
X175237288Y-76738656D01*
X175361344Y-76862712D01*
X175510666Y-76954814D01*
X175677203Y-77009999D01*
X175779991Y-77020500D01*
X176405008Y-77020499D01*
X176405016Y-77020498D01*
X176405019Y-77020498D01*
X176461302Y-77014748D01*
X176507797Y-77009999D01*
X176674334Y-76954814D01*
X176823656Y-76862712D01*
X176917319Y-76769049D01*
X176978642Y-76735564D01*
X177048334Y-76740548D01*
X177092681Y-76769049D01*
X177186344Y-76862712D01*
X177335666Y-76954814D01*
X177502203Y-77009999D01*
X177604991Y-77020500D01*
X178230008Y-77020499D01*
X178230016Y-77020498D01*
X178230019Y-77020498D01*
X178286302Y-77014748D01*
X178332797Y-77009999D01*
X178499334Y-76954814D01*
X178648656Y-76862712D01*
X178772712Y-76738656D01*
X178772715Y-76738650D01*
X178777193Y-76732989D01*
X178779337Y-76734684D01*
X178821901Y-76696394D01*
X178890863Y-76685167D01*
X178954947Y-76713006D01*
X178993807Y-76771072D01*
X178999500Y-76808212D01*
X178999500Y-94464821D01*
X178979815Y-94531860D01*
X178927011Y-94577615D01*
X178857853Y-94587559D01*
X178794297Y-94558534D01*
X178785306Y-94549915D01*
X178688175Y-94446963D01*
X178562558Y-94313817D01*
X178414488Y-94189572D01*
X178294813Y-94089152D01*
X178294805Y-94089146D01*
X178002796Y-93897088D01*
X177690458Y-93740226D01*
X177690452Y-93740223D01*
X177362012Y-93620681D01*
X177362009Y-93620680D01*
X177021915Y-93540077D01*
X176978519Y-93535004D01*
X176674759Y-93499500D01*
X176325241Y-93499500D01*
X176021480Y-93535004D01*
X175978085Y-93540077D01*
X175978083Y-93540077D01*
X175637990Y-93620680D01*
X175637987Y-93620681D01*
X175309547Y-93740223D01*
X175309541Y-93740226D01*
X174997203Y-93897088D01*
X174705194Y-94089146D01*
X174705186Y-94089152D01*
X174437442Y-94313817D01*
X174437440Y-94313819D01*
X174197589Y-94568044D01*
X174197584Y-94568050D01*
X173988870Y-94848402D01*
X173814113Y-95151091D01*
X173814107Y-95151104D01*
X173675674Y-95472027D01*
X173575430Y-95806865D01*
X173575428Y-95806872D01*
X173514739Y-96151061D01*
X173514738Y-96151072D01*
X173494415Y-96499996D01*
X173494415Y-96500003D01*
X173514738Y-96848927D01*
X173514739Y-96848938D01*
X173575428Y-97193127D01*
X173575430Y-97193134D01*
X173675674Y-97527972D01*
X173814107Y-97848895D01*
X173814113Y-97848908D01*
X173988870Y-98151597D01*
X174197584Y-98431949D01*
X174197589Y-98431955D01*
X174320158Y-98561869D01*
X174437442Y-98686183D01*
X174549858Y-98780511D01*
X174588560Y-98838682D01*
X174589668Y-98908543D01*
X174552831Y-98967913D01*
X174489744Y-98997942D01*
X174470152Y-98999500D01*
X141521631Y-98999500D01*
X141454592Y-98979815D01*
X141408837Y-98927011D01*
X141398893Y-98857853D01*
X141427918Y-98794297D01*
X141440624Y-98781618D01*
X150750000Y-90750000D01*
X150769811Y-89700001D01*
X158251177Y-89700001D01*
X158270443Y-89969382D01*
X158287356Y-90047126D01*
X158327850Y-90233270D01*
X158342276Y-90271947D01*
X158422228Y-90486308D01*
X158422230Y-90486312D01*
X158551652Y-90723331D01*
X158551657Y-90723339D01*
X158713493Y-90939527D01*
X158713509Y-90939545D01*
X158904454Y-91130490D01*
X158904472Y-91130506D01*
X159120660Y-91292342D01*
X159120668Y-91292347D01*
X159357687Y-91421769D01*
X159357691Y-91421771D01*
X159357693Y-91421772D01*
X159610730Y-91516150D01*
X159742676Y-91544853D01*
X159874617Y-91573556D01*
X159874619Y-91573556D01*
X159874623Y-91573557D01*
X160114007Y-91590677D01*
X160143999Y-91592823D01*
X160144000Y-91592823D01*
X160144001Y-91592823D01*
X160170987Y-91590892D01*
X160413377Y-91573557D01*
X160677270Y-91516150D01*
X160930307Y-91421772D01*
X161167337Y-91292344D01*
X161383535Y-91130500D01*
X161574500Y-90939535D01*
X161736344Y-90723337D01*
X161865772Y-90486307D01*
X161960150Y-90233270D01*
X162017557Y-89969377D01*
X162036823Y-89700001D01*
X162451177Y-89700001D01*
X162470443Y-89969382D01*
X162487356Y-90047126D01*
X162527850Y-90233270D01*
X162542276Y-90271947D01*
X162622228Y-90486308D01*
X162622230Y-90486312D01*
X162751652Y-90723331D01*
X162751657Y-90723339D01*
X162913493Y-90939527D01*
X162913509Y-90939545D01*
X163104454Y-91130490D01*
X163104472Y-91130506D01*
X163320660Y-91292342D01*
X163320668Y-91292347D01*
X163557687Y-91421769D01*
X163557691Y-91421771D01*
X163557693Y-91421772D01*
X163810730Y-91516150D01*
X163942676Y-91544853D01*
X164074617Y-91573556D01*
X164074619Y-91573556D01*
X164074623Y-91573557D01*
X164314007Y-91590677D01*
X164343999Y-91592823D01*
X164344000Y-91592823D01*
X164344001Y-91592823D01*
X164370987Y-91590892D01*
X164613377Y-91573557D01*
X164877270Y-91516150D01*
X165130307Y-91421772D01*
X165367337Y-91292344D01*
X165583535Y-91130500D01*
X165774500Y-90939535D01*
X165936344Y-90723337D01*
X166065772Y-90486307D01*
X166160150Y-90233270D01*
X166217557Y-89969377D01*
X166228500Y-89816372D01*
X169868500Y-89816372D01*
X169898879Y-90047126D01*
X169948754Y-90233263D01*
X169959120Y-90271947D01*
X170048180Y-90486960D01*
X170048188Y-90486976D01*
X170164553Y-90688524D01*
X170164564Y-90688540D01*
X170306242Y-90873179D01*
X170306248Y-90873186D01*
X170470813Y-91037751D01*
X170470819Y-91037756D01*
X170655468Y-91179442D01*
X170655475Y-91179446D01*
X170857023Y-91295811D01*
X170857039Y-91295819D01*
X171072052Y-91384879D01*
X171072054Y-91384879D01*
X171072060Y-91384882D01*
X171296874Y-91445121D01*
X171527628Y-91475500D01*
X171527635Y-91475500D01*
X171760365Y-91475500D01*
X171760372Y-91475500D01*
X171991126Y-91445121D01*
X172215940Y-91384882D01*
X172273953Y-91360852D01*
X172430960Y-91295819D01*
X172430963Y-91295817D01*
X172430969Y-91295815D01*
X172632532Y-91179442D01*
X172817181Y-91037756D01*
X172981756Y-90873181D01*
X173123442Y-90688532D01*
X173239815Y-90486969D01*
X173328882Y-90271940D01*
X173389121Y-90047126D01*
X173419500Y-89816372D01*
X173419500Y-89583628D01*
X173389121Y-89352874D01*
X173328882Y-89128060D01*
X173295867Y-89048353D01*
X173239819Y-88913039D01*
X173239811Y-88913023D01*
X173123446Y-88711475D01*
X173123442Y-88711468D01*
X172981756Y-88526819D01*
X172981751Y-88526813D01*
X172817186Y-88362248D01*
X172817179Y-88362242D01*
X172632540Y-88220564D01*
X172632538Y-88220562D01*
X172632532Y-88220558D01*
X172632527Y-88220555D01*
X172632524Y-88220553D01*
X172430976Y-88104188D01*
X172430960Y-88104180D01*
X172215947Y-88015120D01*
X172078272Y-87978230D01*
X171991126Y-87954879D01*
X171991125Y-87954878D01*
X171991122Y-87954878D01*
X171760382Y-87924501D01*
X171760377Y-87924500D01*
X171760372Y-87924500D01*
X171527628Y-87924500D01*
X171527622Y-87924500D01*
X171527617Y-87924501D01*
X171296877Y-87954878D01*
X171072052Y-88015120D01*
X170857039Y-88104180D01*
X170857023Y-88104188D01*
X170655475Y-88220553D01*
X170655459Y-88220564D01*
X170470820Y-88362242D01*
X170470813Y-88362248D01*
X170306248Y-88526813D01*
X170306242Y-88526820D01*
X170164564Y-88711459D01*
X170164553Y-88711475D01*
X170048188Y-88913023D01*
X170048180Y-88913039D01*
X169959120Y-89128052D01*
X169898878Y-89352877D01*
X169888644Y-89430617D01*
X169868500Y-89583628D01*
X169868500Y-89816372D01*
X166228500Y-89816372D01*
X166236823Y-89700000D01*
X166217557Y-89430623D01*
X166160150Y-89166730D01*
X166065772Y-88913693D01*
X165973103Y-88743983D01*
X165936347Y-88676668D01*
X165936342Y-88676660D01*
X165774506Y-88460472D01*
X165774490Y-88460454D01*
X165583545Y-88269509D01*
X165583527Y-88269493D01*
X165367339Y-88107657D01*
X165367331Y-88107652D01*
X165159073Y-87993935D01*
X165109668Y-87944530D01*
X165094500Y-87885103D01*
X165094500Y-87314897D01*
X165114185Y-87247858D01*
X165159073Y-87206065D01*
X165282694Y-87138562D01*
X165367337Y-87092344D01*
X165583535Y-86930500D01*
X165774500Y-86739535D01*
X165936344Y-86523337D01*
X166065772Y-86286307D01*
X166160150Y-86033270D01*
X166217557Y-85769377D01*
X166236823Y-85500000D01*
X166217557Y-85230623D01*
X166160150Y-84966730D01*
X166065772Y-84713693D01*
X165936344Y-84476663D01*
X165936342Y-84476660D01*
X165774506Y-84260472D01*
X165774490Y-84260454D01*
X165583545Y-84069509D01*
X165583527Y-84069493D01*
X165367339Y-83907657D01*
X165367331Y-83907652D01*
X165159073Y-83793935D01*
X165109668Y-83744530D01*
X165094500Y-83685103D01*
X165094500Y-83114897D01*
X165114185Y-83047858D01*
X165159073Y-83006065D01*
X165360980Y-82895815D01*
X165367337Y-82892344D01*
X165583535Y-82730500D01*
X165774500Y-82539535D01*
X165936344Y-82323337D01*
X166065772Y-82086307D01*
X166160150Y-81833270D01*
X166217557Y-81569377D01*
X166228500Y-81416372D01*
X169868500Y-81416372D01*
X169898879Y-81647126D01*
X169948754Y-81833263D01*
X169959120Y-81871947D01*
X170048180Y-82086960D01*
X170048188Y-82086976D01*
X170164553Y-82288524D01*
X170164564Y-82288540D01*
X170306242Y-82473179D01*
X170306248Y-82473186D01*
X170470813Y-82637751D01*
X170470819Y-82637756D01*
X170655468Y-82779442D01*
X170655475Y-82779446D01*
X170857023Y-82895811D01*
X170857039Y-82895819D01*
X171072052Y-82984879D01*
X171072054Y-82984879D01*
X171072060Y-82984882D01*
X171296874Y-83045121D01*
X171527628Y-83075500D01*
X171527635Y-83075500D01*
X171760365Y-83075500D01*
X171760372Y-83075500D01*
X171991126Y-83045121D01*
X172215940Y-82984882D01*
X172273953Y-82960852D01*
X172430960Y-82895819D01*
X172430963Y-82895817D01*
X172430969Y-82895815D01*
X172632532Y-82779442D01*
X172817181Y-82637756D01*
X172981756Y-82473181D01*
X173123442Y-82288532D01*
X173239815Y-82086969D01*
X173328882Y-81871940D01*
X173389121Y-81647126D01*
X173419500Y-81416372D01*
X173419500Y-81183628D01*
X173389121Y-80952874D01*
X173328882Y-80728060D01*
X173328879Y-80728052D01*
X173239819Y-80513039D01*
X173239811Y-80513023D01*
X173123446Y-80311475D01*
X173123442Y-80311468D01*
X173082647Y-80258303D01*
X172981757Y-80126820D01*
X172981751Y-80126813D01*
X172817186Y-79962248D01*
X172817179Y-79962242D01*
X172632540Y-79820564D01*
X172632538Y-79820562D01*
X172632532Y-79820558D01*
X172632527Y-79820555D01*
X172632524Y-79820553D01*
X172430976Y-79704188D01*
X172430960Y-79704180D01*
X172215947Y-79615120D01*
X172078272Y-79578230D01*
X171991126Y-79554879D01*
X171991125Y-79554878D01*
X171991122Y-79554878D01*
X171760382Y-79524501D01*
X171760377Y-79524500D01*
X171760372Y-79524500D01*
X171527628Y-79524500D01*
X171527622Y-79524500D01*
X171527617Y-79524501D01*
X171296877Y-79554878D01*
X171072052Y-79615120D01*
X170857039Y-79704180D01*
X170857023Y-79704188D01*
X170655475Y-79820553D01*
X170655459Y-79820564D01*
X170470820Y-79962242D01*
X170470813Y-79962248D01*
X170306248Y-80126813D01*
X170306242Y-80126820D01*
X170164564Y-80311459D01*
X170164553Y-80311475D01*
X170048188Y-80513023D01*
X170048180Y-80513039D01*
X169959120Y-80728052D01*
X169898878Y-80952877D01*
X169868501Y-81183617D01*
X169868500Y-81183628D01*
X169868500Y-81416372D01*
X166228500Y-81416372D01*
X166236823Y-81300000D01*
X166217557Y-81030623D01*
X166205628Y-80975789D01*
X166160151Y-80766736D01*
X166160150Y-80766730D01*
X166065772Y-80513693D01*
X166019665Y-80429255D01*
X165936347Y-80276668D01*
X165936342Y-80276660D01*
X165774506Y-80060472D01*
X165774490Y-80060454D01*
X165583545Y-79869509D01*
X165583527Y-79869493D01*
X165367339Y-79707657D01*
X165367331Y-79707652D01*
X165130312Y-79578230D01*
X165130308Y-79578228D01*
X164986259Y-79524501D01*
X164877270Y-79483850D01*
X164877266Y-79483849D01*
X164877263Y-79483848D01*
X164613382Y-79426443D01*
X164344001Y-79407177D01*
X164343999Y-79407177D01*
X164074617Y-79426443D01*
X163810736Y-79483848D01*
X163810731Y-79483849D01*
X163810730Y-79483850D01*
X163749551Y-79506668D01*
X163557691Y-79578228D01*
X163557687Y-79578230D01*
X163320668Y-79707652D01*
X163320660Y-79707657D01*
X163104472Y-79869493D01*
X163104454Y-79869509D01*
X162913509Y-80060454D01*
X162913493Y-80060472D01*
X162751657Y-80276660D01*
X162751652Y-80276668D01*
X162622230Y-80513687D01*
X162622228Y-80513691D01*
X162527848Y-80766736D01*
X162470443Y-81030617D01*
X162451177Y-81299998D01*
X162451177Y-81300001D01*
X162470443Y-81569382D01*
X162487356Y-81647126D01*
X162527850Y-81833270D01*
X162542276Y-81871947D01*
X162622228Y-82086308D01*
X162622230Y-82086312D01*
X162751652Y-82323331D01*
X162751657Y-82323339D01*
X162913493Y-82539527D01*
X162913509Y-82539545D01*
X163104454Y-82730490D01*
X163104472Y-82730506D01*
X163320660Y-82892342D01*
X163320668Y-82892347D01*
X163528927Y-83006065D01*
X163578332Y-83055470D01*
X163593500Y-83114897D01*
X163593500Y-83685103D01*
X163573815Y-83752142D01*
X163528927Y-83793935D01*
X163320668Y-83907652D01*
X163320660Y-83907657D01*
X163104472Y-84069493D01*
X163104454Y-84069509D01*
X162913509Y-84260454D01*
X162913493Y-84260472D01*
X162751657Y-84476660D01*
X162751652Y-84476668D01*
X162622230Y-84713687D01*
X162622228Y-84713691D01*
X162527848Y-84966736D01*
X162470443Y-85230617D01*
X162451177Y-85499998D01*
X162451177Y-85500001D01*
X162470443Y-85769382D01*
X162525168Y-86020943D01*
X162527850Y-86033270D01*
X162577014Y-86165084D01*
X162622228Y-86286308D01*
X162622230Y-86286312D01*
X162751652Y-86523331D01*
X162751657Y-86523339D01*
X162913493Y-86739527D01*
X162913509Y-86739545D01*
X163104454Y-86930490D01*
X163104472Y-86930506D01*
X163320660Y-87092342D01*
X163320668Y-87092347D01*
X163528927Y-87206065D01*
X163578332Y-87255470D01*
X163593500Y-87314897D01*
X163593500Y-87885103D01*
X163573815Y-87952142D01*
X163528927Y-87993935D01*
X163320668Y-88107652D01*
X163320660Y-88107657D01*
X163104472Y-88269493D01*
X163104454Y-88269509D01*
X162913509Y-88460454D01*
X162913493Y-88460472D01*
X162751657Y-88676660D01*
X162751652Y-88676668D01*
X162622230Y-88913687D01*
X162622228Y-88913691D01*
X162527848Y-89166736D01*
X162470443Y-89430617D01*
X162451177Y-89699998D01*
X162451177Y-89700001D01*
X162036823Y-89700001D01*
X162036823Y-89700000D01*
X162017557Y-89430623D01*
X161960150Y-89166730D01*
X161865772Y-88913693D01*
X161773103Y-88743983D01*
X161736347Y-88676668D01*
X161736342Y-88676660D01*
X161574506Y-88460472D01*
X161574490Y-88460454D01*
X161383545Y-88269509D01*
X161383527Y-88269493D01*
X161167339Y-88107657D01*
X161167331Y-88107652D01*
X160930312Y-87978230D01*
X160930308Y-87978228D01*
X160786259Y-87924501D01*
X160677270Y-87883850D01*
X160677266Y-87883849D01*
X160677263Y-87883848D01*
X160413382Y-87826443D01*
X160144001Y-87807177D01*
X160143999Y-87807177D01*
X159874617Y-87826443D01*
X159610736Y-87883848D01*
X159610731Y-87883849D01*
X159610730Y-87883850D01*
X159607371Y-87885103D01*
X159357691Y-87978228D01*
X159357687Y-87978230D01*
X159120668Y-88107652D01*
X159120660Y-88107657D01*
X158904472Y-88269493D01*
X158904454Y-88269509D01*
X158713509Y-88460454D01*
X158713493Y-88460472D01*
X158551657Y-88676660D01*
X158551652Y-88676668D01*
X158422230Y-88913687D01*
X158422228Y-88913691D01*
X158327848Y-89166736D01*
X158270443Y-89430617D01*
X158251177Y-89699998D01*
X158251177Y-89700001D01*
X150769811Y-89700001D01*
X150849057Y-85500001D01*
X158251177Y-85500001D01*
X158270443Y-85769382D01*
X158325168Y-86020943D01*
X158327850Y-86033270D01*
X158377014Y-86165084D01*
X158422228Y-86286308D01*
X158422230Y-86286312D01*
X158551652Y-86523331D01*
X158551657Y-86523339D01*
X158713493Y-86739527D01*
X158713509Y-86739545D01*
X158904454Y-86930490D01*
X158904472Y-86930506D01*
X159120660Y-87092342D01*
X159120668Y-87092347D01*
X159357687Y-87221769D01*
X159357691Y-87221771D01*
X159357693Y-87221772D01*
X159610730Y-87316150D01*
X159742676Y-87344853D01*
X159874617Y-87373556D01*
X159874619Y-87373556D01*
X159874623Y-87373557D01*
X160114007Y-87390677D01*
X160143999Y-87392823D01*
X160144000Y-87392823D01*
X160144001Y-87392823D01*
X160170987Y-87390892D01*
X160413377Y-87373557D01*
X160677270Y-87316150D01*
X160930307Y-87221772D01*
X161167337Y-87092344D01*
X161383535Y-86930500D01*
X161574500Y-86739535D01*
X161736344Y-86523337D01*
X161865772Y-86286307D01*
X161960150Y-86033270D01*
X162017557Y-85769377D01*
X162036823Y-85500000D01*
X162017557Y-85230623D01*
X161960150Y-84966730D01*
X161865772Y-84713693D01*
X161736344Y-84476663D01*
X161736342Y-84476660D01*
X161574506Y-84260472D01*
X161574490Y-84260454D01*
X161383545Y-84069509D01*
X161383527Y-84069493D01*
X161167339Y-83907657D01*
X161167331Y-83907652D01*
X160930312Y-83778230D01*
X160930308Y-83778228D01*
X160834377Y-83742448D01*
X160677270Y-83683850D01*
X160677266Y-83683849D01*
X160677263Y-83683848D01*
X160413382Y-83626443D01*
X160144001Y-83607177D01*
X160143999Y-83607177D01*
X159874617Y-83626443D01*
X159610736Y-83683848D01*
X159610731Y-83683849D01*
X159610730Y-83683850D01*
X159607371Y-83685103D01*
X159357691Y-83778228D01*
X159357687Y-83778230D01*
X159120668Y-83907652D01*
X159120660Y-83907657D01*
X158904472Y-84069493D01*
X158904454Y-84069509D01*
X158713509Y-84260454D01*
X158713493Y-84260472D01*
X158551657Y-84476660D01*
X158551652Y-84476668D01*
X158422230Y-84713687D01*
X158422228Y-84713691D01*
X158327848Y-84966736D01*
X158270443Y-85230617D01*
X158251177Y-85499998D01*
X158251177Y-85500001D01*
X150849057Y-85500001D01*
X150928302Y-81300001D01*
X158251177Y-81300001D01*
X158270443Y-81569382D01*
X158287356Y-81647126D01*
X158327850Y-81833270D01*
X158342276Y-81871947D01*
X158422228Y-82086308D01*
X158422230Y-82086312D01*
X158551652Y-82323331D01*
X158551657Y-82323339D01*
X158713493Y-82539527D01*
X158713509Y-82539545D01*
X158904454Y-82730490D01*
X158904472Y-82730506D01*
X159120660Y-82892342D01*
X159120668Y-82892347D01*
X159357687Y-83021769D01*
X159357691Y-83021771D01*
X159357693Y-83021772D01*
X159610730Y-83116150D01*
X159742676Y-83144853D01*
X159874617Y-83173556D01*
X159874619Y-83173556D01*
X159874623Y-83173557D01*
X160114007Y-83190677D01*
X160143999Y-83192823D01*
X160144000Y-83192823D01*
X160144001Y-83192823D01*
X160170987Y-83190892D01*
X160413377Y-83173557D01*
X160677270Y-83116150D01*
X160930307Y-83021772D01*
X161167337Y-82892344D01*
X161383535Y-82730500D01*
X161574500Y-82539535D01*
X161736344Y-82323337D01*
X161865772Y-82086307D01*
X161960150Y-81833270D01*
X162017557Y-81569377D01*
X162036823Y-81300000D01*
X162017557Y-81030623D01*
X162005628Y-80975789D01*
X161960151Y-80766736D01*
X161960150Y-80766730D01*
X161865772Y-80513693D01*
X161819665Y-80429255D01*
X161736347Y-80276668D01*
X161736342Y-80276660D01*
X161574506Y-80060472D01*
X161574490Y-80060454D01*
X161383545Y-79869509D01*
X161383527Y-79869493D01*
X161167339Y-79707657D01*
X161167331Y-79707652D01*
X160930312Y-79578230D01*
X160930308Y-79578228D01*
X160786259Y-79524501D01*
X160677270Y-79483850D01*
X160677266Y-79483849D01*
X160677263Y-79483848D01*
X160413382Y-79426443D01*
X160144001Y-79407177D01*
X160143999Y-79407177D01*
X159874617Y-79426443D01*
X159610736Y-79483848D01*
X159610731Y-79483849D01*
X159610730Y-79483850D01*
X159549551Y-79506668D01*
X159357691Y-79578228D01*
X159357687Y-79578230D01*
X159120668Y-79707652D01*
X159120660Y-79707657D01*
X158904472Y-79869493D01*
X158904454Y-79869509D01*
X158713509Y-80060454D01*
X158713493Y-80060472D01*
X158551657Y-80276660D01*
X158551652Y-80276668D01*
X158422230Y-80513687D01*
X158422228Y-80513691D01*
X158327848Y-80766736D01*
X158270443Y-81030617D01*
X158251177Y-81299998D01*
X158251177Y-81300001D01*
X150928302Y-81300001D01*
X150999154Y-77544828D01*
X151020100Y-77478173D01*
X151029322Y-77466078D01*
X151211349Y-77255498D01*
X151816863Y-76555001D01*
X170624500Y-76555001D01*
X170624501Y-76555019D01*
X170635000Y-76657796D01*
X170635001Y-76657799D01*
X170684844Y-76808212D01*
X170690186Y-76824334D01*
X170782288Y-76973656D01*
X170906344Y-77097712D01*
X171055666Y-77189814D01*
X171222203Y-77244999D01*
X171324991Y-77255500D01*
X171925008Y-77255499D01*
X171925016Y-77255498D01*
X171925019Y-77255498D01*
X171981302Y-77249748D01*
X172027797Y-77244999D01*
X172194334Y-77189814D01*
X172343656Y-77097712D01*
X172467712Y-76973656D01*
X172469461Y-76970819D01*
X172471169Y-76969283D01*
X172472193Y-76967989D01*
X172472414Y-76968163D01*
X172521406Y-76924096D01*
X172590368Y-76912872D01*
X172654451Y-76940713D01*
X172680537Y-76970817D01*
X172682288Y-76973656D01*
X172806344Y-77097712D01*
X172955666Y-77189814D01*
X173122203Y-77244999D01*
X173224991Y-77255500D01*
X173825008Y-77255499D01*
X173825016Y-77255498D01*
X173825019Y-77255498D01*
X173881302Y-77249748D01*
X173927797Y-77244999D01*
X174094334Y-77189814D01*
X174243656Y-77097712D01*
X174367712Y-76973656D01*
X174459814Y-76824334D01*
X174514999Y-76657797D01*
X174525500Y-76555009D01*
X174525499Y-75504992D01*
X174522765Y-75478231D01*
X174514999Y-75402203D01*
X174514998Y-75402200D01*
X174503696Y-75368093D01*
X174459814Y-75235666D01*
X174367712Y-75086344D01*
X174243656Y-74962288D01*
X174149862Y-74904436D01*
X174094336Y-74870187D01*
X174094331Y-74870185D01*
X174089898Y-74868716D01*
X173927797Y-74815001D01*
X173927795Y-74815000D01*
X173825010Y-74804500D01*
X173224998Y-74804500D01*
X173224980Y-74804501D01*
X173122203Y-74815000D01*
X173122200Y-74815001D01*
X172955668Y-74870185D01*
X172955663Y-74870187D01*
X172806342Y-74962289D01*
X172682285Y-75086346D01*
X172680537Y-75089182D01*
X172678829Y-75090717D01*
X172677807Y-75092011D01*
X172677585Y-75091836D01*
X172628589Y-75135905D01*
X172559626Y-75147126D01*
X172495544Y-75119282D01*
X172469463Y-75089182D01*
X172467714Y-75086346D01*
X172343657Y-74962289D01*
X172343656Y-74962288D01*
X172249862Y-74904436D01*
X172194336Y-74870187D01*
X172194331Y-74870185D01*
X172189898Y-74868716D01*
X172027797Y-74815001D01*
X172027795Y-74815000D01*
X171925010Y-74804500D01*
X171324998Y-74804500D01*
X171324980Y-74804501D01*
X171222203Y-74815000D01*
X171222200Y-74815001D01*
X171055668Y-74870185D01*
X171055663Y-74870187D01*
X170906342Y-74962289D01*
X170782289Y-75086342D01*
X170690187Y-75235663D01*
X170690186Y-75235666D01*
X170635001Y-75402203D01*
X170635001Y-75402204D01*
X170635000Y-75402204D01*
X170624500Y-75504983D01*
X170624500Y-76555001D01*
X151816863Y-76555001D01*
X152473812Y-75795001D01*
X165474500Y-75795001D01*
X165474501Y-75795019D01*
X165485000Y-75897796D01*
X165485001Y-75897799D01*
X165513466Y-75983700D01*
X165540186Y-76064334D01*
X165632288Y-76213656D01*
X165756344Y-76337712D01*
X165905666Y-76429814D01*
X166072203Y-76484999D01*
X166174991Y-76495500D01*
X166775008Y-76495499D01*
X166775016Y-76495498D01*
X166775019Y-76495498D01*
X166831302Y-76489748D01*
X166877797Y-76484999D01*
X167044334Y-76429814D01*
X167193656Y-76337712D01*
X167317712Y-76213656D01*
X167319752Y-76210347D01*
X167321745Y-76208555D01*
X167322193Y-76207989D01*
X167322289Y-76208065D01*
X167371694Y-76163623D01*
X167440656Y-76152395D01*
X167504740Y-76180234D01*
X167530829Y-76210339D01*
X167532681Y-76213341D01*
X167532683Y-76213344D01*
X167656654Y-76337315D01*
X167805875Y-76429356D01*
X167805880Y-76429358D01*
X167972302Y-76484505D01*
X167972309Y-76484506D01*
X168075019Y-76494999D01*
X168124999Y-76494998D01*
X168125000Y-76494998D01*
X168125000Y-75520000D01*
X168625000Y-75520000D01*
X168625000Y-76494999D01*
X168674972Y-76494999D01*
X168674986Y-76494998D01*
X168777697Y-76484505D01*
X168944119Y-76429358D01*
X168944124Y-76429356D01*
X169093345Y-76337315D01*
X169217315Y-76213345D01*
X169309356Y-76064124D01*
X169309358Y-76064119D01*
X169364505Y-75897697D01*
X169364506Y-75897690D01*
X169374999Y-75794986D01*
X169375000Y-75794973D01*
X169375000Y-75520000D01*
X168625000Y-75520000D01*
X168125000Y-75520000D01*
X168125000Y-74045000D01*
X168625000Y-74045000D01*
X168625000Y-75020000D01*
X169374999Y-75020000D01*
X169374999Y-74745028D01*
X169374998Y-74745013D01*
X169364505Y-74642302D01*
X169309358Y-74475880D01*
X169309356Y-74475875D01*
X169217315Y-74326654D01*
X169093345Y-74202684D01*
X168944124Y-74110643D01*
X168944119Y-74110641D01*
X168777697Y-74055494D01*
X168777690Y-74055493D01*
X168674986Y-74045000D01*
X168625000Y-74045000D01*
X168125000Y-74045000D01*
X168124999Y-74044999D01*
X168075029Y-74045000D01*
X168075011Y-74045001D01*
X167972302Y-74055494D01*
X167805880Y-74110641D01*
X167805875Y-74110643D01*
X167656654Y-74202684D01*
X167532683Y-74326655D01*
X167532679Y-74326660D01*
X167530826Y-74329665D01*
X167529018Y-74331290D01*
X167528202Y-74332323D01*
X167528025Y-74332183D01*
X167478874Y-74376385D01*
X167409911Y-74387601D01*
X167345831Y-74359752D01*
X167319753Y-74329653D01*
X167319737Y-74329628D01*
X167317712Y-74326344D01*
X167193656Y-74202288D01*
X167100888Y-74145069D01*
X167044336Y-74110187D01*
X167044331Y-74110185D01*
X167036177Y-74107483D01*
X166877797Y-74055001D01*
X166877795Y-74055000D01*
X166775010Y-74044500D01*
X166174998Y-74044500D01*
X166174980Y-74044501D01*
X166072203Y-74055000D01*
X166072200Y-74055001D01*
X165905668Y-74110185D01*
X165905663Y-74110187D01*
X165756342Y-74202289D01*
X165632289Y-74326342D01*
X165540187Y-74475663D01*
X165540185Y-74475668D01*
X165533384Y-74496193D01*
X165485001Y-74642203D01*
X165485001Y-74642204D01*
X165485000Y-74642204D01*
X165474500Y-74744983D01*
X165474500Y-75795001D01*
X152473812Y-75795001D01*
X152798180Y-75419752D01*
X158224500Y-75419752D01*
X158236131Y-75478229D01*
X158236132Y-75478230D01*
X158280447Y-75544552D01*
X158346769Y-75588867D01*
X158346770Y-75588868D01*
X158405247Y-75600499D01*
X158405250Y-75600500D01*
X158405252Y-75600500D01*
X159844750Y-75600500D01*
X159844751Y-75600499D01*
X159859568Y-75597552D01*
X159903229Y-75588868D01*
X159903229Y-75588867D01*
X159903231Y-75588867D01*
X159969552Y-75544552D01*
X160013867Y-75478231D01*
X160013867Y-75478229D01*
X160013868Y-75478229D01*
X160025499Y-75419752D01*
X162624500Y-75419752D01*
X162636131Y-75478229D01*
X162636132Y-75478230D01*
X162680447Y-75544552D01*
X162746769Y-75588867D01*
X162746770Y-75588868D01*
X162805247Y-75600499D01*
X162805250Y-75600500D01*
X162805252Y-75600500D01*
X164244750Y-75600500D01*
X164244751Y-75600499D01*
X164259568Y-75597552D01*
X164303229Y-75588868D01*
X164303229Y-75588867D01*
X164303231Y-75588867D01*
X164369552Y-75544552D01*
X164413867Y-75478231D01*
X164413867Y-75478229D01*
X164413868Y-75478229D01*
X164425499Y-75419752D01*
X164425500Y-75419750D01*
X164425500Y-75080249D01*
X164414349Y-75024192D01*
X164414349Y-74975808D01*
X164425500Y-74919750D01*
X164425500Y-74580249D01*
X164414349Y-74524192D01*
X164414349Y-74475808D01*
X164425500Y-74419750D01*
X164425500Y-74080249D01*
X164414349Y-74024192D01*
X164414349Y-73975808D01*
X164425500Y-73919750D01*
X164425500Y-73580249D01*
X164418488Y-73545001D01*
X170624500Y-73545001D01*
X170624501Y-73545019D01*
X170635000Y-73647796D01*
X170635001Y-73647799D01*
X170675000Y-73768505D01*
X170690186Y-73814334D01*
X170782288Y-73963656D01*
X170906344Y-74087712D01*
X171055666Y-74179814D01*
X171222203Y-74234999D01*
X171324991Y-74245500D01*
X171925008Y-74245499D01*
X171925016Y-74245498D01*
X171925019Y-74245498D01*
X171981302Y-74239748D01*
X172027797Y-74234999D01*
X172194334Y-74179814D01*
X172343656Y-74087712D01*
X172467712Y-73963656D01*
X172469461Y-73960819D01*
X172471169Y-73959283D01*
X172472193Y-73957989D01*
X172472414Y-73958163D01*
X172521406Y-73914096D01*
X172590368Y-73902872D01*
X172654451Y-73930713D01*
X172680537Y-73960817D01*
X172682288Y-73963656D01*
X172806344Y-74087712D01*
X172955666Y-74179814D01*
X173122203Y-74234999D01*
X173224991Y-74245500D01*
X173825008Y-74245499D01*
X173825016Y-74245498D01*
X173825019Y-74245498D01*
X173881302Y-74239748D01*
X173927797Y-74234999D01*
X174094334Y-74179814D01*
X174243656Y-74087712D01*
X174367712Y-73963656D01*
X174459814Y-73814334D01*
X174514999Y-73647797D01*
X174525500Y-73545009D01*
X174525500Y-73120000D01*
X175080001Y-73120000D01*
X175080001Y-73369986D01*
X175090494Y-73472697D01*
X175145641Y-73639119D01*
X175145643Y-73639124D01*
X175237684Y-73788345D01*
X175361654Y-73912315D01*
X175510875Y-74004356D01*
X175510880Y-74004358D01*
X175677302Y-74059505D01*
X175677309Y-74059506D01*
X175780019Y-74069999D01*
X175842499Y-74069998D01*
X175842500Y-74069998D01*
X175842500Y-73120000D01*
X175080001Y-73120000D01*
X174525500Y-73120000D01*
X174525499Y-72620000D01*
X175080000Y-72620000D01*
X175842500Y-72620000D01*
X175842500Y-71670000D01*
X175842499Y-71669999D01*
X175780028Y-71670000D01*
X175780011Y-71670001D01*
X175677302Y-71680494D01*
X175510880Y-71735641D01*
X175510875Y-71735643D01*
X175361654Y-71827684D01*
X175237684Y-71951654D01*
X175145643Y-72100875D01*
X175145641Y-72100880D01*
X175090494Y-72267302D01*
X175090493Y-72267309D01*
X175080000Y-72370013D01*
X175080000Y-72620000D01*
X174525499Y-72620000D01*
X174525499Y-72494992D01*
X174514999Y-72392203D01*
X174459814Y-72225666D01*
X174367712Y-72076344D01*
X174243656Y-71952288D01*
X174094334Y-71860186D01*
X173927797Y-71805001D01*
X173927795Y-71805000D01*
X173825010Y-71794500D01*
X173224998Y-71794500D01*
X173224980Y-71794501D01*
X173122203Y-71805000D01*
X173122200Y-71805001D01*
X172955668Y-71860185D01*
X172955663Y-71860187D01*
X172806342Y-71952289D01*
X172682285Y-72076346D01*
X172680537Y-72079182D01*
X172678829Y-72080717D01*
X172677807Y-72082011D01*
X172677585Y-72081836D01*
X172628589Y-72125905D01*
X172559626Y-72137126D01*
X172495544Y-72109282D01*
X172469463Y-72079182D01*
X172467714Y-72076346D01*
X172343657Y-71952289D01*
X172343656Y-71952288D01*
X172194334Y-71860186D01*
X172027797Y-71805001D01*
X172027795Y-71805000D01*
X171925010Y-71794500D01*
X171324998Y-71794500D01*
X171324980Y-71794501D01*
X171222203Y-71805000D01*
X171222200Y-71805001D01*
X171055668Y-71860185D01*
X171055663Y-71860187D01*
X170906342Y-71952289D01*
X170782289Y-72076342D01*
X170690187Y-72225663D01*
X170690186Y-72225666D01*
X170635001Y-72392203D01*
X170635001Y-72392204D01*
X170635000Y-72392204D01*
X170624500Y-72494983D01*
X170624500Y-73545001D01*
X164418488Y-73545001D01*
X164414349Y-73524192D01*
X164414349Y-73475808D01*
X164425500Y-73419750D01*
X164425500Y-73080249D01*
X164425499Y-73080247D01*
X164413868Y-73021770D01*
X164413867Y-73021769D01*
X164369552Y-72955447D01*
X164303230Y-72911132D01*
X164303229Y-72911131D01*
X164244752Y-72899500D01*
X164244748Y-72899500D01*
X162805252Y-72899500D01*
X162805247Y-72899500D01*
X162746770Y-72911131D01*
X162746769Y-72911132D01*
X162680447Y-72955447D01*
X162636132Y-73021769D01*
X162636131Y-73021770D01*
X162624500Y-73080247D01*
X162624500Y-73080252D01*
X162624500Y-73419748D01*
X162624513Y-73419812D01*
X162635651Y-73475810D01*
X162635651Y-73524190D01*
X162624500Y-73580252D01*
X162624500Y-73919748D01*
X162626681Y-73930713D01*
X162635651Y-73975810D01*
X162635651Y-74024190D01*
X162626540Y-74069998D01*
X162624500Y-74080252D01*
X162624500Y-74419748D01*
X162624738Y-74420943D01*
X162635651Y-74475810D01*
X162635651Y-74524190D01*
X162624501Y-74580249D01*
X162624500Y-74580252D01*
X162624500Y-74919748D01*
X162624737Y-74920938D01*
X162635651Y-74975810D01*
X162635651Y-75024190D01*
X162624500Y-75080252D01*
X162624500Y-75419752D01*
X160025499Y-75419752D01*
X160025500Y-75419750D01*
X160025500Y-75080249D01*
X160014349Y-75024192D01*
X160014349Y-74975808D01*
X160025500Y-74919750D01*
X160025500Y-74580249D01*
X160014349Y-74524192D01*
X160014349Y-74475808D01*
X160025500Y-74419750D01*
X160025500Y-74080249D01*
X160014349Y-74024192D01*
X160014349Y-73975808D01*
X160025500Y-73919750D01*
X160025500Y-73580249D01*
X160014349Y-73524192D01*
X160014349Y-73475808D01*
X160025500Y-73419750D01*
X160025500Y-73080249D01*
X160025499Y-73080247D01*
X160013868Y-73021770D01*
X160013867Y-73021769D01*
X159969552Y-72955447D01*
X159903230Y-72911132D01*
X159903229Y-72911131D01*
X159844752Y-72899500D01*
X159844748Y-72899500D01*
X158405252Y-72899500D01*
X158405247Y-72899500D01*
X158346770Y-72911131D01*
X158346769Y-72911132D01*
X158280447Y-72955447D01*
X158236132Y-73021769D01*
X158236131Y-73021770D01*
X158224500Y-73080247D01*
X158224500Y-73080252D01*
X158224500Y-73419748D01*
X158224513Y-73419812D01*
X158235651Y-73475810D01*
X158235651Y-73524190D01*
X158224500Y-73580252D01*
X158224500Y-73919748D01*
X158226681Y-73930713D01*
X158235651Y-73975810D01*
X158235651Y-74024190D01*
X158226540Y-74069998D01*
X158224500Y-74080252D01*
X158224500Y-74419748D01*
X158224738Y-74420943D01*
X158235651Y-74475810D01*
X158235651Y-74524190D01*
X158224501Y-74580249D01*
X158224500Y-74580252D01*
X158224500Y-74919748D01*
X158224737Y-74920938D01*
X158235651Y-74975810D01*
X158235651Y-75024190D01*
X158224500Y-75080252D01*
X158224500Y-75419752D01*
X152798180Y-75419752D01*
X155075676Y-72785001D01*
X165474500Y-72785001D01*
X165474501Y-72785019D01*
X165485000Y-72887796D01*
X165485001Y-72887799D01*
X165529395Y-73021769D01*
X165540186Y-73054334D01*
X165632288Y-73203656D01*
X165756344Y-73327712D01*
X165905666Y-73419814D01*
X166072203Y-73474999D01*
X166174991Y-73485500D01*
X166775008Y-73485499D01*
X166775016Y-73485498D01*
X166775019Y-73485498D01*
X166831302Y-73479748D01*
X166877797Y-73474999D01*
X167044334Y-73419814D01*
X167193656Y-73327712D01*
X167317712Y-73203656D01*
X167319752Y-73200347D01*
X167321745Y-73198555D01*
X167322193Y-73197989D01*
X167322289Y-73198065D01*
X167371694Y-73153623D01*
X167440656Y-73142395D01*
X167504740Y-73170234D01*
X167530829Y-73200339D01*
X167532681Y-73203341D01*
X167532683Y-73203344D01*
X167656654Y-73327315D01*
X167805875Y-73419356D01*
X167805880Y-73419358D01*
X167972302Y-73474505D01*
X167972309Y-73474506D01*
X168075019Y-73484999D01*
X168124999Y-73484998D01*
X168125000Y-73484998D01*
X168125000Y-72510000D01*
X168625000Y-72510000D01*
X168625000Y-73484999D01*
X168674972Y-73484999D01*
X168674986Y-73484998D01*
X168777697Y-73474505D01*
X168944119Y-73419358D01*
X168944124Y-73419356D01*
X169093345Y-73327315D01*
X169217315Y-73203345D01*
X169309356Y-73054124D01*
X169309358Y-73054119D01*
X169364505Y-72887697D01*
X169364506Y-72887690D01*
X169374999Y-72784986D01*
X169375000Y-72784973D01*
X169375000Y-72510000D01*
X168625000Y-72510000D01*
X168125000Y-72510000D01*
X168125000Y-71035000D01*
X168625000Y-71035000D01*
X168625000Y-72010000D01*
X169374999Y-72010000D01*
X169374999Y-71735028D01*
X169374998Y-71735013D01*
X169364505Y-71632302D01*
X169309358Y-71465880D01*
X169309356Y-71465875D01*
X169217315Y-71316654D01*
X169093345Y-71192684D01*
X168944124Y-71100643D01*
X168944119Y-71100641D01*
X168777697Y-71045494D01*
X168777690Y-71045493D01*
X168674986Y-71035000D01*
X168625000Y-71035000D01*
X168125000Y-71035000D01*
X168124999Y-71034999D01*
X168075029Y-71035000D01*
X168075011Y-71035001D01*
X167972302Y-71045494D01*
X167805880Y-71100641D01*
X167805875Y-71100643D01*
X167656654Y-71192684D01*
X167532683Y-71316655D01*
X167532679Y-71316660D01*
X167530826Y-71319665D01*
X167529018Y-71321290D01*
X167528202Y-71322323D01*
X167528025Y-71322183D01*
X167478874Y-71366385D01*
X167409911Y-71377601D01*
X167345831Y-71349752D01*
X167319753Y-71319653D01*
X167319737Y-71319628D01*
X167317712Y-71316344D01*
X167193656Y-71192288D01*
X167100888Y-71135069D01*
X167044336Y-71100187D01*
X167044331Y-71100185D01*
X167042862Y-71099698D01*
X166877797Y-71045001D01*
X166877795Y-71045000D01*
X166775010Y-71034500D01*
X166174998Y-71034500D01*
X166174980Y-71034501D01*
X166072203Y-71045000D01*
X166072200Y-71045001D01*
X165905668Y-71100185D01*
X165905663Y-71100187D01*
X165756342Y-71192289D01*
X165632289Y-71316342D01*
X165540187Y-71465663D01*
X165540185Y-71465668D01*
X165540115Y-71465880D01*
X165485001Y-71632203D01*
X165485001Y-71632204D01*
X165485000Y-71632204D01*
X165474500Y-71734983D01*
X165474500Y-72785001D01*
X155075676Y-72785001D01*
X156463758Y-71179181D01*
X160812000Y-71179181D01*
X160822063Y-71277683D01*
X160874950Y-71437284D01*
X160874955Y-71437295D01*
X160963216Y-71580387D01*
X160963219Y-71580391D01*
X161082108Y-71699280D01*
X161082112Y-71699283D01*
X161225204Y-71787544D01*
X161225207Y-71787545D01*
X161225213Y-71787549D01*
X161384815Y-71840436D01*
X161483326Y-71850500D01*
X161483331Y-71850500D01*
X162016669Y-71850500D01*
X162016674Y-71850500D01*
X162115185Y-71840436D01*
X162274787Y-71787549D01*
X162417891Y-71699281D01*
X162536781Y-71580391D01*
X162625049Y-71437287D01*
X162677936Y-71277685D01*
X162688000Y-71179174D01*
X162688000Y-71000000D01*
X162937501Y-71000000D01*
X162937501Y-71179152D01*
X162947556Y-71277583D01*
X163000406Y-71437072D01*
X163000408Y-71437077D01*
X163088614Y-71580080D01*
X163207419Y-71698885D01*
X163350422Y-71787091D01*
X163350427Y-71787093D01*
X163509916Y-71839942D01*
X163608356Y-71849999D01*
X163625000Y-71849998D01*
X163625000Y-71000000D01*
X164125000Y-71000000D01*
X164125000Y-71849999D01*
X164141636Y-71849999D01*
X164141652Y-71849998D01*
X164240083Y-71839943D01*
X164399572Y-71787093D01*
X164399577Y-71787091D01*
X164542580Y-71698885D01*
X164661385Y-71580080D01*
X164749591Y-71437077D01*
X164749593Y-71437072D01*
X164802442Y-71277583D01*
X164812499Y-71179150D01*
X164812500Y-71179137D01*
X164812500Y-71000000D01*
X164125000Y-71000000D01*
X163625000Y-71000000D01*
X162937501Y-71000000D01*
X162688000Y-71000000D01*
X162688000Y-70535001D01*
X170624500Y-70535001D01*
X170624501Y-70535019D01*
X170635000Y-70637796D01*
X170635001Y-70637799D01*
X170652079Y-70689336D01*
X170690186Y-70804334D01*
X170782288Y-70953656D01*
X170906344Y-71077712D01*
X171055666Y-71169814D01*
X171222203Y-71224999D01*
X171324991Y-71235500D01*
X171925008Y-71235499D01*
X171925016Y-71235498D01*
X171925019Y-71235498D01*
X171981302Y-71229748D01*
X172027797Y-71224999D01*
X172194334Y-71169814D01*
X172343656Y-71077712D01*
X172467712Y-70953656D01*
X172469461Y-70950819D01*
X172471169Y-70949283D01*
X172472193Y-70947989D01*
X172472414Y-70948163D01*
X172521406Y-70904096D01*
X172590368Y-70892872D01*
X172654451Y-70920713D01*
X172680537Y-70950817D01*
X172682288Y-70953656D01*
X172806344Y-71077712D01*
X172955666Y-71169814D01*
X173122203Y-71224999D01*
X173224991Y-71235500D01*
X173825008Y-71235499D01*
X173825016Y-71235498D01*
X173825019Y-71235498D01*
X173881302Y-71229748D01*
X173927797Y-71224999D01*
X174094334Y-71169814D01*
X174243656Y-71077712D01*
X174367712Y-70953656D01*
X174459814Y-70804334D01*
X174514999Y-70637797D01*
X174525500Y-70535009D01*
X174525499Y-69484992D01*
X174525171Y-69481785D01*
X174514999Y-69382203D01*
X174514998Y-69382200D01*
X174488169Y-69301236D01*
X174459814Y-69215666D01*
X174367712Y-69066344D01*
X174243656Y-68942288D01*
X174094334Y-68850186D01*
X173927797Y-68795001D01*
X173927795Y-68795000D01*
X173825010Y-68784500D01*
X173224998Y-68784500D01*
X173224980Y-68784501D01*
X173122203Y-68795000D01*
X173122200Y-68795001D01*
X172955668Y-68850185D01*
X172955663Y-68850187D01*
X172806342Y-68942289D01*
X172682285Y-69066346D01*
X172680537Y-69069182D01*
X172678829Y-69070717D01*
X172677807Y-69072011D01*
X172677585Y-69071836D01*
X172628589Y-69115905D01*
X172559626Y-69127126D01*
X172495544Y-69099282D01*
X172469463Y-69069182D01*
X172467714Y-69066346D01*
X172343657Y-68942289D01*
X172343656Y-68942288D01*
X172194334Y-68850186D01*
X172027797Y-68795001D01*
X172027795Y-68795000D01*
X171925010Y-68784500D01*
X171324998Y-68784500D01*
X171324980Y-68784501D01*
X171222203Y-68795000D01*
X171222200Y-68795001D01*
X171055668Y-68850185D01*
X171055663Y-68850187D01*
X170906342Y-68942289D01*
X170782289Y-69066342D01*
X170690187Y-69215663D01*
X170690186Y-69215666D01*
X170635001Y-69382203D01*
X170635001Y-69382204D01*
X170635000Y-69382204D01*
X170624500Y-69484983D01*
X170624500Y-70535001D01*
X162688000Y-70535001D01*
X162688000Y-70500000D01*
X162937500Y-70500000D01*
X163625000Y-70500000D01*
X163625000Y-69650000D01*
X164125000Y-69650000D01*
X164125000Y-70500000D01*
X164812499Y-70500000D01*
X164812499Y-70320864D01*
X164812498Y-70320847D01*
X164802443Y-70222416D01*
X164749593Y-70062927D01*
X164749591Y-70062922D01*
X164661385Y-69919919D01*
X164542580Y-69801114D01*
X164500245Y-69775001D01*
X165474500Y-69775001D01*
X165474501Y-69775019D01*
X165485000Y-69877796D01*
X165485001Y-69877799D01*
X165540185Y-70044331D01*
X165540187Y-70044336D01*
X165551522Y-70062713D01*
X165632288Y-70193656D01*
X165756344Y-70317712D01*
X165905666Y-70409814D01*
X166072203Y-70464999D01*
X166174991Y-70475500D01*
X166775008Y-70475499D01*
X166775016Y-70475498D01*
X166775019Y-70475498D01*
X166831302Y-70469748D01*
X166877797Y-70464999D01*
X167044334Y-70409814D01*
X167193656Y-70317712D01*
X167317712Y-70193656D01*
X167319752Y-70190347D01*
X167321745Y-70188555D01*
X167322193Y-70187989D01*
X167322289Y-70188065D01*
X167371694Y-70143623D01*
X167440656Y-70132395D01*
X167504740Y-70160234D01*
X167530829Y-70190339D01*
X167532681Y-70193341D01*
X167532683Y-70193344D01*
X167656654Y-70317315D01*
X167805875Y-70409356D01*
X167805880Y-70409358D01*
X167972302Y-70464505D01*
X167972309Y-70464506D01*
X168075019Y-70474999D01*
X168124999Y-70474998D01*
X168125000Y-70474998D01*
X168125000Y-69500000D01*
X168625000Y-69500000D01*
X168625000Y-70474999D01*
X168674972Y-70474999D01*
X168674986Y-70474998D01*
X168777697Y-70464505D01*
X168944119Y-70409358D01*
X168944124Y-70409356D01*
X169093345Y-70317315D01*
X169217315Y-70193345D01*
X169309356Y-70044124D01*
X169309358Y-70044119D01*
X169364505Y-69877697D01*
X169364506Y-69877690D01*
X169374999Y-69774986D01*
X169375000Y-69774973D01*
X169375000Y-69500000D01*
X168625000Y-69500000D01*
X168125000Y-69500000D01*
X168125000Y-68025000D01*
X168625000Y-68025000D01*
X168625000Y-69000000D01*
X169374999Y-69000000D01*
X169374999Y-68725028D01*
X169374998Y-68725013D01*
X169364505Y-68622302D01*
X169309358Y-68455880D01*
X169309356Y-68455875D01*
X169217315Y-68306654D01*
X169093345Y-68182684D01*
X168944124Y-68090643D01*
X168944119Y-68090641D01*
X168777697Y-68035494D01*
X168777690Y-68035493D01*
X168674986Y-68025000D01*
X168625000Y-68025000D01*
X168125000Y-68025000D01*
X168124999Y-68024999D01*
X168075029Y-68025000D01*
X168075011Y-68025001D01*
X167972302Y-68035494D01*
X167805880Y-68090641D01*
X167805875Y-68090643D01*
X167656654Y-68182684D01*
X167532683Y-68306655D01*
X167532679Y-68306660D01*
X167530826Y-68309665D01*
X167529018Y-68311290D01*
X167528202Y-68312323D01*
X167528025Y-68312183D01*
X167478874Y-68356385D01*
X167409911Y-68367601D01*
X167345831Y-68339752D01*
X167319753Y-68309653D01*
X167319737Y-68309628D01*
X167317712Y-68306344D01*
X167193656Y-68182288D01*
X167044334Y-68090186D01*
X166877797Y-68035001D01*
X166877795Y-68035000D01*
X166775010Y-68024500D01*
X166174998Y-68024500D01*
X166174980Y-68024501D01*
X166072203Y-68035000D01*
X166072200Y-68035001D01*
X165905668Y-68090185D01*
X165905663Y-68090187D01*
X165756342Y-68182289D01*
X165632289Y-68306342D01*
X165540187Y-68455663D01*
X165540185Y-68455668D01*
X165540115Y-68455880D01*
X165485001Y-68622203D01*
X165485001Y-68622204D01*
X165485000Y-68622204D01*
X165474500Y-68724983D01*
X165474500Y-69775001D01*
X164500245Y-69775001D01*
X164399577Y-69712908D01*
X164399572Y-69712906D01*
X164240083Y-69660057D01*
X164141650Y-69650000D01*
X164125000Y-69650000D01*
X163625000Y-69650000D01*
X163625000Y-69649999D01*
X163608356Y-69650000D01*
X163509915Y-69660057D01*
X163350427Y-69712906D01*
X163350422Y-69712908D01*
X163207419Y-69801114D01*
X163088614Y-69919919D01*
X163000408Y-70062922D01*
X163000406Y-70062927D01*
X162947557Y-70222416D01*
X162937500Y-70320849D01*
X162937500Y-70500000D01*
X162688000Y-70500000D01*
X162688000Y-70320826D01*
X162677936Y-70222315D01*
X162625049Y-70062713D01*
X162625045Y-70062707D01*
X162625044Y-70062704D01*
X162536783Y-69919612D01*
X162536780Y-69919608D01*
X162417891Y-69800719D01*
X162417887Y-69800716D01*
X162274795Y-69712455D01*
X162274789Y-69712452D01*
X162274787Y-69712451D01*
X162115185Y-69659564D01*
X162115183Y-69659563D01*
X162016681Y-69649500D01*
X162016674Y-69649500D01*
X161483326Y-69649500D01*
X161483318Y-69649500D01*
X161384816Y-69659563D01*
X161384815Y-69659564D01*
X161325392Y-69679255D01*
X161225215Y-69712450D01*
X161225204Y-69712455D01*
X161082112Y-69800716D01*
X161082108Y-69800719D01*
X160963219Y-69919608D01*
X160963216Y-69919612D01*
X160874955Y-70062704D01*
X160874950Y-70062715D01*
X160862429Y-70100501D01*
X160822064Y-70222315D01*
X160822064Y-70222316D01*
X160822063Y-70222316D01*
X160812000Y-70320818D01*
X160812000Y-71179181D01*
X156463758Y-71179181D01*
X159622456Y-67525001D01*
X170624500Y-67525001D01*
X170624501Y-67525019D01*
X170635000Y-67627796D01*
X170635001Y-67627799D01*
X170671960Y-67739331D01*
X170690186Y-67794334D01*
X170782288Y-67943656D01*
X170906344Y-68067712D01*
X171055666Y-68159814D01*
X171222203Y-68214999D01*
X171324991Y-68225500D01*
X171925008Y-68225499D01*
X171925016Y-68225498D01*
X171925019Y-68225498D01*
X171981302Y-68219748D01*
X172027797Y-68214999D01*
X172194334Y-68159814D01*
X172343656Y-68067712D01*
X172467712Y-67943656D01*
X172469461Y-67940819D01*
X172471169Y-67939283D01*
X172472193Y-67937989D01*
X172472414Y-67938163D01*
X172521406Y-67894096D01*
X172590368Y-67882872D01*
X172654451Y-67910713D01*
X172680537Y-67940817D01*
X172682288Y-67943656D01*
X172806344Y-68067712D01*
X172955666Y-68159814D01*
X173122203Y-68214999D01*
X173224991Y-68225500D01*
X173825008Y-68225499D01*
X173825016Y-68225498D01*
X173825019Y-68225498D01*
X173881302Y-68219748D01*
X173927797Y-68214999D01*
X174094334Y-68159814D01*
X174243656Y-68067712D01*
X174367712Y-67943656D01*
X174459814Y-67794334D01*
X174514999Y-67627797D01*
X174525500Y-67525009D01*
X174525499Y-66474992D01*
X174524987Y-66469983D01*
X174514999Y-66372203D01*
X174514998Y-66372200D01*
X174513342Y-66367203D01*
X174459814Y-66205666D01*
X174367712Y-66056344D01*
X174243656Y-65932288D01*
X174094334Y-65840186D01*
X173927797Y-65785001D01*
X173927795Y-65785000D01*
X173825010Y-65774500D01*
X173224998Y-65774500D01*
X173224980Y-65774501D01*
X173122203Y-65785000D01*
X173122200Y-65785001D01*
X172955668Y-65840185D01*
X172955663Y-65840187D01*
X172806342Y-65932289D01*
X172682285Y-66056346D01*
X172680537Y-66059182D01*
X172678829Y-66060717D01*
X172677807Y-66062011D01*
X172677585Y-66061836D01*
X172628589Y-66105905D01*
X172559626Y-66117126D01*
X172495544Y-66089282D01*
X172469463Y-66059182D01*
X172467714Y-66056346D01*
X172343657Y-65932289D01*
X172343656Y-65932288D01*
X172194334Y-65840186D01*
X172027797Y-65785001D01*
X172027795Y-65785000D01*
X171925010Y-65774500D01*
X171324998Y-65774500D01*
X171324980Y-65774501D01*
X171222203Y-65785000D01*
X171222200Y-65785001D01*
X171055668Y-65840185D01*
X171055663Y-65840187D01*
X170906342Y-65932289D01*
X170782289Y-66056342D01*
X170690187Y-66205663D01*
X170690186Y-66205666D01*
X170635001Y-66372203D01*
X170635001Y-66372204D01*
X170635000Y-66372204D01*
X170624500Y-66474983D01*
X170624500Y-67525001D01*
X159622456Y-67525001D01*
X163750000Y-62750000D01*
X163750000Y-51124500D01*
X163769685Y-51057461D01*
X163822489Y-51011706D01*
X163874000Y-51000500D01*
X175764943Y-51000500D01*
X175831982Y-51020185D01*
G37*
%TD.AperFunction*%
%TD*%
M02*
